<svg width="16" height="21" viewBox="0 0 16 21" fill="none" xmlns="http://www.w3.org/2000/svg">
<path d="M13 9.5H3C1.89543 9.5 1 10.3954 1 11.5V17.5C1 18.6046 1.89543 19.5 3 19.5H13C14.1046 19.5 15 18.6046 15 17.5V11.5C15 10.3954 14.1046 9.5 13 9.5Z" stroke="#BEBEBE" stroke-width="1.5" stroke-linecap="round" stroke-linejoin="round"/>
<path d="M8 15.5C8.55228 15.5 9 15.0523 9 14.5C9 13.9477 8.55228 13.5 8 13.5C7.44772 13.5 7 13.9477 7 14.5C7 15.0523 7.44772 15.5 8 15.5Z" stroke="#BEBEBE" stroke-width="2" stroke-linecap="round" stroke-linejoin="round"/>
<path d="M4 9.5V5.5C4 4.43913 4.42143 3.42172 5.17157 2.67157C5.92172 1.92143 6.93913 1.5 8 1.5C9.06087 1.5 10.0783 1.92143 10.8284 2.67157C11.5786 3.42172 12 4.43913 12 5.5V9.5" stroke="#BEBEBE" stroke-width="1.5" stroke-linecap="round" stroke-linejoin="round"/>
</svg>
