<svg width="241" height="52" viewBox="0 0 241 52" fill="none" xmlns="http://www.w3.org/2000/svg">
<path d="M70.7994 45.8896C70.4576 45.8896 70.1585 45.7615 69.9021 45.5051C69.6458 45.2487 69.5176 44.9496 69.5176 44.6078V10.4681C69.5176 10.0836 69.6458 9.78449 69.9021 9.52812C70.1585 9.27175 70.4576 9.14355 70.7994 9.14355H93.5734C93.958 9.14355 94.2571 9.27175 94.5135 9.52812C94.7698 9.78449 94.898 10.0836 94.898 10.4681V14.1427C94.898 14.5273 94.7698 14.8264 94.5135 15.04C94.2571 15.2537 93.958 15.3819 93.5734 15.3819H76.7386V25.3375H92.5052C92.8898 25.3375 93.1889 25.4657 93.4453 25.722C93.7016 25.9784 93.8298 26.2775 93.8298 26.662V30.3367C93.8298 30.6785 93.7016 30.9776 93.4453 31.2339C93.1889 31.4903 92.8898 31.6185 92.5052 31.6185H76.7386V44.6078C76.7386 44.9496 76.6104 45.2487 76.3541 45.5051C76.0977 45.7615 75.7986 45.8896 75.414 45.8896H70.7994Z" fill="white"/>
<path d="M110.494 46.4451C107.717 46.4451 105.367 45.9751 103.444 44.9924C101.521 44.0096 100.069 42.6423 99.0858 40.8477C98.1031 39.0532 97.5049 37.0022 97.3767 34.6095C97.334 33.9685 97.334 33.1994 97.334 32.3021C97.334 31.4049 97.334 30.6358 97.3767 29.9948C97.5049 27.6021 98.1031 25.5084 99.1286 23.7138C100.154 21.962 101.607 20.5947 103.53 19.6119C105.452 18.6292 107.76 18.1592 110.494 18.1592C113.229 18.1592 115.536 18.6292 117.459 19.6119C119.382 20.5947 120.834 21.962 121.86 23.7138C122.885 25.4657 123.484 27.5593 123.612 29.9948C123.654 30.6358 123.654 31.4049 123.654 32.3021C123.654 33.1994 123.654 33.9685 123.612 34.6095C123.484 37.0022 122.885 39.0532 121.903 40.8477C120.92 42.6423 119.467 44.0096 117.544 44.9924C115.664 45.9324 113.314 46.4451 110.494 46.4451ZM110.494 41.2323C112.332 41.2323 113.784 40.6341 114.81 39.4804C115.835 38.3268 116.391 36.5749 116.476 34.3104C116.519 33.7976 116.519 33.114 116.519 32.2594C116.519 31.4049 116.519 30.7212 116.476 30.2085C116.391 27.9439 115.792 26.2348 114.81 25.0384C113.784 23.8847 112.374 23.2865 110.494 23.2865C108.657 23.2865 107.204 23.8847 106.179 25.0384C105.153 26.192 104.598 27.9439 104.512 30.2085C104.47 30.7212 104.47 31.4049 104.47 32.2594C104.47 33.114 104.47 33.7976 104.512 34.3104C104.598 36.5749 105.196 38.2841 106.179 39.4804C107.204 40.6341 108.657 41.2323 110.494 41.2323Z" fill="white"/>
<path d="M128.868 45.8901C128.526 45.8901 128.227 45.7619 127.971 45.5056C127.714 45.2492 127.586 44.9501 127.586 44.6083V19.9115C127.586 19.5269 127.714 19.2278 127.971 18.9715C128.227 18.7151 128.526 18.5869 128.868 18.5869H133.098C133.44 18.5869 133.739 18.7151 133.995 18.9715C134.252 19.2278 134.38 19.5269 134.38 19.9115V22.0479C135.192 20.9369 136.217 20.0824 137.499 19.4842C138.781 18.886 140.233 18.5869 141.943 18.5869H144.079C144.464 18.5869 144.763 18.7151 144.976 18.9715C145.19 19.2278 145.318 19.5269 145.318 19.8688V23.6288C145.318 23.9706 145.19 24.2697 144.976 24.5261C144.763 24.7825 144.464 24.9107 144.079 24.9107H139.977C138.311 24.9107 136.986 25.3807 136.089 26.3207C135.149 27.2607 134.679 28.5425 134.679 30.2089V44.651C134.679 44.9928 134.551 45.2919 134.294 45.5483C134.038 45.8046 133.739 45.9328 133.354 45.9328H128.868V45.8901Z" fill="white"/>
<path d="M163.091 45.8902C160.998 45.8902 159.246 45.5056 157.793 44.7792C156.34 44.0529 155.272 42.9419 154.588 41.4892C153.905 40.0364 153.52 38.2419 153.52 36.0627V24.1416H149.376C149.034 24.1416 148.735 24.0134 148.478 23.7571C148.222 23.5007 148.094 23.2016 148.094 22.817V19.8261C148.094 19.4843 148.222 19.1852 148.478 18.9288C148.735 18.6724 149.034 18.5442 149.376 18.5442H153.52V9.82774C153.52 9.48591 153.648 9.1868 153.862 8.93043C154.076 8.67407 154.375 8.5459 154.759 8.5459H158.989C159.331 8.5459 159.63 8.67407 159.887 8.93043C160.143 9.1868 160.271 9.48591 160.271 9.82774V18.5442H166.809C167.15 18.5442 167.45 18.6724 167.706 18.9288C167.962 19.1852 168.09 19.4843 168.09 19.8261V22.817C168.09 23.2016 167.962 23.5007 167.706 23.7571C167.45 24.0134 167.15 24.1416 166.809 24.1416H160.271V35.5073C160.271 36.96 160.528 38.071 161.04 38.8828C161.553 39.6946 162.45 40.0792 163.689 40.0792H167.321C167.663 40.0792 167.962 40.2074 168.219 40.4637C168.475 40.7201 168.603 41.0192 168.603 41.361V44.6083C168.603 44.9501 168.475 45.2493 168.219 45.5056C167.962 45.762 167.663 45.8902 167.321 45.8902H163.091Z" fill="white"/>
<path d="M173.475 14.1431C173.133 14.1431 172.834 14.0149 172.578 13.7585C172.322 13.5022 172.193 13.2031 172.193 12.8612V9.10118C172.193 8.75935 172.322 8.46027 172.578 8.2039C172.834 7.94753 173.133 7.81934 173.475 7.81934H178.261C178.645 7.81934 178.944 7.94753 179.201 8.2039C179.457 8.46027 179.585 8.75935 179.585 9.10118V12.8612C179.585 13.2031 179.457 13.5022 179.201 13.7585C178.944 14.0149 178.645 14.1431 178.261 14.1431H173.475ZM173.689 45.89C173.347 45.89 173.048 45.7618 172.792 45.5055C172.535 45.2491 172.407 44.95 172.407 44.6081V19.8686C172.407 19.5268 172.535 19.2277 172.792 18.9713C173.048 18.715 173.347 18.5868 173.689 18.5868H178.047C178.432 18.5868 178.731 18.715 178.944 18.9713C179.158 19.2277 179.286 19.5268 179.286 19.8686V44.6081C179.286 44.95 179.158 45.2491 178.944 45.5055C178.731 45.7618 178.432 45.89 178.047 45.89H173.689Z" fill="white"/>
<path d="M195.096 46.4454C193.002 46.4454 191.207 46.189 189.712 45.719C188.216 45.249 187.02 44.6081 186.08 43.8817C185.14 43.1553 184.456 42.4289 183.986 41.6598C183.516 40.9335 183.303 40.3353 183.26 39.8225C183.217 39.438 183.346 39.1389 183.602 38.9252C183.858 38.7116 184.157 38.5834 184.456 38.5834H188.601C188.729 38.5834 188.857 38.5834 188.986 38.6261C189.071 38.6689 189.242 38.7543 189.413 38.9252C189.883 39.3098 190.353 39.6943 190.866 40.1216C191.378 40.5489 191.977 40.8907 192.66 41.1898C193.344 41.4889 194.241 41.6171 195.267 41.6171C196.634 41.6171 197.788 41.3607 198.685 40.8053C199.625 40.2498 200.095 39.4807 200.095 38.4552C200.095 37.7289 199.881 37.1307 199.497 36.6607C199.112 36.1906 198.343 35.8061 197.275 35.4215C196.207 35.037 194.668 34.6524 192.66 34.2252C190.695 33.7551 189.071 33.1997 187.789 32.4733C186.507 31.7897 185.525 30.8924 184.884 29.8669C184.243 28.7987 183.944 27.6023 183.944 26.1923C183.944 24.825 184.371 23.5432 185.183 22.3041C185.995 21.0649 187.234 20.0395 188.857 19.2276C190.481 18.4158 192.489 18.0312 194.925 18.0312C196.805 18.0312 198.471 18.2876 199.839 18.7576C201.249 19.2276 202.402 19.8258 203.342 20.5095C204.282 21.1931 204.966 21.9195 205.479 22.6459C205.949 23.3722 206.248 23.9704 206.248 24.5259C206.29 24.9104 206.162 25.2096 205.949 25.4232C205.692 25.6368 205.436 25.765 205.094 25.765H201.206C201.035 25.765 200.864 25.7223 200.736 25.6795C200.608 25.5941 200.437 25.5086 200.309 25.4232C199.924 25.0814 199.497 24.6968 199.069 24.3122C198.599 23.9277 198.044 23.5859 197.403 23.2868C196.762 22.9877 195.908 22.8595 194.839 22.8595C193.515 22.8595 192.489 23.1586 191.806 23.7141C191.122 24.3123 190.737 24.9959 190.737 25.8932C190.737 26.4914 190.908 27.0041 191.25 27.4314C191.592 27.8587 192.276 28.286 193.258 28.6705C194.284 29.0551 195.822 29.4396 197.873 29.8669C200.223 30.2942 202.06 30.8924 203.47 31.7469C204.838 32.5588 205.82 33.4988 206.419 34.567C207.017 35.6352 207.273 36.8316 207.273 38.1134C207.273 39.6944 206.803 41.1044 205.863 42.3435C204.923 43.5826 203.556 44.6081 201.761 45.2917C199.967 46.0608 197.745 46.4454 195.096 46.4454Z" fill="white"/>
<path d="M212.272 17.5615C212.101 17.5615 211.931 17.5188 211.845 17.4333C211.76 17.3479 211.674 17.2197 211.631 17.0915L207.957 6.1104C207.914 6.06767 207.914 5.9822 207.914 5.93948C207.914 5.85402 207.957 5.76857 208 5.68312C208.085 5.59766 208.17 5.59766 208.256 5.59766H209.751C209.922 5.59766 210.05 5.64038 210.136 5.72584C210.221 5.81129 210.264 5.89676 210.307 5.98222L213.212 14.7842L216.118 5.98222C216.161 5.89676 216.203 5.81129 216.289 5.72584C216.374 5.64038 216.502 5.59766 216.673 5.59766H218.169C218.254 5.59766 218.34 5.64039 218.425 5.68312C218.511 5.76857 218.553 5.85402 218.553 5.93948C218.553 5.9822 218.553 6.02494 218.511 6.1104L214.836 17.0915C214.793 17.2197 214.708 17.3479 214.622 17.4333C214.537 17.5188 214.366 17.5615 214.195 17.5615H212.272Z" fill="white"/>
<path d="M220.732 17.5615C220.604 17.5615 220.518 17.5188 220.433 17.4333C220.347 17.3479 220.305 17.2624 220.305 17.1342V6.02494C220.305 5.89675 220.347 5.81129 220.433 5.72584C220.518 5.64038 220.604 5.59766 220.732 5.59766H225.304C226.201 5.59766 226.97 5.72584 227.611 6.02494C228.252 6.32403 228.765 6.70858 229.149 7.30678C229.534 7.90497 229.705 8.58863 229.705 9.40046C229.705 10.255 229.534 10.9387 229.149 11.4941C228.765 12.0496 228.252 12.4769 227.611 12.7332C226.97 12.9896 226.158 13.1605 225.304 13.1605H222.74V17.177C222.74 17.3051 222.697 17.3906 222.612 17.476C222.527 17.5615 222.441 17.6042 222.313 17.6042H220.732V17.5615ZM222.697 11.2378H225.176C225.817 11.2378 226.329 11.0669 226.714 10.7678C227.056 10.4687 227.227 9.99864 227.227 9.35772C227.227 8.80225 227.056 8.33226 226.714 7.99044C226.372 7.64862 225.859 7.4777 225.176 7.4777H222.697V11.2378Z" fill="white"/>
<path d="M231.97 17.5615C231.842 17.5615 231.757 17.5188 231.671 17.4333C231.586 17.3479 231.543 17.2624 231.543 17.1342V6.02494C231.543 5.89675 231.586 5.81129 231.671 5.72584C231.757 5.64038 231.842 5.59766 231.97 5.59766H233.295C233.466 5.59766 233.551 5.64038 233.637 5.72584C233.722 5.81129 233.765 5.85403 233.765 5.89676L238.679 13.5451V6.02494C238.679 5.89675 238.721 5.81129 238.807 5.72584C238.892 5.64038 238.978 5.59766 239.106 5.59766H240.559C240.687 5.59766 240.772 5.64038 240.858 5.72584C240.943 5.81129 240.986 5.89675 240.986 6.02494V17.1342C240.986 17.2624 240.943 17.3479 240.858 17.4333C240.772 17.5188 240.687 17.5615 240.559 17.5615H239.234C239.063 17.5615 238.978 17.5188 238.892 17.4333C238.807 17.3479 238.764 17.3051 238.721 17.2624L233.808 9.785V17.1342C233.808 17.2624 233.765 17.3479 233.679 17.4333C233.594 17.5188 233.508 17.5615 233.38 17.5615H231.97Z" fill="white"/>
<path d="M41.8307 52H10.1693C4.5719 52 0 47.4708 0 41.8307V10.1693C0 4.57189 4.52917 0 10.1693 0H41.8307C47.4281 0 52 4.52916 52 10.1693V41.8307C52 47.4281 47.4281 52 41.8307 52Z" fill="#DC1E3D"/>
<path d="M43.924 11.5789V11.5361C43.4968 10.9807 42.514 10.5534 41.8731 10.2543C41.4031 9.99793 40.9331 9.78428 40.4203 9.57064C39.9503 9.357 39.4376 9.14336 38.9249 8.92972C38.4121 8.71608 37.9421 8.54517 37.4294 8.37426C36.9167 8.20335 36.4039 8.03243 35.8912 7.86152C35.3784 7.69061 34.8657 7.56242 34.353 7.43424C33.8402 7.30605 33.3275 7.17788 32.772 7.09242C32.2593 7.00696 31.7038 6.87879 31.1911 6.83606C30.6784 6.75061 30.1229 6.70788 29.6102 6.62242C27.5165 6.40878 25.4228 6.32333 23.3291 6.49424C19.1845 6.87879 14.9972 7.69061 11.2371 9.57064C10.0835 10.1261 8.58797 11.2798 7.5625 11.6643C7.5625 11.707 7.60523 11.7071 7.60523 11.7498C7.77614 12.1771 7.64795 13.2453 7.64795 13.758C7.64795 15.4671 7.69069 17.219 7.90433 18.9281C8.45979 23.7991 10.0407 28.7555 12.5617 33.071L16.5781 14.4416C16.6208 14.1425 16.7917 13.8862 17.0054 13.6725C17.2618 13.4589 17.5181 13.3734 17.8172 13.3734H37.3867C37.6858 13.3734 37.9421 13.4589 38.113 13.6725C38.284 13.8862 38.3694 14.1425 38.2839 14.4416L37.1303 19.6117C37.0876 19.8681 36.9166 20.1245 36.703 20.3381C36.4466 20.5517 36.1903 20.6799 35.8912 20.6799H23.7992L22.8164 25.1664H34.0966C34.3957 25.1664 34.6093 25.2518 34.7802 25.4655C34.9512 25.6791 34.9939 25.9355 34.9512 26.2346L33.8402 31.3619C33.7975 31.661 33.6266 31.9174 33.3702 32.1311C33.1139 32.3447 32.8148 32.4301 32.5157 32.4301H21.2355L19.4409 40.8475C19.3982 40.9757 19.3554 41.1039 19.3127 41.2321C21.0218 42.6849 22.9446 43.924 25.0383 44.864C25.2946 44.9922 25.6364 45.0776 25.8074 45.2058C26.2774 45.0776 27.0465 44.864 27.3883 44.5222C28.4565 44.1376 29.5674 43.3685 30.5074 42.6848C34.823 39.6512 38.0276 35.6775 40.3349 30.9346C42.8558 25.7646 43.7531 20.3808 43.924 14.6553C44.0522 13.8007 44.1804 12.3052 43.924 11.5789Z" fill="white"/>
</svg>
