<svg width="74" height="78" viewBox="0 0 74 78" fill="none" xmlns="http://www.w3.org/2000/svg">
<path d="M73.0928 10.4037V10.3178C72.2339 9.20126 70.2584 8.34235 68.97 7.74112C68.0253 7.22578 67.0805 6.79629 66.0498 6.36684C65.105 5.93739 64.0743 5.50794 63.0436 5.07848C62.0129 4.64903 61.0681 4.30548 60.0374 3.96192C59.0068 3.61836 57.9761 3.27478 56.9454 2.93122C55.9147 2.58766 54.884 2.32999 53.8533 2.07232C52.8226 1.81465 51.792 1.55698 50.6754 1.3852C49.6447 1.21342 48.5281 0.955772 47.4974 0.869882C46.4667 0.698101 45.3502 0.612211 44.3195 0.44043C40.1108 0.0109773 35.9022 -0.160793 31.6936 0.182769C23.3622 0.955783 14.9449 2.58766 7.38659 6.36684C5.06754 7.48342 2.06137 9.80248 0 10.5755C0 10.6614 0.0858957 10.6614 0.0858957 10.7473C0.429458 11.6062 0.171778 13.7535 0.171778 14.7841C0.171778 18.2198 0.257674 21.7413 0.687126 25.1769C1.8037 34.9684 4.98164 44.9317 10.0492 53.6066L18.1229 16.1584C18.2088 15.5571 18.5523 15.0418 18.9818 14.6124C19.4971 14.1829 20.0125 14.0111 20.6137 14.0111H59.9516C60.5528 14.0111 61.0681 14.1829 61.4117 14.6124C61.7553 15.0418 61.927 15.5571 61.7553 16.1584L59.4362 26.5511C59.3503 27.0664 59.0068 27.5818 58.5773 28.0112C58.062 28.4407 57.5466 28.6984 56.9454 28.6984H32.6384L30.6629 37.7169H53.338C53.9392 37.7169 54.3687 37.8887 54.7122 38.3181C55.0558 38.7476 55.1417 39.2629 55.0558 39.8641L52.8227 50.171C52.7368 50.7722 52.3932 51.2876 51.8779 51.7171C51.3625 52.1465 50.7613 52.3182 50.16 52.3182H27.485L23.8776 69.2387C23.7917 69.4963 23.7058 69.754 23.6199 70.0117C27.0555 72.932 30.9206 75.4228 35.1292 77.3124C35.6446 77.5701 36.3317 77.7418 36.6752 77.9995C37.62 77.7418 39.1661 77.3124 39.8532 76.6253C42.0004 75.8523 44.2336 74.3062 46.1232 72.932C54.7981 66.8337 61.2399 58.8459 65.878 49.3121C70.9455 38.9193 72.7492 28.0972 73.0928 16.5878C73.3505 14.87 73.6081 11.8638 73.0928 10.4037Z" fill="white"/>
</svg>
