<svg width="460" height="517" viewBox="0 0 460 517" fill="none" xmlns="http://www.w3.org/2000/svg">
<mask id="mask0_165_1179" style="mask-type:alpha" maskUnits="userSpaceOnUse" x="0" y="0" width="460" height="517">
<rect width="460" height="516.427" fill="#C4C4C4"/>
</mask>
<g mask="url(#mask0_165_1179)">
<g opacity="0.7">
<path opacity="0.3" d="M23.5103 362.423C19.3183 361.321 18.1459 360.241 19.1416 358.4C19.6029 357.548 20.4889 356.85 21.1106 356.85C21.7323 356.85 24.4536 357.855 27.158 359.084C29.8624 360.312 33.1693 361.596 34.5066 361.938L36.9382 362.558L33.9467 362.604C32.3015 362.629 29.8877 362.758 28.5828 362.891C27.2779 363.024 24.9953 362.814 23.5103 362.423V362.423ZM13.996 356.764C13.2067 356.454 11.8908 356.349 11.0717 356.532C10.0403 356.762 9.24385 356.419 8.48058 355.417C7.8745 354.621 6.78819 353.827 6.06659 353.653C4.41095 353.252 0.94046 349.301 -0.991257 345.617C-1.96684 343.756 -3.27888 342.469 -4.83641 341.847C-7.60028 340.742 -7.79813 340.241 -5.65894 339.764C-3.21155 339.218 -2.75621 336.186 -4.81628 334.153C-5.7995 333.182 -6.31688 332.043 -6.02065 331.5C-5.67108 330.86 -6.63588 329.737 -8.97205 328.064C-11.9208 325.952 -12.4661 325.185 -12.598 322.96C-12.6834 321.52 -13.1824 319.978 -13.7069 319.534C-14.3676 318.974 -14.5024 316.966 -14.1457 312.996C-13.7591 308.693 -13.9843 306.037 -15.0496 302.336C-16.6317 296.839 -17.4399 286.597 -17.0288 277.253C-16.9411 275.259 -17.3087 272.523 -17.8458 271.171C-19.1536 267.879 -25.1711 263.725 -32.6083 260.978C-37.9276 259.014 -38.6756 258.51 -40.7549 255.493C-42.0142 253.666 -44.4208 250.935 -46.103 249.424C-47.7852 247.913 -49.6142 245.695 -50.1673 244.495C-51.9231 240.684 -55.0181 236.854 -57.1279 235.883C-58.2507 235.366 -59.5313 234.022 -59.9737 232.895C-60.6896 231.073 -60.5009 230.565 -58.26 228.276C-55.8301 225.794 -55.8015 225.692 -57.4436 225.391C-61.4784 224.649 -59.7815 220.859 -52.5391 214.436C-47.7255 210.168 -46.3154 206.916 -47.6488 203.159C-48.1569 201.727 -48.612 200.229 -48.6599 199.831C-48.708 199.432 -49.0697 199.106 -49.4639 199.106C-49.8581 199.106 -49.7823 198.583 -49.2954 197.943C-48.5452 196.958 -48.7347 196.677 -50.5375 196.1C-53.1649 195.258 -57.1321 196.09 -57.1474 197.486C-57.1658 199.159 -58.2129 199.282 -61.6654 198.017C-63.5145 197.34 -65.4351 196.786 -65.9334 196.786C-66.4318 196.786 -68.3699 195.859 -70.2404 194.727C-72.1109 193.595 -74.1055 192.41 -74.6729 192.094C-75.2402 191.779 -75.7044 190.919 -75.7044 190.184C-75.7044 189.448 -76.4331 188.383 -77.3237 187.817C-78.2144 187.25 -79.3685 185.881 -79.8885 184.774C-80.5719 183.318 -81.0836 182.936 -81.735 183.394C-83.0946 184.349 -85.1074 184.168 -89.993 182.649C-92.5471 181.856 -95.2079 180.5 -96.2707 179.451C-97.2853 178.45 -99.2238 177.228 -100.578 176.735C-102.814 175.923 -103.373 175.929 -106.629 176.803L-110.217 177.766L-121.224 174.017C-127.995 171.712 -133.25 169.512 -134.878 168.302C-137.402 166.427 -137.483 166.223 -136.644 163.898C-135.874 161.768 -136.005 161.109 -137.678 158.68C-138.731 157.151 -141.033 154.802 -142.792 153.461C-144.551 152.12 -145.791 150.795 -145.547 150.517C-145.302 150.239 -146.542 148.367 -148.301 146.357C-150.299 144.074 -151.709 141.628 -152.06 139.837C-152.509 137.543 -153.032 136.841 -154.689 136.31C-156.445 135.748 -156.936 135.82 -157.941 136.785C-159.357 138.144 -158.954 139.58 -155.823 144.335C-154.551 146.267 -153.236 149.132 -152.901 150.701C-152.567 152.269 -151.578 154.538 -150.704 155.741C-148.634 158.592 -149.971 158.542 -153.234 155.646C-155.159 153.938 -155.679 153.001 -155.297 151.93C-154.888 150.787 -155.29 150.236 -157.291 149.196C-160.325 147.62 -160.967 146.603 -159.853 145.139C-159.203 144.286 -159.501 143.35 -161.151 141.061C-162.827 138.736 -163.178 137.61 -162.763 135.884C-162.085 133.062 -163.886 130.507 -167.245 129.53C-169.184 128.965 -169.852 128.334 -170.247 126.693C-170.527 125.533 -171.062 123.737 -171.437 122.703C-171.827 121.627 -171.799 120.684 -171.371 120.498C-170.959 120.319 -171.229 119.523 -171.969 118.73C-173.059 117.56 -173.133 117.007 -172.362 115.817C-171.838 115.008 -171.64 114.085 -171.922 113.764C-172.204 113.443 -171.501 112.483 -170.359 111.632C-169.217 110.781 -167.696 109.083 -166.98 107.86C-166.264 106.636 -164.057 104.367 -162.075 102.818C-160.093 101.269 -157.581 98.5563 -156.493 96.7891C-154.981 94.3361 -154.095 93.5736 -152.748 93.566C-151.777 93.5608 -151.034 93.8823 -151.097 94.2811C-151.36 95.9426 -149.491 95.4307 -147.391 93.2662C-146.153 91.9903 -145.485 90.8594 -145.907 90.7531C-146.328 90.6468 -146.673 90.1668 -146.673 89.6864C-146.673 89.2061 -148.382 87.6463 -150.47 86.2201C-153.933 83.8547 -154.155 83.5411 -153.004 82.6469C-152.071 81.9224 -151.961 81.3907 -152.583 80.6094C-153.677 79.2363 -151.951 76.1613 -150.08 76.149C-149.308 76.1438 -149.087 75.959 -149.562 75.714C-150.626 75.1645 -151.108 73.9164 -150.959 72.0983C-150.72 69.1943 -151.624 67.9796 -154.696 67.0775C-156.353 66.591 -158.882 65.5643 -160.315 64.796C-161.748 64.0277 -163.567 63.3991 -164.356 63.3991C-165.145 63.3991 -168.733 62.8712 -172.329 62.226C-178.11 61.1887 -179.128 61.1478 -181.131 61.8721C-185.281 63.3731 -189.678 63.9849 -191.47 63.3107C-192.815 62.805 -194.282 63.1173 -199.398 64.9981C-202.851 66.2675 -206.976 67.5031 -208.565 67.7438C-210.153 67.9846 -213.193 68.7979 -215.321 69.5511C-221.354 71.6877 -229.997 73.8415 -232.388 73.8042C-233.931 73.7801 -232.888 73.3045 -228.783 72.1604C-221.806 70.216 -214.637 67.6839 -213.974 66.9299C-213.157 66.0012 -214.93 65.6679 -217.059 66.3499C-218.627 66.8519 -219.594 66.805 -221.403 66.1387L-223.73 65.2819L-221.199 64.3619C-218.337 63.322 -217.437 62.1455 -218.095 60.3046C-218.731 58.5217 -215.221 57.2117 -207.658 56.4101C-203.594 55.9794 -200.505 55.2624 -198.425 54.2674C-194.757 52.5127 -195.387 51.1866 -199.342 52.3377C-201.214 52.8827 -202.577 52.8886 -205.349 52.364C-208.719 51.7264 -208.839 51.6354 -207.332 50.861C-204.81 49.5652 -199.595 48.7858 -196.168 49.1927C-194 49.4501 -192.224 49.2699 -190.401 48.6074L-187.767 47.6502L-189.501 46.3532C-190.455 45.6398 -191.235 44.9028 -191.235 44.7153C-191.235 44.1772 -186.267 43.1011 -183.783 43.1011C-182.543 43.1011 -179.145 42.4703 -176.23 41.6994C-173.316 40.9285 -166.592 39.876 -161.288 39.3606C-152.686 38.5245 -150.864 38.5143 -144.414 39.266C-140.437 39.7294 -134.955 40.2821 -132.232 40.4943C-129.509 40.7064 -124.689 41.3797 -121.521 41.9905C-114.163 43.4092 -109.371 43.3919 -101.151 41.917C-97.5213 41.2657 -93.8528 40.8887 -92.9987 41.0792C-92.1447 41.2697 -90.6925 41.1422 -89.7717 40.7959C-88.503 40.3187 -87.5191 40.3764 -85.709 41.0342C-84.0735 41.6286 -82.0547 41.7983 -79.3061 41.5723C-76.4062 41.3339 -73.8671 41.5808 -70.1602 42.4616C-67.3378 43.1323 -64.2032 43.681 -63.1944 43.681C-61.4073 43.681 -61.4014 43.7024 -62.962 44.5095C-64.4924 45.3011 -64.4968 45.3563 -63.0598 45.7476C-62.2326 45.9729 -59.3609 45.996 -56.6782 45.799C-51.8335 45.4431 -51.7916 45.4531 -50.4407 47.2891L-49.0806 49.1374L-47.3152 47.5814C-46.3006 46.6872 -43.8897 45.6743 -41.647 45.1999C-38.2574 44.483 -37.2288 44.4854 -33.8244 45.2181C-31.4213 45.7353 -28.5451 45.9237 -26.3909 45.7051C-23.6479 45.4267 -22.3743 45.6001 -20.5847 46.4957C-18.3253 47.6263 -18.2627 47.6269 -16.2588 46.5354C-15.1404 45.9263 -12.8392 45.1565 -11.1449 44.8248C-7.08875 44.0306 -5.71303 42.3382 -8.14893 41.1391C-9.87152 40.2912 -9.79616 40.2265 -5.26814 38.6658C-1.89117 37.5019 -0.370468 37.2376 0.28775 37.7001C0.945969 38.1627 0.939285 38.6715 0.263321 39.5592C-0.888809 41.0721 0.545258 43.3589 2.34224 42.8743C2.98825 42.7001 4.05986 42.704 4.72359 42.883C5.76614 43.1642 5.74945 43.4026 4.60092 44.6344C1.42805 48.0375 8.54135 47.0733 13.357 43.4475C15.3148 41.9734 18.3483 41.5265 21.1915 42.2932C23.0277 42.7884 22.8557 43.1938 19.8149 45.537C16.1911 48.3294 14.3367 48.9005 8.89398 48.9005C6.26341 48.9005 3.15802 49.301 1.71098 49.8269C-0.292038 50.5548 -1.26877 50.6154 -2.84859 50.1095C-5.79395 49.1664 -6.81932 49.9514 -4.70653 51.5319L-2.90308 52.881L-6.50121 53.5987C-8.48018 53.9934 -11.7704 54.3545 -13.8129 54.4011C-16.7747 54.4688 -17.5275 54.6947 -17.532 55.5176C-17.5361 56.2217 -18.9769 56.9626 -22.0707 57.8514C-32.0955 60.7312 -40.5993 65.9236 -37.5205 67.2849C-36.9436 67.54 -36.0279 68.4592 -35.4856 69.3275C-34.861 70.3275 -33.6571 71.0249 -32.2021 71.2296C-30.9385 71.4074 -27.6765 72.3239 -24.9533 73.2664C-22.2301 74.2088 -18.8879 75.1505 -17.5263 75.3591C-13.7777 75.9332 -13.7448 75.9937 -15.4907 79.1065C-16.9844 81.7696 -17.0146 82.1496 -15.857 83.7227C-15.1633 84.6655 -14.141 85.4277 -13.5854 85.4164C-10.8814 85.3614 -8.34595 83.6076 -6.77057 80.7026C-5.26904 77.9337 -4.58481 77.4172 -0.275101 75.7995C6.08534 73.4121 8.73035 71.0606 8.02551 68.4202C7.56641 66.7003 7.80487 66.2967 9.89955 65.2485C11.2196 64.5879 12.9673 63.0069 13.7834 61.7351C15.6074 58.8924 18.5386 57.907 23.4811 58.4748C27.8643 58.9784 33.0479 60.9342 33.674 62.3206C33.9311 62.8897 33.7177 63.9117 33.1997 64.5918C32.4153 65.6219 32.5635 66.0568 34.0871 67.1966L35.9161 68.5648L38.9028 67.4767C40.5455 66.8783 43.1784 65.711 44.7536 64.8826L47.6177 63.3765L48.2906 64.6548C48.6607 65.3579 48.7657 66.2953 48.524 66.7379C48.2823 67.1806 48.4703 68.0492 48.9417 68.6683C49.4721 69.3647 49.5133 70.1524 49.0499 70.7344C48.5274 71.3905 48.8766 72.3872 50.2048 74.0304C52.1075 76.3845 52.1076 76.3865 50.4367 77.2089C48.2381 78.2912 49.6487 79.439 52.0619 78.5313C54.4586 77.6299 57.2021 77.7472 58.8941 78.8233C61.3952 80.414 59.3153 82.317 52.6765 84.512C45.4556 86.8995 42.2372 87.3725 32.8121 87.4311C25.8524 87.4743 24.9308 87.6303 18.1644 89.9098C14.1931 91.2478 10.9438 92.572 10.9438 92.8526C10.9438 94.0493 12.1952 93.9451 16.9962 92.349C19.825 91.4085 23.4712 90.6571 25.2079 90.6569C28.1741 90.6564 28.2823 90.7209 27.356 91.9373C26.8195 92.6418 25.6623 93.6269 24.7844 94.1265C23.4042 94.9119 23.3234 95.2435 24.1874 96.5761C25.4831 98.5746 28.8668 99.5362 32.9142 99.0563L36.113 98.677L33.6534 99.8695C32.3007 100.525 30.0726 101.232 28.7021 101.44C27.3316 101.648 24.515 102.418 22.443 103.152C20.3397 103.897 18.2266 104.291 17.659 104.044C16.353 103.477 17.7315 102.626 21.9745 101.38C25.7482 100.272 25.1449 99.095 21.0781 99.6311C19.494 99.84 14.3573 101.2 9.66325 102.653C2.33647 104.921 1.05827 105.52 0.631714 106.885C0.107407 108.562 -1.6814 109.356 -7.97047 110.7C-9.97668 111.129 -12.5761 112.166 -13.747 113.004C-14.9179 113.842 -17.1599 115.097 -18.7292 115.792C-20.2984 116.488 -21.8009 117.706 -22.068 118.5C-22.5082 119.808 -22.6105 119.839 -23.1616 118.832C-24.1942 116.943 -25.7501 118.789 -25.8396 122.009C-25.9314 125.308 -28.3109 127.559 -33.5297 129.282C-38.8804 131.049 -46.4942 135.224 -48.0368 137.237C-49.3987 139.014 -49.4558 139.707 -48.6167 144.275C-47.8339 148.536 -47.8806 149.606 -48.9108 151.006C-49.6801 152.051 -50.5777 152.551 -51.3245 152.35C-53.0951 151.872 -55.2609 146.752 -54.6539 144.478C-54.2323 142.898 -54.5116 142.3 -56.1863 141.194C-57.5361 140.303 -58.7821 139.964 -59.8411 140.2C-60.7253 140.398 -63.2246 140.024 -65.3983 139.369C-68.7286 138.366 -69.7913 138.282 -72.169 138.833C-73.781 139.207 -75.3826 140.094 -75.9071 140.903C-76.6873 142.106 -77.2041 142.261 -79.3591 141.935C-80.753 141.724 -82.8963 141.192 -84.1219 140.752C-87.1405 139.668 -88.831 139.743 -92.2216 141.114C-93.8031 141.753 -97.0303 142.976 -99.3931 143.832C-102.109 144.815 -103.974 145.935 -104.463 146.874C-104.889 147.692 -106.41 150.879 -107.844 153.957L-110.452 159.552L-109.12 163.165C-106.673 169.801 -103.269 171.788 -96.1749 170.719C-90.8273 169.913 -87.6158 168.279 -86.4353 165.766C-85.6856 164.169 -84.8769 163.641 -82.4561 163.169C-78.8128 162.458 -77.2912 162.431 -75.8918 163.056C-74.7371 163.571 -75.1431 164.418 -80.3134 172.285C-83.861 177.683 -83.6055 178.166 -77.5276 177.55C-71.9901 176.988 -66.9284 177.419 -66.3371 178.502C-66.1066 178.924 -66.4816 181.773 -67.1703 184.832C-68.4024 190.305 -68.3936 190.428 -66.6199 192.444C-65.6284 193.572 -63.7694 194.875 -62.4889 195.34C-60.4446 196.083 -59.8032 196.082 -57.2311 195.326C-53.1439 194.126 -50.9243 194.253 -48.0856 195.849C-45.8158 197.126 -45.4948 197.162 -43.711 196.34C-42.6522 195.853 -41.2078 194.644 -40.5012 193.655C-38.9079 191.424 -36.2233 189.857 -33.9683 189.84C-33.0262 189.833 -31.3832 189.174 -30.3172 188.377C-28.1524 186.757 -24.3405 186.23 -26.2037 187.807C-27.7672 189.131 -28.6612 193.39 -27.6534 194.713C-26.8143 195.815 -26.7469 195.809 -25.22 194.484C-24.1329 193.54 -23.9137 192.935 -24.5078 192.518C-25.9252 191.521 -25.4984 190.694 -22.861 189.323C-20.1228 187.901 -18.0045 188.047 -15.6417 189.821C-13.9092 191.122 -4.65883 192.881 -2.00769 192.413C2.02954 191.701 12.9382 196.362 17.037 200.551C18.9886 202.545 25.2234 204.552 27.965 204.069C33.6044 203.074 41.3362 207.045 43.1443 211.864C43.6828 213.3 44.4946 214.637 44.9484 214.835C46.1523 215.363 44.3489 217.445 40.4064 220.081C37.8876 221.765 37.2861 222.49 37.9948 222.988C38.7034 223.486 39.8681 223.049 42.6651 221.238C46.733 218.603 48.0905 218.335 50.1284 219.767C51.3681 220.638 51.33 220.816 49.6309 222.087C48.6189 222.844 47.2058 223.48 46.4907 223.5C45.737 223.521 46.0416 223.776 47.2153 224.105C48.8274 224.557 49.6684 224.43 51.3413 223.48C55.6983 221.006 56.7229 220.887 60.5931 222.407C63.1092 223.395 64.1169 224.147 63.9901 224.942C63.6373 227.154 64.3794 227.643 66.5611 226.639C68.2951 225.84 69.4848 225.802 75.2864 226.361C81.4576 226.955 82.2659 227.191 85.2267 229.272C87.4248 230.817 89.8973 231.833 93.0033 232.467C97.1736 233.319 97.6266 233.579 98.3829 235.553C99.4796 238.415 98.1947 241.591 94.7198 244.608C93.2354 245.897 91.4159 247.789 90.6765 248.812C89.9372 249.836 88.3648 251.353 87.1824 252.184C85.181 253.591 85.0696 253.942 85.5686 257.282C86.5433 263.807 82.0018 275.98 77.6216 278.583C76.1955 279.431 74.9751 279.63 72.7137 279.384C70.8548 279.181 69.4788 279.312 69.1155 279.725C68.7921 280.093 66.99 280.869 65.1111 281.449C63.2321 282.03 60.4348 283.261 58.8947 284.186C56.2291 285.786 56.1399 285.963 57.0369 287.873C58.0711 290.076 57.3746 292.683 55.1581 294.907C54.4415 295.626 53.8552 296.849 53.8552 297.625C53.8552 298.401 52.9942 299.844 51.9419 300.831C50.8896 301.818 48.8596 304.077 47.4309 305.852C43.9159 310.217 41.8023 310.974 36.7056 309.69C32.2824 308.576 29.9238 308.443 29.9238 309.307C29.9238 309.633 30.8055 310.182 31.8831 310.527C32.9608 310.872 34.6401 312.277 35.615 313.649C37.0667 315.692 37.2203 316.401 36.4637 317.568C35.2916 319.376 30.8096 320.894 26.6436 320.894C22.9539 320.894 22.0385 321.528 23.3129 323.202C24.0996 324.235 23.5704 325.897 22.0491 327.171C21.9259 327.274 20.6338 326.926 19.1778 326.397C15.7023 325.134 14.4719 325.938 16.2284 328.325C16.9429 329.296 18.3013 330.263 19.2472 330.474C20.8728 330.837 20.8904 330.917 19.5688 331.944C18.7989 332.541 18.3996 333.449 18.6801 333.962C18.9816 334.515 18.3092 335.707 17.0334 336.882C14.9596 338.793 14.93 338.926 16.2595 340.351C17.0197 341.167 18.2055 341.986 18.8946 342.172C21.3798 342.842 21.7918 345.132 19.8968 347.742C17.9984 350.358 17.707 352.98 19.1766 354.224C20.5124 355.355 16.0174 357.559 13.996 356.764H13.996ZM-46.8217 105.585C-44.6168 102.347 -40.5138 99.9355 -37.2096 99.9355C-34.8313 99.9355 -34.8033 100.207 -36.9809 102.152L-38.6931 103.682L-36.9363 104.682C-35.5208 105.487 -34.7905 105.557 -33.1769 105.04C-32.0754 104.688 -30.9464 103.895 -30.6679 103.278C-30.2891 102.439 -29.673 102.243 -28.2201 102.499C-26.8751 102.737 -26.033 102.534 -25.4796 101.839C-23.8028 99.733 -28.0699 97.04 -31.2111 98.2215C-33.4587 99.0668 -36.3952 97.385 -35.7685 95.6113C-35.5362 94.9539 -36.0141 93.8097 -36.8416 93.0421C-38.5473 91.46 -41.1422 91.2934 -46.8217 92.4014C-48.8641 92.7999 -51.1931 93.108 -51.9971 93.0861C-52.8012 93.0643 -53.2435 93.2916 -52.98 93.5912C-52.7164 93.8909 -52.8012 94.1419 -53.1684 94.149C-53.5356 94.156 -54.7601 94.6608 -55.8895 95.2706L-57.943 96.3794L-55.6368 96.9956C-53.8342 97.4773 -52.7714 97.4085 -50.769 96.6808C-48.4156 95.8256 -47.9798 95.8261 -45.4115 96.6868C-43.8644 97.2053 -41.7523 97.4715 -40.6826 97.2828C-39.6194 97.0953 -38.5218 97.2008 -38.2434 97.5174C-37.9589 97.8409 -39.1214 98.2573 -40.8982 98.4682C-45.7277 99.0417 -48.2369 100.455 -51.7398 104.575C-54.6657 108.016 -54.8336 108.431 -53.6673 109.341C-52.523 110.234 -52.2071 110.248 -50.6373 109.476C-49.6734 109.003 -47.9563 107.252 -46.8217 105.585V105.585ZM-31.8288 109.165C-28.8913 108.112 -28.6086 107.847 -29.6439 107.12C-30.6791 106.392 -31.3333 106.439 -34.7012 107.486C-38.6557 108.716 -39.9106 110.374 -36.8862 110.374C-35.9603 110.374 -33.6845 109.83 -31.8288 109.165ZM-17.1968 104.783C-15.4779 103.937 -15.4143 103.771 -16.6264 103.294C-18.411 102.592 -23.7155 103.801 -23.7155 104.91C-23.7155 106.052 -19.6135 105.972 -17.1968 104.783ZM44.7778 355.226C44.7778 354.971 45.2234 354.449 45.768 354.066C46.3127 353.684 46.4464 353.371 46.0653 353.371C45.6841 353.371 44.927 353.799 44.3828 354.322C43.6014 355.073 43.0616 355.137 41.8162 354.629C40.9259 354.266 40.7096 353.978 41.3193 353.968C41.9134 353.958 42.17 353.69 41.8895 353.371C41.3508 352.758 42.7669 352.591 46.8408 352.787C50.4769 352.961 50.8425 353.334 48.595 354.577C46.5015 355.734 44.7778 356.027 44.7778 355.226ZM733.945 340.671C731.584 339.62 736.501 337.299 748.69 333.71C752.094 332.708 757.282 330.611 760.217 329.052C765.209 326.4 765.623 326.285 766.612 327.277C768.114 328.784 767.229 329.875 763.561 331.037C761.809 331.593 759.605 332.669 758.664 333.43C757.723 334.19 756.209 334.812 755.3 334.812C754.391 334.812 752.253 335.691 750.55 336.766C744.719 340.443 737.334 342.18 733.945 340.671ZM676.192 333.137C675.335 332.756 675.287 332.363 675.986 331.445C676.487 330.787 676.896 329.431 676.896 328.432C676.896 326.798 677.084 326.661 678.753 327.074C679.774 327.326 681.909 327.567 683.498 327.609C685.087 327.651 686.673 327.723 687.024 327.769C688.392 327.949 684.736 330.874 681.452 332.226C677.54 333.838 677.701 333.81 676.192 333.137ZM771.549 328.066C771.262 327.864 771.942 327.193 773.06 326.575C774.744 325.644 774.941 325.251 774.204 324.284C773.139 322.885 774.722 321.384 778.386 320.317C781.225 319.491 781.94 317.814 781.179 313.766C780.655 310.982 780.719 310.808 781.996 311.55C782.999 312.133 783.245 312.867 782.888 314.206C782.496 315.673 782.848 316.436 784.59 317.89C786.471 319.461 787.03 319.632 788.494 319.082C789.952 318.533 790.123 318.583 789.664 319.424C789.368 319.966 789.126 320.511 789.126 320.636C789.126 320.762 787.919 321.298 786.444 321.829C784.969 322.36 782.091 323.764 780.049 324.949C776.728 326.876 773.31 328.433 772.401 328.433C772.22 328.433 771.837 328.268 771.549 328.066ZM684.286 320.576C682.548 319.276 682.227 319.226 680.557 319.995C678.43 320.974 674.432 320.402 671.228 318.659C669.519 317.729 669.4 317.429 670.281 316.271C671.034 315.284 671.059 314.591 670.38 313.544C669.879 312.772 669.469 311.63 669.469 311.007C669.469 309.602 668.171 309.535 667.097 310.885C666.654 311.44 666.056 311.729 665.767 311.526C665.478 311.323 666.434 310.202 667.891 309.036C671.477 306.166 670.077 305.387 665.341 307.616C663.3 308.577 661.498 309.626 661.336 309.948C661.174 310.27 660.194 309.276 659.156 307.739C658.032 306.073 656.089 304.398 654.344 303.59C651.722 302.376 650.833 302.276 645.796 302.629C638.409 303.145 631.282 304.426 626.617 306.073C624.496 306.823 620.359 307.589 617.168 307.825C614.045 308.055 609.08 308.881 606.133 309.661C601.626 310.853 600.344 310.978 598.06 310.448C594.997 309.738 593.725 308.274 595.707 307.739C596.424 307.546 597.726 306.215 598.6 304.782C599.999 302.488 600.077 301.774 599.247 298.81C598.56 296.357 598.541 294.036 599.177 290.26C599.656 287.41 599.84 284.516 599.585 283.83C599.329 283.144 599.728 281.465 600.471 280.098C601.78 277.689 602.097 277.531 610.95 274.896C615.972 273.401 621.111 272.179 622.372 272.179C625.783 272.179 630.006 269.898 632.335 266.799C633.774 264.883 634.772 264.154 635.636 264.389C638.046 265.044 638.522 264.915 638.336 263.659C638.217 262.852 638.71 262.264 639.693 262.045C640.542 261.855 642.112 260.799 643.182 259.698C644.276 258.571 646.527 257.301 648.333 256.791C651.345 255.941 651.645 255.954 653.284 257.001C656.307 258.932 658.45 259.496 659.473 258.629C659.971 258.208 660.142 257.697 659.853 257.495C658.909 256.831 663.231 253.02 665.344 252.653C666.478 252.457 668.808 251.803 670.52 251.2C673.191 250.259 674.131 250.197 677.122 250.761C683.574 251.979 683.788 252.178 681.388 254.726C678.302 258.004 679.12 259.285 686.69 263.03C690.185 264.758 693.484 266.07 694.022 265.944C694.559 265.818 696.259 264.494 697.799 263.002C699.897 260.969 700.711 259.491 701.047 257.1C701.525 253.704 703.836 248.981 705.021 248.981C705.413 248.981 706.311 250.378 707.017 252.085C707.723 253.792 709.203 255.784 710.305 256.512C712.882 258.213 714.378 262.969 713.221 265.779C712.455 267.641 712.603 267.94 715.23 269.839C716.79 270.966 719.257 273.715 720.712 275.948C722.167 278.181 724.791 281.34 726.542 282.969L729.727 285.929L728.822 290.504C728.165 293.823 727.148 296.035 725.118 298.562C722.008 302.433 717.357 306.127 714.906 306.674C714.024 306.871 711.982 308.324 710.368 309.903C708.753 311.482 707.069 312.775 706.625 312.775C706.181 312.775 704.293 314.13 702.43 315.786C699.323 318.549 698.751 318.802 695.513 318.845C693.028 318.878 691.126 319.351 689.086 320.445L686.188 321.998L684.286 320.576H684.286ZM281.893 308.382C280.145 307.154 279.853 306.526 280.244 304.835C280.611 303.243 280.261 302.306 278.691 300.683C277.577 299.53 276.665 298.303 276.665 297.956C276.665 297.609 275.205 295.951 273.422 294.271C270.665 291.675 270.099 290.637 269.644 287.352C268.842 281.555 266.209 275.281 262.669 270.734C260.928 268.498 259.257 265.596 258.954 264.283C258.309 261.491 259.922 257.336 263.605 252.301L266.056 248.952L264.679 246.039C263.909 244.409 263.532 242.481 263.825 241.662C264.167 240.704 263.799 239.562 262.759 238.355C261.886 237.341 260.589 235.077 259.877 233.322C258.926 230.979 257.6 229.456 254.881 227.581C249.651 223.975 248.971 222.555 250.595 218.631C253.899 210.643 250.329 205.984 241.608 206.903C238.213 207.261 238.083 207.216 237.603 205.53C237.235 204.237 236.238 203.476 233.733 202.578C230.478 201.411 229.085 201.407 225.088 202.551C224.181 202.811 220.467 203.711 216.836 204.552C211.377 205.816 209.737 205.979 207.361 205.495C205.109 205.036 203.213 205.154 198.606 206.043C193.845 206.961 192.119 207.059 189.547 206.56C184.18 205.518 174.958 199.677 173.646 196.488C172.631 194.02 166.319 188.268 164.17 187.854C162.805 187.591 162.637 187.387 163.473 187.007C164.314 186.626 164.167 186.433 162.854 186.192C160.768 185.809 160.561 184.611 162.578 184.598C163.812 184.591 163.842 184.508 162.784 184.027C162.005 183.673 161.918 183.462 162.55 183.456C163.205 183.45 162.956 182.735 161.831 181.396C160.249 179.51 160.216 179.261 161.425 178.322C165.117 175.455 165.926 169.282 163.119 165.393C161.779 163.536 162.641 160.972 165.5 158.305C166.577 157.301 168.678 154.859 170.171 152.877C172.781 149.41 178.6 144.591 180.175 144.591C181.918 144.591 187.541 140.343 187.541 139.026C187.541 136.053 190.07 133.089 194.193 131.23C196.409 130.23 199.005 128.522 199.963 127.433C201.922 125.206 202.199 125.133 204.481 126.25C205.376 126.689 207.6 127.223 209.424 127.438C212.205 127.766 213.535 127.53 217.676 125.974C224.802 123.296 229.205 122.627 237.358 122.984C242.735 123.22 245.156 123.069 247.762 122.336C251.601 121.257 254.919 121.896 254.021 123.541C253.751 124.036 253.916 124.767 254.387 125.166C254.98 125.668 254.976 126.388 254.372 127.504C253.614 128.906 253.782 129.323 255.661 130.701C256.85 131.573 258.978 132.449 260.39 132.648C267.022 133.58 268.908 134.183 270.278 135.813C271.281 137.006 272.596 137.619 274.771 137.906C276.462 138.129 278.917 138.701 280.227 139.177C282.452 139.985 282.741 139.956 284.596 138.731C285.843 137.908 286.409 137.036 286.117 136.388C285.86 135.82 286.056 134.824 286.551 134.174C287.827 132.497 291.452 132.662 297.112 134.653C303.279 136.823 314.973 138.371 319.119 137.567C321.113 137.18 323.03 137.174 324.775 137.552C330.477 138.783 333.397 137.819 334.176 134.448C334.434 133.328 334.876 132.412 335.157 132.412C335.69 132.412 335.969 130.729 336.047 127.048C336.072 125.852 336.474 124.873 336.941 124.873C337.496 124.873 337.469 124.453 336.861 123.655C335.846 122.322 333.788 122.353 328.863 123.773C326.527 124.447 325.877 124.418 323.784 123.55C321.071 122.423 318.286 122.254 317.483 123.167C316.886 123.846 312.667 123.37 310.378 122.366C308.734 121.644 307.198 119.496 307.198 117.919C307.198 117.314 306.362 116.406 305.341 115.9C303.76 115.118 303.668 114.897 304.722 114.412C305.403 114.099 306.803 113.982 307.834 114.152C309.149 114.37 310.358 114.006 311.884 112.933C313.32 111.924 315.067 111.367 317.024 111.294C318.655 111.233 321.016 110.707 322.272 110.126C324.999 108.863 331.19 109.214 335.994 110.903C342.471 113.182 348.224 113.048 350.539 110.564C351.744 109.272 351.75 109.001 350.607 107.775C349.911 107.028 346.565 105.307 343.172 103.95L337.004 101.484L338.16 99.9133C338.795 99.0495 339.107 98.1965 338.853 98.0178C338.599 97.8391 338.696 97.3493 339.069 96.9294C339.442 96.5095 339.82 95.8289 339.909 95.4171C340.098 94.5386 338.768 94.7811 332.205 96.8208C328.395 98.0048 327.829 98.3676 328.674 99.0832C329.228 99.552 330.471 99.9471 331.436 99.9612C332.791 99.9809 332.47 100.255 330.033 101.158C327.074 102.255 326.744 102.269 324.82 101.384C323.175 100.626 322.96 100.274 323.74 99.6136C324.514 98.9583 324.398 98.7062 323.176 98.3835C322.331 98.1602 321.241 97.6046 320.754 97.1486C318.39 94.9345 310.891 100.759 308.71 106.503C307.686 109.199 307.721 109.339 309.648 110.361L311.648 111.421L307.979 111.953C305.961 112.245 303.241 112.279 301.935 112.029C299.524 111.566 296.47 112.263 296.47 113.276C296.47 113.574 295.908 113.666 295.221 113.481C294.535 113.296 293.445 113.453 292.799 113.829C291.798 114.413 291.911 114.892 293.571 117.085C295.368 119.461 295.424 119.786 294.303 121.366C292.898 123.345 291.591 123.198 289.606 120.837C288.223 119.191 288.232 119.153 290.063 118.97C292.373 118.74 292.522 117.706 290.281 117.454C285.168 116.88 282.441 114.986 282.441 112.01C282.441 109.688 279.378 107.129 275.664 106.346C273.733 105.94 271.635 105.087 271.001 104.45C270.366 103.813 268.509 102.9 266.874 102.42C265.239 101.939 263.408 101.053 262.807 100.449C261.943 99.5826 261.376 99.4784 260.111 99.9539C259.23 100.285 258.51 100.93 258.51 101.386C258.51 102.891 269.028 109.704 274.169 111.527C279.621 113.461 280.472 114.152 276.685 113.567C273.308 113.046 272.388 113.568 273.543 115.349C274.354 116.601 274.222 116.981 272.59 118.083L270.694 119.364L271.125 117.636C271.81 114.894 266.665 110.954 262.399 110.954C260.835 110.954 254.826 106.858 253.252 104.719C251.57 102.433 249.698 101.992 247.047 103.255C243.053 105.158 240.058 105.802 236.925 105.43C232.763 104.936 230.145 105.955 230.808 107.812C231.154 108.782 230.962 109.215 230.184 109.215C229.565 109.215 227.98 109.867 226.661 110.664C225.342 111.461 223.979 112.113 223.632 112.114C222.611 112.115 219.731 115.779 219.727 117.08C219.724 118.325 216.497 120.778 213.383 121.902C212.392 122.26 210.084 122.553 208.255 122.553C205.738 122.553 204.707 122.845 204.016 123.751C203.112 124.939 203.084 124.936 200.97 123.45C198.985 122.055 197.843 121.706 193.839 121.271C191.735 121.042 191.38 117.695 192.953 112.927C193.626 110.889 193.956 108.605 193.687 107.851C192.905 105.662 195.353 104.371 199.448 104.813C208.904 105.834 214.435 105.89 215.731 104.979C217.512 103.727 218.316 99.5982 217.229 97.2832C216.52 95.7733 215.545 95.156 212.635 94.375C208.355 93.2264 208.265 92.1154 212.449 92.0858C214.043 92.0746 216.343 91.607 217.559 91.0468C218.776 90.4866 220.121 90.1803 220.549 90.3661C221.715 90.8727 226.133 89.0834 227.6 87.5099C228.309 86.7495 229.705 85.9811 230.702 85.8025C231.699 85.6238 234.372 84.2621 236.641 82.7765C239.859 80.6704 241.547 80.01 244.306 79.7786C247.723 79.4919 251.16 77.5167 249.547 76.7665C248.544 76.3003 247.706 73.4921 248.265 72.4691C248.529 71.9845 249.697 71.1497 250.861 70.614L252.976 69.6401L252.433 72.0264C251.961 74.0976 252.082 74.3902 253.343 74.242C254.142 74.1482 255.637 73.7466 256.665 73.3498C258.23 72.7455 258.614 72.7748 259.027 73.5305C259.734 74.8256 257.768 76.3485 256.411 75.5569C255.661 75.1197 255.185 75.1355 254.767 75.6117C254.335 76.1029 253.997 76.0762 253.5 75.5116C253.128 75.0881 252.634 74.8747 252.402 75.0374C252.17 75.2001 252.83 76.0817 253.868 76.9964C255.617 78.5383 255.951 78.6115 258.444 78.0006C260.58 77.4775 261.605 77.5132 263.423 78.1739C265.476 78.9198 266.169 78.8842 270.113 77.8308C273.57 76.9079 274.932 76.7895 276.462 77.2794C277.869 77.73 278.911 77.7207 280.219 77.2459C283.931 75.898 284.959 74.8816 284.498 73.016C283.815 70.2507 285.066 69.3449 288.361 70.2189C290.603 70.8137 291.258 70.7901 292.271 70.0779C293.344 69.324 293.252 69.0454 291.494 67.7301C289.802 66.4647 289.684 66.1501 290.715 65.6611C291.384 65.3439 293.891 65.2303 296.286 65.4086C300.669 65.7348 306.13 64.5315 305.179 63.4494C304.345 62.5017 299.315 62.2278 295.053 62.8981C291.273 63.4926 290.281 63.4445 287.384 62.5264C282.884 61.1005 282.354 59.4322 285.44 56.4094C289.413 52.5185 290.139 51.2786 289.007 50.3204C287.332 48.9015 285.686 49.3641 281.858 52.3295C279.835 53.8964 277.079 55.499 275.733 55.8908C274.387 56.2826 272.722 57.3693 272.033 58.3055C270.911 59.8303 270.913 60.1499 272.05 61.3695C272.748 62.1185 274.072 62.8991 274.992 63.1043C277.524 63.6689 277.023 64.7287 273.402 66.4698C272.288 67.0053 270.803 68.5203 270.101 69.8364C269.222 71.4856 267.884 72.611 265.799 73.4572C262.859 74.6501 262.725 74.6547 261.101 73.6215C260.181 73.0365 259.205 71.8436 258.932 70.9704C258.659 70.0972 257.42 68.5275 256.178 67.4821L253.92 65.5813L251.057 66.8078C249.483 67.4824 247.452 68.0295 246.544 68.0236C243.925 68.0066 240.894 66.0187 240.691 64.1855C240.59 63.2745 240.253 62.0824 239.942 61.5363C239.203 60.2374 242.898 57.8012 246.738 57.0561C250.592 56.3082 258.409 52.4581 259.742 50.6516C260.334 49.848 262.342 48.231 264.203 47.0582C266.064 45.8854 267.587 44.6674 267.587 44.3514C267.587 44.0355 269.351 43.3353 271.507 42.7954C273.663 42.2555 277.283 41.2759 279.553 40.6185C282.339 39.8114 285.823 39.3847 290.281 39.3045C298.07 39.1645 303.164 39.8901 307.367 41.7383C309.476 42.6656 311.14 42.982 312.733 42.7581C315.582 42.3577 330.77 45.666 331.403 46.825C332.039 47.9898 327.683 49.0894 323.935 48.71C322.218 48.5363 318.668 48.0717 316.046 47.6775C312.516 47.147 311.037 47.1302 310.35 47.613C309.663 48.0958 310.006 48.4522 311.673 48.9857C312.911 49.382 314.46 50.4359 315.116 51.3276C316.787 53.5979 322.138 55.4488 324.898 54.7112C327.551 54.0024 327.532 53.7789 324.734 52.7119C322.145 51.7251 323.34 51.5117 326.591 52.3803C329.186 53.0738 332.127 52.211 331.442 50.9569C331.121 50.3695 332.023 49.9454 334.567 49.4873C340.012 48.5069 340.41 48.3667 339.959 47.5908C338.251 44.656 338.227 44.7403 340.712 44.9397C342.038 45.0461 343.007 45.4447 342.897 45.8385C342.788 46.2277 343.479 46.8396 344.432 47.1983C345.865 47.737 346.995 47.5451 350.934 46.0942C356.709 43.9665 361.206 43.2729 362.883 44.2508C363.818 44.7962 365.368 44.8 369.855 44.2681C373.029 43.8919 375.986 43.7406 376.426 43.932C376.867 44.1234 377.471 44.0033 377.768 43.6651C378.418 42.9257 376.62 41.2478 375.635 41.6754C374.447 42.1916 370.544 41.2669 371.393 40.6702C372.248 40.0694 395.213 43.8302 396.588 44.7961C397.514 45.4472 400.448 44.5786 400.448 43.6531C400.448 43.3413 398.81 42.5269 396.808 41.8434C390.601 39.7242 390.203 36.3302 396.04 35.3007C399.427 34.7031 400.892 35.3924 405.578 39.7885C411.661 45.4959 411.506 45.2056 409.519 47.1671C408.047 48.6196 407.958 48.9595 408.979 49.2349C410.914 49.7567 415.055 47.9309 415.637 46.2992C416.32 44.3872 415.045 42.7578 412.001 41.6513C409.607 40.7814 407.875 39.1875 407.875 37.8552C407.875 37.4011 408.772 37.2879 410.557 37.5169C413.232 37.8603 415.444 37.1785 421.502 34.1443C422.888 33.4503 425.23 32.9931 427.591 32.9554C432.382 32.8791 433.932 32.3139 432.554 31.1467C432.013 30.6889 431.743 30.1936 431.953 30.046C433.007 29.3054 446.592 27.9708 449.721 28.3005C452.732 28.6178 453.664 28.4461 456.141 27.1184C457.734 26.2641 459.038 25.3352 459.038 25.0541C459.038 24.3452 451.827 24.4085 451.199 25.1229C450.334 26.1059 449.214 25.7639 449.529 24.6132C449.795 23.6417 449.097 23.4836 443.086 23.1548C426.673 22.2566 425.339 22.0459 427.308 20.6621C429.039 19.4455 433.285 19.4691 436.839 20.715C438.295 21.2256 440.707 21.6433 442.199 21.6433C443.691 21.6433 445.142 21.9042 445.422 22.2232C445.703 22.5422 447.148 22.8031 448.634 22.8031C452.75 22.8031 460.707 24.0525 460.208 24.6203C459.965 24.8967 460.735 25.1229 461.919 25.1229C463.103 25.1229 465.26 25.5723 466.713 26.1216C468.666 26.8604 471.394 27.1261 477.193 27.1424C483.426 27.16 485.498 27.3849 487.302 28.2402C488.55 28.8319 489.566 29.4816 489.559 29.6842C489.553 29.8867 487.648 30.7888 485.327 31.6887C479.722 33.8622 480.907 34.8094 487.687 33.5747C492.079 32.7749 493.088 32.7697 496.724 33.5287C499.708 34.1513 501.57 34.2312 503.594 33.8234C505.613 33.4163 507.687 33.5037 511.204 34.1443C514.875 34.8127 516.777 34.8807 519.103 34.4266C524.412 33.3905 530.943 33.6831 534.732 35.127C536.616 35.8446 540.089 37.1726 542.45 38.0779C546.637 39.6827 546.819 39.7004 549.722 38.7856C552.153 38.0199 553.509 37.9558 557.093 38.4374C560.656 38.9161 561.953 38.8578 563.96 38.1286C565.923 37.4151 566.239 37.0645 565.489 36.43C564.04 35.203 569.182 34.7469 575.498 35.542C578.391 35.9062 582.058 36.2697 583.646 36.3498C585.235 36.4299 588.339 37.0661 590.543 37.7636C593.906 38.8272 596.443 39.0681 606.281 39.258C615.616 39.4382 618.588 39.7008 620.84 40.5442C623.126 41.4004 625.731 41.6181 634.397 41.6775C642.37 41.7321 645.943 41.9979 648.308 42.7122C652.125 43.8653 653.653 43.4424 651.574 41.8076C650.08 40.6316 650.089 40.63 655.853 41.0324C665.513 41.7068 677.1 43.1923 681.022 44.2592C683.065 44.8146 686.958 45.4602 689.673 45.6936C692.388 45.927 696.35 46.7379 698.477 47.4954C701.706 48.6453 702.755 48.7723 704.829 48.2644C707.664 47.5698 709.503 48.0699 713.833 50.7129L716.524 52.3552L714.496 52.7128C712.461 53.0717 707.058 52.1317 705.196 51.0949C704.649 50.79 703.881 50.6794 703.49 50.8492C703.1 51.0189 701.169 50.7679 699.201 50.2913C694.591 49.1752 692.545 49.5944 694.644 51.2247C696.078 52.3382 696.047 52.3616 693.312 52.2275C688.195 51.9767 689.602 53.0387 697.114 55.0979C701.199 56.2176 704.716 57.2528 704.93 57.3983C705.704 57.9252 703.151 58.5783 701.293 58.3287C699.253 58.0546 694.226 59.5933 694.226 60.4918C694.226 60.7901 693.432 61.5543 692.461 62.1899C690.839 63.2517 690.504 63.2759 688.335 62.4876C686.305 61.7499 685.656 61.7422 683.704 62.433C682.456 62.8749 680.323 63.4245 678.964 63.6544C677.605 63.8843 676.031 64.342 675.465 64.6716C673.805 65.6402 676.733 68.4597 680.857 69.8628C683.104 70.627 684.73 71.6509 685.214 72.6052C685.638 73.4428 686.538 74.8184 687.213 75.6621C688.313 77.0372 688.304 77.233 687.121 77.5518C686.255 77.7855 686 78.2539 686.377 78.9175C686.693 79.473 687.05 80.58 687.171 81.3774C687.291 82.1748 687.655 83.2604 687.979 83.7898C688.401 84.479 688.053 84.8673 686.752 85.1575C685.304 85.4805 684.328 85.0914 681.947 83.2415C680.304 81.9649 677.563 80.2072 675.856 79.3356C674.149 78.464 671.091 76.1975 669.061 74.2989C665.478 70.9498 665.405 70.7972 666.594 69.1816C667.267 68.2657 667.832 66.9162 667.848 66.1827C667.865 65.4492 668.388 64.2009 669.012 63.4087C670.204 61.8956 669.744 60.6876 667.196 58.6333C665.523 57.2845 662.547 58.2956 663.297 59.9577C663.989 61.4889 661.867 61.9851 659.427 60.8628C658.369 60.3762 655.934 59.802 654.015 59.5868C650.721 59.2173 650.476 59.2884 649.622 60.8624C649.125 61.7792 648.917 63.2285 649.159 64.083C649.536 65.4145 649.274 65.687 647.325 65.9878C645.999 66.1926 643.727 65.9504 641.876 65.4068C639.843 64.8097 637.928 64.6292 636.55 64.9047C635.366 65.1412 631.364 65.3559 627.656 65.3819C621.782 65.4229 620.651 65.6031 618.866 66.7815C617.739 67.5255 616.385 69.3523 615.857 70.8411C615.329 72.33 614.362 74.1291 613.707 74.8391C612.576 76.0663 612.685 76.1903 615.919 77.3497C619.429 78.6082 623.256 78.9398 626.158 78.2367C628.396 77.6944 635.223 81.4349 637.354 84.3712C638.227 85.574 639.67 86.8323 640.561 87.1673C643.932 88.4351 644.617 96.753 641.798 102.191C639.846 105.956 637.662 107.187 634.455 106.33C633.23 106.003 632.103 105.735 631.951 105.735C631.8 105.735 630.882 106.806 629.911 108.114C628.637 109.833 628.388 110.698 629.017 111.23C630.22 112.249 629.329 113.573 626.925 114.343C625.815 114.698 624.907 115.242 624.907 115.551C624.907 115.86 627.489 117.361 630.645 118.887C634.659 120.829 636.804 122.32 637.788 123.853C638.562 125.059 639.043 126.141 638.859 126.258C638.674 126.375 636.988 127.015 635.111 127.68L631.698 128.889L629.644 125.576C627.346 121.868 625.374 120.377 621.901 119.721C620.153 119.39 619.544 118.921 619.544 117.905C619.544 116.974 618.687 116.183 616.869 115.435C614.219 114.344 614.167 114.345 611.347 115.57C608.526 116.795 608.493 116.796 607.627 115.658C607.146 115.027 606.753 114.111 606.753 113.623C606.753 113.135 606.059 112.474 605.211 112.155C603.95 111.681 603.154 111.968 600.837 113.73C599.279 114.915 597.283 116.172 596.401 116.525C595.033 117.071 594.96 117.302 595.903 118.101C596.511 118.616 598.61 119.666 600.566 120.434C603.679 121.657 604.275 121.726 605.324 120.989C606.322 120.288 607.134 120.262 610.145 120.836L613.767 121.527L611.749 122.475C608.005 124.234 606.825 125.157 606.291 126.743C605.852 128.046 606.114 128.437 607.778 128.97C608.888 129.326 610.576 130.744 611.529 132.122C612.481 133.5 614.384 135.094 615.757 135.664C618.778 136.918 619.654 138.25 617.909 138.936C616.283 139.576 617.06 140.532 619.206 140.532C621.776 140.532 621.79 141.609 619.306 147.828C616.298 155.359 613.582 157.871 606.477 159.698C603.678 160.418 600.275 161.05 598.913 161.103C595.748 161.226 593.294 162.168 591.152 164.081L589.453 165.599L588.66 164.134C587.626 162.222 585.254 161.742 581.85 162.754C578.731 163.681 576.674 165.16 575.845 167.073C575.103 168.784 577.731 171.794 582.082 174.216C585.655 176.205 589.663 181.195 590.604 184.825C591.423 187.983 589.973 190.056 586.081 191.29C584.309 191.851 582.65 192.773 582.395 193.337C581.783 194.692 578.119 196.378 577.447 195.615C577.167 195.296 577.156 194.553 577.423 193.963C577.689 193.373 577.676 192.466 577.393 191.949C576.987 191.204 576.536 191.137 575.233 191.627C573.876 192.138 573.353 192.008 572.257 190.892C569.563 188.147 561.758 183.737 559.594 183.737C558.832 183.737 558.538 184.382 558.668 185.767C558.773 186.884 558.449 189.06 557.949 190.604C557.134 193.119 557.217 193.58 558.753 195.04C559.696 195.936 560.702 197.326 560.988 198.127C561.279 198.942 563.665 200.801 566.395 202.339C570.944 204.903 571.423 205.41 573.338 209.669C574.469 212.185 575.394 214.492 575.394 214.794C575.394 215.778 573.67 215.379 570.073 213.564C566.354 211.686 563.978 208.717 561.997 203.468C561.137 201.189 560.194 200.212 557.518 198.829C554.236 197.132 554.137 196.984 554.401 194.176C554.552 192.581 554.924 190.321 555.228 189.153C555.656 187.508 555.302 186.33 553.658 183.933C552.491 182.231 551.11 179.616 550.59 178.122C549.429 174.786 547.788 174.227 544.888 176.18C543.689 176.987 542.476 177.648 542.193 177.648C540.88 177.648 539.075 175.683 539.508 174.724C540.294 172.984 535.459 166.916 532.63 166.092C531.082 165.641 529.667 164.549 528.72 163.072C527.074 160.508 525.228 159.527 523.384 160.236C522.715 160.493 520.036 161.011 517.432 161.386C512.657 162.075 510.944 163.091 511.598 164.847C511.838 165.494 511.003 166.119 508.999 166.79C507.375 167.335 505.625 168.429 505.111 169.223C504.596 170.017 503.463 170.825 502.593 171.019C501.723 171.213 500.38 172.101 499.609 172.992C498.839 173.882 496.543 175.51 494.509 176.609C491.724 178.113 490.855 178.954 490.993 180.012C491.802 186.197 490.561 191.371 487.531 194.444C484.575 197.441 484.367 197.524 481.867 196.724C480.49 196.283 479.643 195.422 479.292 194.108C479.005 193.031 477.343 189.996 475.599 187.363C465.047 171.436 463.487 168.397 464.386 165.521C464.993 163.578 463.536 160.645 462.128 160.977C461.563 161.11 461.091 161.588 461.079 162.039C461.009 164.687 456.777 165.093 453.472 162.77L451.282 161.231L453.166 160.741C455.286 160.19 455.092 158.703 452.935 158.976C452.169 159.073 450.415 158.485 449.038 157.671C447.66 156.856 446.216 156.19 445.827 156.19C445.439 156.19 444.884 155.665 444.594 155.024C443.833 153.34 439.456 151.874 437.262 152.57C435.287 153.195 417.375 153.065 414.377 152.403C413.297 152.164 411.299 151.073 409.938 149.978C407.477 147.999 407.439 147.991 403.748 148.69C400.251 149.353 399.743 149.29 395.033 147.619C390.962 146.175 389.743 145.396 388.486 143.438C386.883 140.939 383.323 139.13 381.158 139.714C380.476 139.898 379.68 140.812 379.388 141.744C378.969 143.084 379.396 143.954 381.42 145.888C382.828 147.234 384.363 149.333 384.831 150.553C385.834 153.172 387.816 153.951 389.459 152.372C390.451 151.42 390.718 151.386 391.389 152.133C391.818 152.61 392.049 153.261 391.903 153.58C391.444 154.583 396.206 156.232 398.428 155.841C399.551 155.643 401.95 154.298 403.76 152.854C406.611 150.578 407.606 150.424 407.119 152.335C406.791 153.622 408.231 155.13 410.615 155.996C414.298 157.334 419.428 160.314 419.428 161.116C419.428 161.485 418.463 162.42 417.284 163.193C416.105 163.967 414.409 165.603 413.514 166.829C411.34 169.809 405.038 174.168 402.904 174.168C400.438 174.168 396.769 175.632 395.308 177.198C394.616 177.941 392.797 178.987 391.266 179.525C383.423 182.276 373.979 185.066 371.321 185.417C368.48 185.791 368.25 185.701 366.744 183.614C365.873 182.406 364.884 179.982 364.547 178.228C364.108 175.946 363.258 174.496 361.56 173.133C360.255 172.085 359.187 170.977 359.187 170.669C359.187 170.362 357.697 169.032 355.877 167.714C353.611 166.072 352.146 164.291 351.228 162.058C350.49 160.266 348.99 158.017 347.894 157.06C340.32 150.45 338.077 148.12 336.949 145.686C335.452 142.46 334.187 141.94 333.603 144.309L333.188 145.991L330.397 143.514C326.095 139.697 325.553 141.432 329.591 146.091C331.502 148.297 334.549 152.188 336.361 154.74C338.173 157.292 340.522 160.187 341.582 161.174C342.672 162.191 343.507 163.779 343.507 164.837C343.507 167.022 344.435 168.386 348.079 171.559C349.545 172.834 350.993 174.697 351.297 175.698C351.687 176.982 353.28 178.324 356.705 180.254C361.909 183.188 365.281 186.249 366.118 188.801C366.432 189.76 367.623 190.744 369.134 191.293C371.435 192.129 372.245 192.106 379.518 190.999C383.856 190.338 388.452 189.418 389.731 188.953L392.055 188.108L392.607 190.404C393.109 192.49 392.569 193.494 386.694 201.413C380.378 209.927 380.082 210.208 373.802 213.693C370.267 215.654 366.567 218.055 365.581 219.029C364.594 220.003 361.438 222.632 358.568 224.872C350.189 231.409 349.051 237.159 354.607 244.865C356.019 246.822 356.57 248.304 356.235 249.241C355.957 250.02 356.135 251.987 356.632 253.613C357.413 256.173 357.325 256.858 355.972 258.72C354.021 261.406 352.469 262.372 347.015 264.293C344.632 265.132 342.682 266.067 342.682 266.37C342.682 266.673 341.011 268.243 338.969 269.859C336.926 271.475 335.255 273.06 335.255 273.381C335.255 273.702 336.021 275.019 336.957 276.308C339.762 280.173 337.877 282.973 331.152 284.931C328.318 285.756 327.387 287.441 328.088 290.477C328.456 292.069 328.222 292.598 326.939 293.081C326.053 293.414 324.452 294.654 323.381 295.836C319.998 299.57 310.274 306.176 305.856 307.742C302.17 309.049 301.227 309.164 298.519 308.638C296.131 308.175 294.204 308.248 290.201 308.955C283.716 310.1 284.404 310.147 281.893 308.382V308.382ZM390.586 123.408C392.716 122.634 393.021 122.208 393.021 120C393.021 118.417 392.539 117.195 391.728 116.722C391.018 116.308 389.866 115.194 389.169 114.247C388.017 112.68 388.022 112.557 389.224 112.881C390.811 113.31 393.021 112.795 393.021 111.997C393.021 111.681 392.253 110.666 391.315 109.74C389.901 108.345 389.335 108.159 388.014 108.656C386.945 109.057 386.419 109.061 386.419 108.667C386.419 108.343 384.946 107.55 383.146 106.905C379.162 105.476 377.744 103.894 378.987 102.262C379.927 101.027 383.287 100.162 384.721 100.785C386.656 101.625 387.226 100.387 385.63 98.8115C381.76 94.9916 376.37 95.243 369.687 99.5553C365.374 102.338 365 103.078 367.439 103.995C368.346 104.337 369.089 105.004 369.089 105.478C369.089 105.953 370.557 107.46 372.351 108.828C376.483 111.978 377.241 113.417 376.73 117.146L376.318 120.147L381.987 122.192C385.105 123.316 387.768 124.249 387.904 124.265C388.04 124.28 389.247 123.895 390.586 123.408H390.586ZM367.851 285.404C365.521 284.476 365.19 283.985 364.582 280.562C364.095 277.827 364.298 277.232 366.627 274.573C368.993 271.87 369.164 271.349 368.642 268.413C367.888 264.174 369.171 261.946 372.677 261.406C375.98 260.897 383.127 256.462 384.839 253.86L386.148 251.871L387.057 253.274C389.346 256.804 389.113 258.354 385.132 266.097C383.001 270.239 380.716 275.194 380.053 277.108C377.931 283.233 376.725 284.71 373.249 285.442C369.549 286.221 369.907 286.223 367.851 285.404ZM774.355 275.322C771.722 273.297 770.146 271.56 770.146 270.682C770.146 268.736 770.591 268.906 772.972 271.762C774.111 273.127 776.169 275.003 777.546 275.93C778.922 276.857 780.049 277.827 780.049 278.086C780.049 279.202 778.292 278.349 774.355 275.322ZM406.224 274.498C406.224 274.179 406.596 273.918 407.049 273.918C407.503 273.918 407.875 274.179 407.875 274.498C407.875 274.817 407.503 275.078 407.049 275.078C406.596 275.078 406.224 274.817 406.224 274.498ZM840.792 273.44C840.501 273.109 840.665 272.664 841.156 272.451C842.383 271.918 842.817 272.341 841.999 273.272C841.56 273.771 841.135 273.83 840.792 273.44ZM412.001 272.503C412.001 272.362 412.372 272.086 412.826 271.889C413.28 271.691 413.651 271.807 413.651 272.144C413.651 272.482 413.28 272.758 412.826 272.758C412.372 272.758 412.001 272.643 412.001 272.503ZM819.332 266.617C818.529 265.145 819.549 264.629 821.823 265.357C823.787 265.986 823.83 266.082 822.461 266.785C820.548 267.768 819.944 267.736 819.332 266.617ZM824.561 264.038C822.948 263.337 824.065 262.778 826.631 263.001C828.641 263.175 828.687 263.239 827.251 263.861C826.334 264.259 825.235 264.331 824.561 264.038ZM786.032 261.909C784.337 259.345 784.931 258.36 786.683 260.828C788.507 263.397 788.539 263.481 787.682 263.475C787.342 263.472 786.599 262.768 786.032 261.909ZM789.191 261.498C789.156 260.887 789.351 260.544 789.625 260.737C789.899 260.929 789.928 261.43 789.69 261.848C789.426 262.311 789.231 262.174 789.191 261.498H789.191ZM856.373 255.93C855.618 255.071 856.333 254.632 858.096 254.874C859.385 255.051 859.399 255.145 858.234 255.823C857.306 256.364 856.781 256.394 856.373 255.93ZM368.677 253.04C368.396 252.721 368.56 252.46 369.041 252.46C369.521 252.46 369.914 252.721 369.914 253.04C369.914 253.359 369.751 253.62 369.551 253.62C369.35 253.62 368.957 253.359 368.677 253.04ZM730.948 247.592C725.726 246.435 723.358 245.359 721.303 243.213C718.955 240.76 714.658 238.904 712.463 239.393C711.576 239.591 710.083 240.667 709.145 241.784C707.549 243.686 707.242 243.791 704.34 243.428C702.635 243.215 700.254 242.395 699.049 241.605C697.516 240.601 696.342 240.284 695.145 240.551C694.204 240.761 692.84 240.699 692.115 240.414C690.981 239.968 691.092 239.758 692.906 238.923C695.008 237.955 695.011 237.942 693.601 235.864C692.469 234.195 690.906 233.325 685.797 231.52C682.283 230.279 678.311 229.263 676.97 229.263C673.901 229.263 672.634 227.275 674.946 226.087C676.321 225.38 676.12 225.205 672.533 223.98C668.723 222.679 668.669 222.624 670.488 221.914C671.516 221.513 673.172 221.175 674.168 221.164C676.101 221.142 678.547 223.103 678.547 224.674C678.547 225.198 679.349 226.344 680.33 227.22C682.088 228.79 682.132 228.797 683.425 227.663C684.146 227.03 686.448 225.823 688.54 224.98L692.344 223.448L697.618 225.12C700.518 226.04 704.635 227.234 706.767 227.774C708.898 228.313 713.162 229.918 716.242 231.34C722.123 234.054 724.678 236.343 723.213 237.584C722.018 238.595 726.71 243.203 731.567 245.788C736.906 248.629 736.815 248.892 730.948 247.592ZM766.862 247.545C766.211 246.994 766.148 246.661 766.695 246.661C767.693 246.661 768.856 247.761 768.283 248.164C768.076 248.31 767.436 248.031 766.862 247.545V247.545ZM628.207 245.184C627.012 244.719 626.666 244.377 627.383 244.371C628.857 244.357 631.214 245.322 630.659 245.712C630.444 245.863 629.341 245.625 628.207 245.184ZM642.16 244.418C644.5 242.108 648.162 241.12 651.548 241.884C654.015 242.441 654.054 242.487 652.095 242.542C650.936 242.575 648.231 243.384 646.084 244.341C641.184 246.525 640.001 246.548 642.16 244.418ZM761.894 245.211C760.779 244.267 761.046 244.149 763.064 244.693C763.782 244.887 764.37 245.278 764.37 245.563C764.37 246.365 763.033 246.175 761.894 245.211ZM765.759 244.699C765.449 244.131 765.218 243.231 765.247 242.699C765.282 242.058 765.568 242.204 766.096 243.132C766.534 243.902 766.764 244.802 766.608 245.132C766.451 245.462 766.069 245.268 765.759 244.699ZM829.562 245.245C829.562 245.105 829.933 244.828 830.387 244.631C830.841 244.434 831.213 244.549 831.213 244.887C831.213 245.225 830.841 245.501 830.387 245.501C829.933 245.501 829.562 245.386 829.562 245.245ZM618.507 242.81C617.937 242.641 617.68 242.264 617.937 241.972C618.567 241.255 623.856 241.295 624.495 242.022C624.775 242.34 624.519 242.605 623.925 242.609C623.331 242.614 622.102 242.73 621.194 242.867C620.286 243.005 619.077 242.979 618.507 242.81V242.81ZM630.758 242.374C629.259 241.105 630.987 240.718 634.874 241.454C638.791 242.195 638.778 242.311 634.718 242.826C632.61 243.093 631.451 242.961 630.758 242.374ZM754.659 242.022C754.088 241.379 753.986 240.862 754.431 240.862C754.873 240.862 755.632 241.384 756.117 242.022C756.603 242.659 756.706 243.181 756.345 243.181C755.984 243.181 755.225 242.659 754.659 242.022ZM759.826 241.438C757.62 239.725 758.801 239.455 761.072 241.154C762.136 241.95 762.628 242.601 762.166 242.601C761.703 242.601 760.65 242.078 759.826 241.438ZM605.102 241.337C602.152 241.05 597.993 240.412 595.859 239.92C593.725 239.428 591.211 239.197 590.272 239.406C588.383 239.828 580.346 238.168 580.346 237.356C580.346 235.502 587.744 235.361 591.675 237.14C593.142 237.804 594.299 237.849 597.402 237.36C600.84 236.819 601.556 236.885 603.576 237.935C604.832 238.588 606.234 239.122 606.691 239.122C608.323 239.122 613.276 241.062 612.858 241.537C612.624 241.804 611.989 241.985 611.449 241.941C610.908 241.896 608.052 241.625 605.102 241.337ZM753.229 238.542C752.408 237.904 752.107 237.382 752.561 237.382C753.015 237.382 754.058 237.904 754.88 238.542C755.701 239.18 756.002 239.702 755.548 239.702C755.094 239.702 754.051 239.18 753.229 238.542ZM748.025 237.807C747.556 237.41 746.934 236.304 746.642 235.349C746.171 233.81 746.224 233.745 747.103 234.772C747.65 235.41 748.626 236.363 749.272 236.889C749.958 237.447 750.121 237.989 749.663 238.188C749.231 238.376 748.494 238.204 748.025 237.807ZM730.548 235.963L728.498 235.166L731.676 234.747C733.424 234.516 736.111 233.553 737.646 232.605C739.323 231.571 740.433 231.196 740.426 231.667C740.407 232.847 739.392 233.755 736.307 235.355C733.085 237.025 733.237 237.009 730.548 235.963ZM575.75 233.705C572.718 232.491 567.25 227.795 565.469 224.876C564.509 223.302 562.308 220.709 560.579 219.114C558.849 217.519 556.864 215.431 556.167 214.474C555.47 213.517 553.353 211.691 551.463 210.415C547.477 207.725 545.026 204.898 546.697 204.918C548.862 204.944 554.436 207.122 556.827 208.876C563.422 213.715 564.774 214.576 567.887 215.924C570.892 217.225 572.314 218.579 572.457 220.274C572.484 220.593 573.339 221.506 574.356 222.303C575.374 223.101 577.293 224.601 578.622 225.636C579.951 226.672 581.279 228.288 581.572 229.227C582.533 232.301 579.01 235.011 575.75 233.705ZM409.525 233.322C409.525 233.003 409.896 232.742 410.35 232.742C410.804 232.742 411.176 233.003 411.176 233.322C411.176 233.641 410.804 233.902 410.35 233.902C409.896 233.902 409.525 233.641 409.525 233.322ZM627.791 233.317C627.508 232.995 627.506 232.224 627.783 231.604C628.064 230.982 627.723 229.864 627.024 229.115C625.875 227.882 625.886 227.624 627.141 226.365C627.902 225.601 628.801 223.549 629.138 221.805C629.553 219.654 630.373 218.196 631.69 217.271C633.491 216.005 633.944 215.949 637.992 216.489C641.469 216.952 642.836 216.895 644.729 216.207C647.898 215.055 648.129 215.107 647.077 216.73C645.739 218.793 643.066 219.453 640.248 218.415C635.215 216.562 628.538 219.316 632.061 221.791C633.356 222.701 634.072 222.784 636.471 222.301C640.582 221.472 642.203 221.624 639.65 222.599C636.76 223.703 636.212 224.927 637.701 226.951C638.379 227.872 638.933 229.3 638.933 230.124C638.933 231.444 638.735 231.549 637.281 231.002C636.373 230.66 635.062 229.426 634.369 228.26C633.117 226.156 633.095 226.148 631.494 227.274C630.09 228.261 629.995 228.699 630.764 230.655C631.458 232.423 631.411 233.008 630.545 233.394C629.087 234.043 628.41 234.024 627.788 233.317H627.791ZM741.012 230.224C740.234 229.39 738.452 228.291 737.053 227.782C735.653 227.274 734.694 226.727 734.921 226.567C736.204 225.666 743.365 229.762 742.755 231.048C742.567 231.443 741.819 231.09 741.012 230.224ZM611.422 228.294C610.177 227.835 608.5 227.607 607.695 227.787C605.642 228.245 597.487 227.078 596.679 226.211C596.036 225.521 594.146 221.272 593.135 218.244C592.856 217.411 593.135 216.331 593.784 215.706C594.729 214.799 595.217 214.73 596.713 215.292C598.291 215.886 598.626 215.785 599.492 214.449C600.033 213.614 601.835 212.444 603.496 211.849C605.255 211.218 606.946 210.037 607.545 209.021C608.236 207.849 609.497 207.061 611.386 206.623C612.932 206.264 615.166 205.079 616.35 203.988C617.533 202.898 618.942 202.005 619.48 202.005C620.018 202.005 621.646 202.867 623.098 203.92L625.738 205.834L623.622 207.835C621.217 210.107 621.343 212.061 624.068 214.75L625.717 216.378L623.662 217.324C622.531 217.845 621.608 218.591 621.61 218.982C621.618 220.311 616.329 227.967 615.004 228.549C614.081 228.954 613.007 228.877 611.422 228.294ZM659.36 228.283C657.653 227.969 657.416 226.943 659.051 226.943C659.675 226.943 661.422 227.117 662.932 227.329C665.258 227.656 665.432 227.783 664.067 228.158C662.275 228.651 661.478 228.672 659.36 228.283ZM790.777 220.888C790.777 220.747 791.148 220.471 791.602 220.274C792.056 220.077 792.427 220.192 792.427 220.529C792.427 220.867 792.056 221.144 791.602 221.144C791.148 221.144 790.777 221.029 790.777 220.888ZM656.469 219.315C655.81 218.851 655.771 218.314 656.343 217.563C656.796 216.967 656.947 216.23 656.678 215.924C655.934 215.078 657.799 213.024 659.311 213.024C660.524 213.024 660.52 213.124 659.258 214.103C658.168 214.95 658.046 215.51 658.694 216.708C660.004 219.129 658.579 220.798 656.469 219.315H656.469ZM242.005 217.408C242.005 217.268 242.377 216.991 242.831 216.794C243.284 216.597 243.656 216.712 243.656 217.05C243.656 217.388 243.284 217.664 242.831 217.664C242.377 217.664 242.005 217.549 242.005 217.408ZM814.295 215.924C814.015 215.605 814.179 215.344 814.659 215.344C815.14 215.344 815.533 215.605 815.533 215.924C815.533 216.243 815.37 216.504 815.169 216.504C814.969 216.504 814.576 216.243 814.295 215.924ZM246.957 210.449C246.957 210.308 247.328 210.032 247.782 209.835C248.236 209.638 248.607 209.753 248.607 210.09C248.607 210.428 248.236 210.705 247.782 210.705C247.328 210.705 246.957 210.59 246.957 210.449ZM643.896 201.729C642.322 199.149 642.112 199.033 639.69 199.407C637.275 199.779 637.191 199.734 638.096 198.546C638.845 197.562 639.539 197.367 641.315 197.641C643.026 197.905 644.119 197.638 645.796 196.546C647.016 195.751 648.022 194.632 648.032 194.059C648.057 192.595 651.122 197.504 651.821 200.129C652.352 202.121 652.286 202.23 650.996 201.479C649.082 200.365 647.239 201.521 648.81 202.851C649.437 203.381 649.517 203.745 649.007 203.745C648.535 203.745 647.565 203.903 646.851 204.095C645.893 204.354 645.119 203.734 643.896 201.729ZM493.435 202.754C492.512 201.701 491.988 196.975 492.654 195.721C493.361 194.391 493.414 194.407 495.516 196.591C498.036 199.208 498.842 200.886 498.011 201.782C497.215 202.64 493.943 203.335 493.435 202.754ZM677.722 199.754C677.722 199.435 678.093 199.013 678.547 198.816C679.001 198.619 679.372 198.718 679.372 199.037C679.372 199.356 679.001 199.779 678.547 199.976C678.093 200.173 677.722 200.073 677.722 199.754ZM807.281 199.686C807.281 199.367 807.445 199.106 807.645 199.106C807.845 199.106 808.239 199.367 808.519 199.686C808.799 200.005 808.636 200.266 808.155 200.266C807.674 200.266 807.281 200.005 807.281 199.686ZM619.956 196.335C619.956 196.087 621.611 194.587 623.633 193C626.596 190.676 627.316 190.348 627.346 191.308C627.367 191.964 626.126 193.464 624.59 194.643C621.985 196.642 619.956 197.382 619.956 196.335ZM637.83 194.788C637.529 194.237 637.59 193.401 637.965 192.93C638.547 192.2 638.789 192.193 639.603 192.882C640.333 193.5 640.3 193.94 639.468 194.74C638.445 195.723 638.342 195.726 637.83 194.788V194.788ZM5.88422 192.528C6.38972 192.1 6.55896 191.578 6.26033 191.368C5.96169 191.158 6.48718 190.987 7.42807 190.987C8.73251 190.987 9.03627 191.262 8.70718 192.146C8.45654 192.82 7.58156 193.306 6.62035 193.306C5.32919 193.306 5.16728 193.135 5.88422 192.528ZM643.367 192.374C643.06 191.771 642.657 191.081 642.474 190.842C642.29 190.602 642.489 190.407 642.917 190.407C643.741 190.407 644.9 192.788 644.287 193.219C644.089 193.358 643.675 192.978 643.367 192.374ZM635.005 190.861C633.846 189.88 634.975 188.483 636.708 188.755C637.795 188.925 637.835 189.166 636.963 190.301C636.122 191.396 635.758 191.5 635.005 190.861ZM644.761 188.868C643.814 188.022 643.177 187.233 643.345 187.115C644.016 186.643 646.337 187.682 647.571 189.005C649.468 191.041 647.061 190.923 644.761 188.868ZM631.195 186.623C630.46 186.107 629.859 185.384 629.859 185.017C629.859 184.65 630.674 184.922 631.67 185.622C632.666 186.322 633.267 187.045 633.006 187.228C632.745 187.412 631.93 187.14 631.195 186.623ZM-16.5636 186.54C-16.8662 186.328 -17.1138 185.884 -17.1138 185.554C-17.1138 185.191 -16.7294 185.225 -16.1372 185.641C-15.6002 186.019 -15.3526 186.463 -15.5871 186.627C-15.8216 186.792 -16.261 186.753 -16.5636 186.54ZM-21.2398 185.767C-21.2398 185.448 -21.0761 185.187 -20.8759 185.187C-20.6758 185.187 -20.2825 185.448 -20.002 185.767C-19.7215 186.086 -19.8853 186.347 -20.3659 186.347C-20.8466 186.347 -21.2398 186.086 -21.2398 185.767ZM17.5455 184.607C17.5455 184.288 17.7093 184.027 17.9094 184.027C18.1096 184.027 18.5028 184.288 18.7833 184.607C19.0638 184.926 18.9001 185.187 18.4194 185.187C17.9388 185.187 17.5455 184.926 17.5455 184.607ZM639.495 184.519C638.668 184.191 637.1 184.08 636.01 184.272C634.413 184.554 633.311 184.102 630.32 181.939C626.094 178.884 625.273 177.596 626.512 175.968C626.991 175.339 627.383 174.04 627.383 173.081C627.383 169.933 630.383 170.06 632.583 173.301C633.801 175.097 633.809 175.482 632.664 177.408C631.431 179.482 631.455 179.575 633.654 181.188C635.243 182.353 636.435 182.748 637.69 182.527C638.751 182.34 639.895 182.572 640.519 183.101C642.006 184.359 641.357 185.257 639.495 184.519H639.495ZM12.5942 180.872C12.5942 180.731 12.9655 180.455 13.4194 180.258C13.8733 180.06 14.2446 180.176 14.2446 180.513C14.2446 180.851 13.8733 181.128 13.4194 181.128C12.9655 181.128 12.5942 181.012 12.5942 180.872ZM142.154 178.808C142.154 178.489 142.525 178.228 142.979 178.228C143.433 178.228 143.804 178.489 143.804 178.808C143.804 179.127 143.433 179.388 142.979 179.388C142.525 179.388 142.154 179.127 142.154 178.808ZM10.1185 176.556C10.1185 176.237 10.4899 175.815 10.9437 175.618C11.3976 175.421 11.769 175.521 11.769 175.84C11.769 176.159 11.3976 176.581 10.9437 176.778C10.4899 176.975 10.1185 176.875 10.1185 176.556ZM3.11 174.175C2.82089 173.846 3.15216 173.749 3.88651 173.947C5.31613 174.332 5.5777 174.748 4.39069 174.748C3.96359 174.748 3.38728 174.49 3.11 174.175ZM134.314 174.168C134.034 173.849 134.197 173.588 134.678 173.588C135.159 173.588 135.552 173.849 135.552 174.168C135.552 174.487 135.388 174.748 135.188 174.748C134.988 174.748 134.595 174.487 134.314 174.168ZM6.40503 173.008C6.12451 172.689 6.28828 172.428 6.76894 172.428C7.2496 172.428 7.64285 172.689 7.64285 173.008C7.64285 173.327 7.47911 173.588 7.27896 173.588C7.07881 173.588 6.68553 173.327 6.40503 173.008ZM10.1185 173.008C10.1185 172.689 10.2823 172.428 10.4824 172.428C10.6826 172.428 11.0758 172.689 11.3563 173.008C11.6369 173.327 11.4731 173.588 10.9924 173.588C10.5118 173.588 10.1185 173.327 10.1185 173.008ZM-46.6154 171.464C-47.1827 171.303 -47.6469 170.933 -47.6469 170.64C-47.6469 169.804 -44.0042 170.019 -42.2344 170.96C-40.7126 171.769 -40.7563 171.81 -43.1082 171.784C-44.4698 171.769 -46.048 171.625 -46.6154 171.464ZM-25.7338 171.135C-26.4739 170.844 -28.1089 170.765 -29.3672 170.959C-30.6255 171.153 -32.561 171.058 -33.6681 170.746C-35.4483 170.246 -35.2908 170.187 -32.3058 170.236C-27.9184 170.308 -26.7471 169.806 -27.8684 168.334C-28.6643 167.289 -28.425 167.209 -24.4882 167.209C-20.68 167.209 -15.1861 168.436 -14.2549 169.495C-13.6358 170.199 -24.256 171.717 -25.7338 171.135ZM-9.90459 171.502C-10.8825 170.815 -9.66711 170.109 -7.50626 170.109C-6.20872 170.109 -5.55124 170.382 -5.76283 170.834C-6.14331 171.645 -9.03616 172.112 -9.90459 171.502ZM587.123 170.58C584.938 169.044 587.1 167.209 591.095 167.209C592.866 167.209 592.867 167.219 591.348 169.047C589.577 171.178 588.52 171.562 587.123 170.58ZM-3.08499 170.461C-3.08499 170.335 -2.52797 170.082 -1.84717 169.899C-1.16637 169.715 -0.609344 169.818 -0.609344 170.127C-0.609344 170.436 -1.16637 170.689 -1.84717 170.689C-2.52797 170.689 -3.08499 170.586 -3.08499 170.461ZM-38.7575 166.303C-39.0122 166.124 -40.7543 165.963 -42.6286 165.945C-45.2145 165.92 -45.8349 165.741 -45.2006 165.204C-44.5875 164.685 -45.4678 163.994 -48.5017 162.612C-54.45 159.903 -57.7713 159.374 -61.7675 160.498C-65.5147 161.551 -65.8017 161.581 -65.8017 160.918C-65.8017 159.704 -59.2341 158.369 -54.5049 158.621C-49.982 158.863 -47.4497 159.54 -38.5695 162.878C-31.2702 165.623 -31.2622 165.628 -33.6182 166.1C-36.2935 166.636 -38.1781 166.711 -38.7575 166.303ZM-32.7929 161.409C-31.193 160.683 -30.3173 160.683 -30.3173 161.409C-30.3173 161.728 -31.1528 161.985 -32.174 161.981C-33.6754 161.973 -33.7939 161.864 -32.7929 161.409ZM624.412 160.381C623.913 160.149 623.054 159.359 622.504 158.625C621.675 157.519 621.761 156.982 623.007 155.482C624.932 153.166 626.231 152.877 626.856 154.626C627.513 156.466 625.614 160.939 624.412 160.381ZM-27.3748 159.608C-26.8239 158.982 -23.7153 158.911 -23.7161 159.525C-23.7164 159.764 -24.6423 159.997 -25.7737 160.043C-26.905 160.089 -27.6256 159.893 -27.3748 159.608ZM-43.6933 154.019C-45.0129 152.954 -44.821 151.55 -43.3558 151.55C-42.8868 151.55 -42.6926 152.06 -42.9243 152.683C-43.156 153.305 -42.921 153.922 -42.4017 154.053C-41.8825 154.184 -41.6766 154.459 -41.9442 154.664C-42.2117 154.869 -42.9988 154.579 -43.6933 154.019ZM-38.8996 149.463C-39.1932 148.925 -39.2479 148.354 -39.021 148.195C-38.794 148.035 -38.368 148.345 -38.0743 148.883C-37.7807 149.421 -37.726 149.991 -37.953 150.151C-38.1799 150.31 -38.6059 150.001 -38.8996 149.463ZM-44.0709 148.941C-44.0709 148.462 -43.3636 148.071 -42.4991 148.071C-41.1019 148.071 -41.0648 148.167 -42.1651 148.941C-42.8459 149.419 -43.5532 149.811 -43.7369 149.811C-43.9206 149.811 -44.0709 149.419 -44.0709 148.941ZM648.014 136.226C648.014 135.772 647.112 134.648 646.01 133.728C643.395 131.543 644.321 130.086 647.419 131.512C649.645 132.537 650.809 134.632 649.988 136.136C649.365 137.277 648.014 137.339 648.014 136.226ZM7.64285 132.737C7.64285 132.596 8.01419 132.319 8.46806 132.122C8.92194 131.925 9.2933 132.04 9.2933 132.378C9.2933 132.716 8.92194 132.992 8.46806 132.992C8.01419 132.992 7.64285 132.877 7.64285 132.737ZM652.613 132.024C652.078 131.044 653.341 130.118 655.234 130.101C656.546 130.09 656.57 131.387 655.276 132.296C653.93 133.242 653.239 133.171 652.613 132.024ZM660.152 129.907C658.55 128.188 656.287 127.952 651.106 128.964C648.999 129.375 647.547 129.379 646.567 128.978C645.774 128.654 645.561 128.38 646.094 128.37C646.626 128.361 648.181 127.691 649.548 126.882C651.312 125.839 652.605 125.513 653.999 125.759C655.476 126.019 657.07 125.521 660.423 123.75C666.952 120.303 667.542 119.216 664.886 115.532C662.337 111.996 663.047 110.858 666.825 112.426C669.574 113.568 672.164 116.837 671.412 118.215C671.141 118.711 671.545 120.268 672.309 121.675C673.391 123.666 673.494 124.503 672.772 125.451C671.712 126.843 668.763 127.773 665.409 127.773C663.529 127.773 662.968 128.112 662.354 129.617L661.601 131.461L660.152 129.907V129.907ZM325.848 127.927C324.863 127.235 325.387 126.613 326.954 126.613C327.835 126.613 328.786 126.352 329.066 126.033C329.833 125.161 331.141 125.336 330.645 126.244C330.136 127.177 326.563 128.43 325.848 127.927ZM297.708 126.924L295.232 126.127L298.533 126.088C302.644 126.039 305.673 126.581 305.077 127.259C304.413 128.014 300.549 127.838 297.708 126.924ZM264.372 121.139C261.069 119.95 260.914 119.802 262.638 119.485C264.703 119.106 269.273 119.578 269.18 120.161C269.148 120.36 268.869 120.956 268.561 121.484C268.054 122.352 267.652 122.319 264.372 121.139ZM247.831 114.864C247.117 113.424 247.173 112.873 248.101 112.221C249.779 111.042 251.083 111.871 251.083 114.116C251.083 116.769 249.012 117.245 247.831 114.864ZM228.48 115.346C229.066 114.274 231.577 114.093 231.072 115.159C230.883 115.558 230.11 115.968 229.355 116.071C228.398 116.202 228.133 115.982 228.48 115.346ZM659.66 108.727C658.149 107.236 658.108 106.961 659.223 105.842C660.319 104.742 660.315 104.413 659.186 102.879C657.33 100.356 657.59 100.203 660.81 101.929C662.401 102.782 665.542 103.864 667.789 104.333C672.432 105.302 673.552 106.062 671.132 106.602C670.217 106.806 669.469 107.352 669.469 107.815C669.469 108.446 668.9 108.554 667.2 108.249C662.846 107.466 661.608 107.657 661.888 109.07C662.23 110.801 661.674 110.715 659.66 108.727H659.66ZM249.157 109.408C248.2 108.735 248.561 107.611 249.845 107.265C250.739 107.024 251.083 107.329 251.083 108.363C251.083 109.755 250.275 110.193 249.157 109.408ZM654.423 97.1808C653.723 96.6226 652.036 94.5995 650.673 92.6851C649.311 90.7707 645.709 87.2551 642.67 84.8726C639.273 82.2109 637.548 80.4461 638.193 80.2948C638.771 80.1595 640.01 80.7659 640.947 81.6424C643.217 83.7672 646.013 85.6121 650.424 87.8969C654.081 89.7906 655.89 91.5436 653.53 90.9073C650.809 90.1735 651.488 91.9151 655.009 94.7012C657.062 96.3255 658.742 97.7762 658.742 97.9251C658.742 98.6304 655.552 98.0806 654.423 97.1808ZM50.5543 96.1659C50.5543 95.6874 50.914 95.296 51.3536 95.296C51.7932 95.296 51.9392 95.6874 51.6779 96.1659C51.4167 96.6443 51.057 97.0358 50.8786 97.0358C50.7003 97.0358 50.5543 96.6443 50.5543 96.1659ZM46.2422 94.2944L43.1679 94.0678L48.9529 90.0423C52.1347 87.8283 55.1539 86.0169 55.6623 86.0169C56.1987 86.0169 56.038 86.443 55.2792 87.0321C53.5613 88.3662 54.7327 89.865 57.8722 90.3496C59.2427 90.5612 60.6088 91.2993 61.1367 92.1136C61.9841 93.4205 61.8405 93.5536 58.9814 94.1117C55.982 94.6971 52.4014 94.7485 46.2422 94.2944ZM-154.838 90.1338C-157.697 88.2572 -158.016 87.4666 -156.12 86.9554C-154.423 86.4976 -151.289 87.99 -150.101 89.8219C-148.855 91.7442 -148.877 91.8163 -150.712 91.8163C-151.572 91.8163 -153.429 91.0592 -154.838 90.1338ZM208.584 87.1873C209.492 86.8726 211.278 86.3506 212.553 86.0271C215.364 85.3145 214.898 84.5556 211.343 84.056C208.905 83.7133 208.819 83.6261 210.214 82.9091C211.045 82.4824 211.482 81.8581 211.187 81.5218C210.885 81.1783 211.733 80.6448 213.124 80.3041C214.485 79.9707 215.598 79.4403 215.598 79.1255C215.598 77.7859 213.878 75.5326 212.922 75.6202C210.72 75.8222 209.699 75.5492 210.054 74.853C210.258 74.4543 210.09 73.6713 209.681 73.1131C208.619 71.6617 211.06 68.66 213.329 68.6275C213.669 68.6231 213.855 68.9386 213.742 69.3297C213.628 69.7209 214.407 70.1338 215.472 70.2474L217.409 70.4538L215.558 71.8382L213.708 73.2226L215.794 73.7801C218.033 74.3783 220.191 76.3275 222.389 79.7364C223.442 81.3696 224.134 81.7966 225.363 81.5707C227.885 81.1072 228.184 82.3082 225.818 83.3977C224.215 84.1358 223.911 84.5517 224.613 85.045C225.315 85.5384 223.931 85.8695 219.131 86.3563C215.6 86.7145 211.41 87.1767 209.822 87.3835C207.612 87.671 207.321 87.6249 208.584 87.1873ZM194.668 83.9837C194.385 83.4667 194.707 82.2921 195.383 81.3735C196.159 80.3195 196.309 79.5716 195.79 79.3462C194.36 78.7251 194.896 77.9324 196.997 77.5619C198.113 77.365 199.458 76.8381 199.986 76.3909C201.086 75.46 206.169 75.2887 206.933 76.1568C207.213 76.4752 206.863 77.3162 206.156 78.0257C205.449 78.7352 204.87 80.0096 204.87 80.8577C204.87 82.151 204.305 82.5377 201.363 83.2553C199.434 83.7258 197.254 84.2937 196.518 84.5172C195.656 84.7794 194.999 84.5899 194.668 83.9837ZM209.822 78.2219C209.822 78.0812 210.193 77.8048 210.647 77.6077C211.101 77.4106 211.472 77.5257 211.472 77.8634C211.472 78.2012 211.101 78.4776 210.647 78.4776C210.193 78.4776 209.822 78.3625 209.822 78.2219ZM-156.411 75.4276C-157.219 74.743 -157.168 74.424 -156.154 73.8324C-154.477 72.8542 -153.645 73.5178 -154.621 75.0551C-155.294 76.1152 -155.539 76.1662 -156.411 75.4276ZM-157.702 71.066C-157.98 70.7491 -157.655 70.1674 -156.979 69.7732C-155.638 68.9906 -155.358 69.6043 -156.485 70.8553C-156.916 71.3332 -157.394 71.416 -157.702 71.066ZM-211.04 70.6961C-211.04 70.2882 -208.538 69.5746 -204.988 68.9702C-203.643 68.7411 -202.847 68.7964 -203.115 69.1004C-203.37 69.3909 -204.608 69.7746 -205.866 69.9529C-207.123 70.1313 -208.802 70.4539 -209.596 70.6698C-210.391 70.8858 -211.04 70.8976 -211.04 70.6961V70.6961ZM279.347 64.1749C277.824 63.7432 278.094 63.0777 279.828 62.9859C280.66 62.9419 281.341 63.2778 281.341 63.7324C281.341 64.5959 281.055 64.6593 279.347 64.1749ZM98.0045 61.2108C92.7823 59.2094 90.2861 56.1346 91.7992 53.5674C92.5154 52.3524 92.5372 51.5883 91.8806 50.7261C90.5141 48.9317 92.297 46.8288 96.8565 44.8572C99.0221 43.9207 101.184 42.6419 101.661 42.0154C102.983 40.2796 101.806 37.305 99.5056 36.5684C98.3413 36.1956 97.7078 35.6061 97.965 35.135C98.5508 34.0621 95.8033 30.3979 93.067 28.6025C91.0529 27.2812 90.1865 27.1496 83.2903 27.1178C73.8994 27.0746 72.15 26.7077 72.3053 24.8141C72.3699 24.0275 72.618 23.3837 72.8569 23.3835C73.0957 23.3832 76.4378 23.111 80.2838 22.7786C85.1945 22.3541 89.5972 21.4786 95.0708 19.8382C103.545 17.2985 104.191 17.2488 124.411 17.5828C130.797 17.6883 136.671 17.3562 144.217 16.4631C151.244 15.6314 156.415 15.3179 159.207 15.5542C161.579 15.755 165.015 15.6226 166.954 15.2556C171.454 14.4039 183.147 15.4284 187.746 17.0773C190.465 18.052 191.903 18.1808 196.491 17.8598C201.447 17.5131 201.821 17.5587 200.332 18.3275C199.424 18.796 196.639 19.3683 194.143 19.5993C188.726 20.1006 183.748 22.8138 185.068 24.5462C185.637 25.2935 185.229 25.9314 183.389 27.1701C182.052 28.0703 180.762 29.24 180.523 29.7696C179.949 31.0418 172.653 33.4095 169.036 33.4978C165.018 33.5958 164.598 34.196 167.705 35.3987C169.173 35.9669 171.315 36.935 172.466 37.55L174.559 38.6683L172.667 39.1601C171.217 39.5372 170.04 39.2941 167.627 38.1188C164.352 36.5239 160.829 36.5159 162.709 38.1076C163.442 38.7284 163.265 38.9695 161.893 39.2216C158.827 39.7852 160.996 40.8996 164.378 40.4981C166.53 40.2425 167.741 40.3772 168.414 40.9472C169.215 41.6254 168.17 41.9394 162.16 42.8272C158.192 43.4134 152.902 43.9145 150.406 43.9407C145.769 43.9894 142.427 44.925 137.511 47.5509C135.907 48.4072 132.501 49.2557 128.514 49.7918C120.182 50.9121 117.367 52.2077 112.346 57.2316C108.314 61.2669 105.883 62.7708 103.368 62.7851C102.688 62.789 100.274 62.0805 98.0045 61.2108ZM39.4926 57.332C37.7203 56.5668 35.5486 55.1396 34.6665 54.1604C32.9443 52.2489 31.3565 52.0061 26.7073 52.9431C25.1334 53.2603 23.3672 53.2909 22.661 53.0132C20.2173 52.0521 24.6312 51.1069 29.5471 51.5385C33.2857 51.8668 34.1164 51.7732 34.5524 50.9748C35.4284 49.3706 39.4374 48.2209 41.6666 48.9347C43.0388 49.3741 44.2864 49.3618 46.039 48.8917C48.3969 48.2592 48.4296 48.2021 46.8894 47.4073C46.0084 46.9527 45.0028 46.5807 44.6548 46.5807C44.3068 46.5807 43.0506 45.4157 41.8632 43.9918C40.6758 42.5678 38.4503 40.8582 36.9177 40.1925C34.313 39.0612 33.9684 39.0413 31.6387 39.888C29.602 40.6282 28.4254 40.68 25.2027 40.1714C23.0337 39.8292 20.0052 39.7139 18.4728 39.9153C15.8144 40.2646 10.9437 39.3504 10.9437 38.502C10.9437 36.9436 17.9327 33.4461 22.0842 32.927L25.3851 32.5142L23.0256 34.2809C19.7708 36.7179 20.9948 37.8395 24.5292 35.6586C26.0284 34.7335 28.6197 33.7966 30.2874 33.5768C32.8357 33.2408 33.9274 33.4599 37.1271 34.9494C41.3845 36.9311 41.7125 36.9843 44.1134 36.0813C45.5592 35.5375 46.0954 35.6868 47.6655 37.0706C48.7514 38.0278 51.1767 39.07 53.5417 39.5959C57.3108 40.434 57.5687 40.6163 57.5687 42.4433C57.5687 43.8133 58.1309 44.6778 59.4545 45.343C64.9925 48.1264 64.8718 48.0114 63.6734 49.3599C62.0304 51.2089 60.733 51.3428 57.0966 50.0391C54.5668 49.1321 53.4616 49.0077 52.1882 49.4867C50.6298 50.0728 50.6132 50.198 51.8676 51.9028C52.8972 53.302 52.9912 54.0085 52.2916 55.0876C51.4295 56.4173 51.2922 56.4378 48.9514 55.5871C44.3496 53.9147 41.2508 55.0152 45.5435 56.7973C46.8885 57.3557 47.8015 58.0256 47.5724 58.286C46.7732 59.1949 42.6902 58.7128 39.4926 57.332V57.332ZM208.997 58.083C208.997 57.8172 209.554 57.5997 210.234 57.5997C210.915 57.5997 211.472 57.8172 211.472 58.083C211.472 58.3488 210.915 58.5662 210.234 58.5662C209.554 58.5662 208.997 58.3488 208.997 58.083ZM8.37785 54.9641C6.75096 54.363 5.48743 54.3115 3.20914 54.7536C-0.664459 55.5052 -2.01903 54.9552 -0.0534058 53.4288C2.46295 51.4747 4.16956 51.0904 7.20465 51.7943C10.6207 52.5866 12.1368 53.7642 11.2152 54.9095C10.6277 55.6396 10.227 55.6473 8.37785 54.9641ZM172.274 54.7C170.913 54.0708 169.18 53.6936 168.423 53.8618C167.381 54.0935 167.15 53.8924 167.469 53.0328C167.96 51.7134 175.211 49.809 177.662 50.3557C178.517 50.5463 180.701 50.3896 182.516 50.0074C185.365 49.4075 186.12 49.4529 188.046 50.3399L190.277 51.3671L188.29 52.4554C186.613 53.3739 183.502 54.1709 175.988 55.6073C175.307 55.7375 173.636 55.3291 172.274 54.7ZM-51.773 43.8739C-52.9077 43.7479 -55.6718 43.0657 -57.9154 42.358L-61.9948 41.0713L-56.265 40.7813C-53.1136 40.6218 -50.5352 40.2304 -50.5352 39.9114C-50.5352 39.5924 -52.7633 39.1916 -55.4865 39.0206C-59.082 38.7949 -59.7599 38.6361 -57.9621 38.4407C-54.9521 38.1135 -54.7352 37.1973 -57.5495 36.6978C-59.5762 36.3381 -59.5614 36.3162 -56.7106 35.453C-51.7701 33.957 -46.5076 33.6704 -41.8453 34.6434C-38.0173 35.4423 -37.4193 35.4389 -35.6145 34.6079C-34.3382 34.0202 -33.5809 33.9218 -33.515 34.3353C-33.4583 34.6909 -33.3654 35.2864 -33.3087 35.6585C-33.1172 36.9149 -31.4711 36.7523 -29.5069 35.283C-27.6886 33.9228 -24.5368 33.2712 -24.5438 34.257C-24.5455 34.4962 -25.2796 35.5365 -26.1752 36.5688L-27.8035 38.4456L-25.1406 39.4219L-22.4777 40.3983L-26.8501 41.8008C-30.7956 43.0664 -31.605 43.1388 -35.1416 42.5426C-38.5707 41.9644 -39.5545 42.0306 -43.0096 43.0714C-46.9121 44.247 -47.7351 44.3224 -51.773 43.8739ZM-18.6765 43.4653C-19.4219 42.8341 -19.1141 42.5235 -17.1879 41.9628C-15.8472 41.5725 -13.9239 41.4424 -12.8933 41.6723C-11.106 42.071 -11.1472 42.1336 -13.864 43.1505C-17.3302 44.4478 -17.5029 44.4591 -18.6765 43.4653ZM208.997 40.7813C210.596 40.0547 211.472 40.0547 211.472 40.7813C211.472 41.1003 210.637 41.3573 209.615 41.3524C208.114 41.3452 207.996 41.2359 208.997 40.7813ZM360.424 39.1724C356.205 38.0012 356.292 38.0652 357.52 37.0257C358.094 36.5396 358.24 36.1335 357.844 36.1233C357.448 36.1132 357.866 35.7105 358.774 35.2285C359.682 34.7464 360.431 34.1675 360.438 33.942C360.467 33.0843 363.827 30.8222 366.201 30.062C367.563 29.626 371.09 29.1347 374.041 28.9701C376.991 28.8055 380.942 28.5039 382.822 28.2999C384.822 28.0828 386.453 28.1716 386.754 28.514C387.339 29.1793 386.222 29.4621 379.817 30.2708C373.461 31.0732 369.641 32.3237 367.125 34.4252C364.474 36.6391 364.386 38.0369 366.82 39.2303L368.677 40.1405L366.201 40.1146C364.839 40.1004 362.24 39.6764 360.424 39.1724V39.1724ZM-71.7806 37.4909C-73.1115 36.5556 -72.8081 36.352 -66.423 33.8954C-58.9417 31.0172 -55.1824 30.6351 -48.4721 32.0709L-44.7586 32.8655L-49.7099 33.5555C-53.7593 34.1198 -62.3407 36.1364 -69.1173 38.1164C-69.8086 38.3183 -71.002 38.0381 -71.7806 37.4909ZM-12.1624 36.7403C-12.1624 36.4315 -13.1836 35.7669 -14.4318 35.2634L-16.7011 34.3481L-13.6626 34.6839C-11.5036 34.9225 -10.4287 34.7803 -9.94911 34.1928C-9.37874 33.4941 -4.1265 32.096 -2.03229 32.0854C-1.68024 32.0835 -1.96759 32.8642 -2.67093 33.82C-4.32744 36.0712 -12.1624 38.4818 -12.1624 36.7403ZM0.685654 35.0469C-0.496628 33.7025 7.57819 31.6215 11.0083 32.3865C13.5081 32.9442 11.8373 33.9023 7.4769 34.4117C5.52576 34.6397 3.31706 35.0095 2.5687 35.2335C1.82033 35.4576 0.972961 35.3736 0.685654 35.0469ZM27.0355 30.7764C21.5891 30.4719 17.0313 30.1566 16.9072 30.0756C16.1693 29.5945 18.0096 28.0282 19.9903 27.4516C21.9377 26.8848 22.8351 26.96 25.5012 27.9136C28.0998 28.843 29.7748 28.9975 34.6024 28.753C37.8564 28.5882 41.5699 28.6403 42.8546 28.8689L45.1904 29.2844L42.3021 30.369C40.7136 30.9655 38.8568 31.4258 38.176 31.3918C37.4952 31.3578 32.482 31.0808 27.0355 30.7764ZM264.516 28.4062C260.462 26.9478 260.071 26.2863 263.255 26.2739C264.503 26.269 266.081 25.9834 266.762 25.6392C267.832 25.0983 267.818 25.054 266.656 25.3128C265.917 25.4775 264.881 25.3084 264.353 24.9374C263.622 24.4244 263.242 24.4334 262.766 24.9753C262.324 25.477 261.419 25.5364 259.705 25.1759C255.354 24.26 254.384 23.8534 254.384 22.9454C254.384 22.1763 255.475 22.1058 262.223 22.4392C267.363 22.6931 270.063 22.6228 270.063 22.2349C270.063 21.0932 272.352 21.657 272.96 22.9481L273.573 24.2529L273.939 22.9481C274.139 22.2304 274.835 21.6432 275.484 21.6432C276.133 21.6432 276.665 21.33 276.665 20.9473C276.665 20.406 276.885 20.406 277.655 20.9473C278.231 21.3521 280.992 21.6432 284.257 21.6432C290.156 21.6432 291.542 22.3845 287.607 23.4359C285.563 23.9822 282.006 23.8277 278.109 23.0231C277.314 22.8591 276.667 22.9383 276.67 23.199C276.675 23.7342 281.312 25.7028 282.567 25.7028C283.016 25.7028 283.905 26.0689 284.542 26.5164C285.535 27.2146 285.527 27.3765 284.483 27.6581C283.814 27.8385 283.266 27.7043 283.266 27.3599C283.266 26.955 282.217 26.872 280.297 27.1251C278.218 27.3992 277.497 27.324 277.892 26.8743C278.203 26.521 278.008 25.8519 277.46 25.3874C276.402 24.4914 273.364 24.217 273.364 25.0175C273.364 25.2785 272.157 26.4298 270.682 27.5759L268 29.6598L264.516 28.4062L264.516 28.4062ZM45.603 27.1304C44.1724 26.5402 42.1485 26.3692 39.0012 26.5727C36.0594 26.7629 33.7976 26.599 32.5728 26.1067C30.8841 25.428 31.2969 25.3507 36.4508 25.38C42.8955 25.4167 45.7259 24.4471 42.2357 23.3984C40.5776 22.9002 40.8194 22.855 43.6615 23.1317C47.3719 23.4929 48.8144 22.7943 46.7927 21.6151C44.637 20.3578 47.0073 19.9675 54.6775 20.3167C59.424 20.5328 62.4066 20.4116 63.6257 19.9531C65.9614 19.0746 65.045 17.9563 62.3752 18.4272C60.5302 18.7527 47.7252 18.2187 48.2657 17.8388C48.6519 17.5673 66.7934 16.3866 78.7054 15.8576C84.8841 15.5832 91.754 15.2004 93.9719 15.007L98.0045 14.6553L91.3476 16.9024C85.1063 19.0093 74.9568 21.0633 70.7871 21.0633C69.772 21.0633 66.8538 21.8462 64.3022 22.8031C61.7506 23.76 59.1512 24.5429 58.5258 24.5429C57.9003 24.5429 55.201 25.3225 52.5273 26.2754C49.8536 27.2283 47.666 28.002 47.666 27.9947C47.666 27.9874 46.7377 27.5985 45.603 27.1304ZM29.5112 21.832C25.5118 21.21 25.3652 20.9761 28.3042 19.9056C32.5881 18.3452 36.6421 17.9453 38.4851 18.9012C39.9443 19.658 39.8597 19.775 36.9938 20.9633C34.0069 22.2019 32.7948 22.3426 29.5112 21.832Z" fill="url(#paint0_linear_165_1179)"/>
</g>
</g>
<defs>
<linearGradient id="paint0_linear_165_1179" x1="313.01" y1="14.6553" x2="313.01" y2="362.931" gradientUnits="userSpaceOnUse">
<stop stop-color="white" stop-opacity="0"/>
<stop offset="0.477083" stop-color="white" stop-opacity="0.933333"/>
<stop offset="1" stop-color="white" stop-opacity="0"/>
</linearGradient>
</defs>
</svg>
