<svg width="2185" height="697" viewBox="0 0 2185 697" fill="none" xmlns="http://www.w3.org/2000/svg">
<path opacity="0.3" d="M513.317 695.757C504.93 693.551 502.585 691.392 504.577 687.709C505.499 686.003 507.272 684.608 508.516 684.608C509.76 684.608 515.204 686.619 520.614 689.076C526.025 691.534 532.641 694.103 535.316 694.786L540.181 696.027L534.196 696.118C530.905 696.168 526.076 696.428 523.465 696.694C520.854 696.96 516.288 696.538 513.317 695.757V695.757ZM494.282 684.435C492.703 683.814 490.07 683.605 488.432 683.971C486.368 684.431 484.775 683.745 483.248 681.74C482.035 680.148 479.862 678.559 478.418 678.21C475.106 677.41 468.163 669.504 464.298 662.133C462.346 658.411 459.721 655.837 456.605 654.591C451.076 652.381 450.68 651.379 454.96 650.424C459.856 649.332 460.767 643.266 456.646 639.198C454.679 637.257 453.643 634.977 454.236 633.892C454.935 632.611 453.005 630.364 448.331 627.017C442.432 622.792 441.341 621.257 441.077 616.805C440.906 613.924 439.908 610.839 438.859 609.951C437.537 608.831 437.267 604.814 437.981 596.871C438.754 588.262 438.304 582.949 436.172 575.544C433.007 564.547 431.39 544.057 432.213 525.363C432.388 521.374 431.653 515.899 430.578 513.194C427.962 506.609 415.923 498.297 401.044 492.802C390.402 488.872 388.905 487.865 384.745 481.828C382.226 478.173 377.411 472.709 374.046 469.687C370.68 466.665 367.021 462.227 365.915 459.825C362.402 452.201 356.21 444.54 351.989 442.596C349.743 441.562 347.181 438.872 346.296 436.619C344.863 432.974 345.241 431.956 349.724 427.377C354.585 422.411 354.643 422.209 351.358 421.605C343.285 420.121 346.68 412.539 361.17 399.689C370.8 391.149 373.621 384.643 370.953 377.127C369.937 374.263 369.026 371.266 368.93 370.469C368.834 369.671 368.111 369.018 367.322 369.018C366.533 369.018 366.685 367.972 367.659 366.693C369.16 364.722 368.781 364.159 365.174 363.004C359.918 361.321 351.981 362.985 351.95 365.777C351.913 369.125 349.818 369.371 342.911 366.841C339.212 365.486 335.369 364.377 334.372 364.377C333.375 364.377 329.498 362.524 325.756 360.258C322.013 357.993 318.023 355.623 316.888 354.991C315.753 354.36 314.824 352.64 314.824 351.169C314.824 349.697 313.366 347.566 311.584 346.433C309.803 345.3 307.494 342.56 306.453 340.345C305.086 337.434 304.062 336.669 302.759 337.585C300.039 339.496 296.012 339.133 286.238 336.095C281.128 334.507 275.805 331.795 273.678 329.696C271.649 327.693 267.771 325.248 265.06 324.263C260.588 322.638 259.47 322.65 252.955 324.399L245.777 326.325L223.755 318.826C210.209 314.213 199.696 309.812 196.439 307.392C191.39 303.64 191.227 303.232 192.907 298.581C194.446 294.32 194.185 293.001 190.837 288.142C188.73 285.082 184.126 280.384 180.606 277.7C177.087 275.016 174.607 272.366 175.095 271.81C175.584 271.254 173.104 267.509 169.585 263.488C165.588 258.919 162.766 254.025 162.065 250.444C161.167 245.853 160.12 244.448 156.806 243.387C153.293 242.262 152.31 242.406 150.299 244.337C147.466 247.057 148.271 249.928 154.535 259.442C157.081 263.308 159.712 269.039 160.381 272.177C161.051 275.316 163.029 279.854 164.777 282.262C168.918 287.966 166.244 287.865 159.715 282.072C155.864 278.655 154.824 276.781 155.589 274.638C156.406 272.35 155.602 271.248 151.599 269.168C145.529 266.014 144.244 263.979 146.474 261.051C147.775 259.344 147.178 257.471 143.876 252.891C140.523 248.24 139.821 245.988 140.651 242.534C142.009 236.888 138.404 231.778 131.685 229.822C127.806 228.693 126.469 227.43 125.678 224.148C125.119 221.825 124.048 218.233 123.298 216.164C122.518 214.012 122.575 212.124 123.431 211.752C124.253 211.395 123.715 209.803 122.234 208.215C120.053 205.876 119.904 204.769 121.448 202.387C122.496 200.77 122.892 198.922 122.327 198.28C121.763 197.638 123.17 195.719 125.455 194.016C127.74 192.313 130.781 188.916 132.214 186.468C133.647 184.02 138.064 179.481 142.028 176.382C145.992 173.284 151.018 167.855 153.197 164.32C156.22 159.412 157.992 157.887 160.688 157.872C162.631 157.861 164.116 158.505 163.99 159.302C163.465 162.626 167.205 161.602 171.406 157.272C173.882 154.719 175.218 152.457 174.374 152.244C173.531 152.031 172.841 151.071 172.841 150.11C172.841 149.149 169.423 146.028 165.246 143.175C158.318 138.443 157.873 137.816 160.177 136.027C162.043 134.577 162.263 133.513 161.018 131.95C158.83 129.203 162.282 123.051 166.025 123.027C167.571 123.016 168.012 122.646 167.063 122.156C164.933 121.057 163.969 118.56 164.268 114.923C164.746 109.113 162.937 106.683 156.79 104.878C153.475 103.904 148.417 101.85 145.549 100.313C142.682 98.7763 139.044 97.5187 137.465 97.5187C135.886 97.5187 128.708 96.4626 121.514 95.1718C109.949 93.0965 107.91 93.0146 103.904 94.4637C95.6014 97.4667 86.8051 98.6907 83.2191 97.3419C80.5292 96.3302 77.5937 96.955 67.3578 100.718C60.4495 103.257 52.197 105.729 49.0188 106.211C45.8407 106.693 39.7586 108.32 35.5029 109.827C23.4319 114.101 6.14004 118.41 1.357 118.335C-1.72988 118.287 0.35711 117.336 8.57019 115.047C22.5283 111.157 36.871 106.091 38.1976 104.582C39.8316 102.724 36.2847 102.058 32.0241 103.422C28.8872 104.427 26.954 104.333 23.3342 103L18.6786 101.285L23.7429 99.445C29.4677 97.3645 31.2685 95.0106 29.9532 91.3277C28.6793 87.7607 35.703 85.1399 50.8339 83.5362C58.9639 82.6745 65.1444 81.2402 69.3056 79.2494C76.6432 75.739 75.3826 73.0859 67.4713 75.3889C63.726 76.4791 60.9981 76.4911 55.4516 75.4415C48.7111 74.1659 48.471 73.9838 51.4859 72.4345C56.5307 69.8421 66.9643 68.2828 73.8195 69.0968C78.1574 69.6118 81.7106 69.2512 85.3573 67.926L90.6267 66.0109L87.1579 63.416C85.2501 61.9888 83.6891 60.5142 83.6891 60.1392C83.6891 59.0627 93.628 56.9098 98.5976 56.9098C101.078 56.9098 107.878 55.6478 113.709 54.1055C119.539 52.5632 132.991 50.4575 143.602 49.4263C160.812 47.7537 164.456 47.7333 177.361 49.2371C185.317 50.1643 196.285 51.2701 201.733 51.6944C207.181 52.1188 216.825 53.4659 223.163 54.6879C237.883 57.5261 247.47 57.4915 263.915 54.5407C271.177 53.2377 278.516 52.4835 280.225 52.8646C281.933 53.2457 284.838 52.9907 286.681 52.2978C289.219 51.3431 291.187 51.4586 294.809 52.7747C298.081 53.9638 302.12 54.3032 307.619 53.8512C313.42 53.3742 318.5 53.8681 325.916 55.6304C331.563 56.9722 337.834 58.07 339.852 58.07C343.427 58.07 343.439 58.1127 340.317 59.7275C337.255 61.3111 337.247 61.4216 340.121 62.2045C341.776 62.6552 347.522 62.7015 352.889 62.3072C362.581 61.5953 362.665 61.6153 365.368 65.2883L368.089 68.9862L371.621 65.8732C373.65 64.0843 378.474 62.0578 382.961 61.1088C389.742 59.6745 391.8 59.6793 398.611 61.1452C403.419 62.1799 409.173 62.5568 413.483 62.1194C418.97 61.5624 421.518 61.9093 425.099 63.701C429.619 65.963 429.744 65.9642 433.753 63.7806C435.991 62.562 440.595 61.0219 443.984 60.3582C452.099 58.7693 454.851 55.3835 449.978 52.9846C446.532 51.2882 446.683 51.1588 455.742 48.0364C462.498 45.7078 465.54 45.179 466.857 46.1044C468.174 47.0299 468.16 48.0478 466.808 49.8237C464.503 52.8505 467.372 57.4256 470.967 56.4561C472.26 56.1075 474.403 56.1154 475.731 56.4734C477.817 57.0359 477.784 57.5129 475.486 59.9774C469.138 66.7858 483.369 64.8567 493.004 57.6028C496.921 54.6537 502.989 53.7595 508.678 55.2935C512.351 56.2842 512.007 57.0952 505.924 61.7831C498.674 67.3697 494.964 68.5123 484.075 68.5123C478.812 68.5123 472.599 69.3136 469.704 70.3657C465.697 71.822 463.743 71.9431 460.582 70.931C454.69 69.0442 452.638 70.6147 456.865 73.7767L460.473 76.4758L453.275 77.9116C449.315 78.7013 442.733 79.4237 438.647 79.517C432.721 79.6523 431.215 80.1044 431.206 81.7506C431.198 83.1592 428.315 84.6417 422.126 86.4198C402.07 92.1812 385.057 102.569 391.216 105.293C392.37 105.803 394.202 107.642 395.287 109.379C396.537 111.38 398.946 112.775 401.857 113.185C404.385 113.54 410.911 115.374 416.359 117.259C421.807 119.145 428.493 121.029 431.217 121.446C438.717 122.595 438.783 122.716 435.29 128.943C432.302 134.271 432.241 135.032 434.557 138.179C435.945 140.065 437.99 141.59 439.102 141.567C444.512 141.457 449.584 137.949 452.736 132.137C455.74 126.597 457.109 125.564 465.731 122.327C478.456 117.551 483.747 112.847 482.337 107.564C481.419 104.123 481.896 103.316 486.087 101.219C488.728 99.8971 492.224 96.7341 493.857 94.1897C497.506 88.5024 503.37 86.5309 513.258 87.667C522.028 88.6746 532.398 92.5873 533.651 95.3609C534.165 96.4995 533.738 98.5443 532.702 99.9049C531.132 101.966 531.429 102.836 534.477 105.116L538.136 107.853L544.112 105.677C547.398 104.479 552.665 102.144 555.817 100.487L561.547 97.4734L562.893 100.031C563.634 101.437 563.844 103.313 563.36 104.198C562.877 105.084 563.253 106.822 564.196 108.06C565.257 109.454 565.339 111.03 564.412 112.194C563.367 113.507 564.066 115.501 566.723 118.788C570.529 123.498 570.53 123.502 567.187 125.147C562.788 127.312 565.61 129.609 570.438 127.793C575.233 125.989 580.722 126.224 584.107 128.377C589.111 131.559 584.95 135.367 571.668 139.758C557.221 144.535 550.783 145.481 531.926 145.598C518.002 145.684 516.159 145.997 502.622 150.557C494.676 153.234 488.176 155.883 488.176 156.444C488.176 158.839 490.679 158.63 500.284 155.437C505.944 153.555 513.239 152.052 516.713 152.052C522.647 152.051 522.864 152.18 521.011 154.613C519.937 156.023 517.622 157.994 515.866 158.993C513.105 160.564 512.943 161.228 514.671 163.894C517.264 167.892 524.033 169.816 532.131 168.856L538.53 168.097L533.61 170.483C530.903 171.795 526.446 173.209 523.704 173.625C520.962 174.041 515.327 175.582 511.181 177.05C506.974 178.54 502.746 179.328 501.61 178.835C498.998 177.7 501.755 175.998 510.244 173.505C517.794 171.288 516.587 168.933 508.451 170.006C505.282 170.424 495.005 173.144 485.614 176.051C470.956 180.589 468.398 181.787 467.545 184.517C466.496 187.874 462.917 189.461 450.335 192.151C446.321 193.009 441.121 195.083 438.778 196.76C436.436 198.437 431.951 200.947 428.811 202.338C425.671 203.73 422.665 206.168 422.131 207.756C421.251 210.373 421.046 210.435 419.943 208.419C417.877 204.641 414.765 208.335 414.585 214.777C414.402 221.377 409.641 225.879 399.2 229.327C388.496 232.861 373.263 241.214 370.177 245.241C367.452 248.797 367.338 250.182 369.017 259.322C370.583 267.848 370.489 269.987 368.428 272.788C366.889 274.88 365.094 275.88 363.6 275.477C360.057 274.521 355.724 264.277 356.939 259.728C357.782 256.568 357.223 255.37 353.873 253.158C351.172 251.375 348.68 250.698 346.561 251.17C344.792 251.565 339.792 250.817 335.443 249.507C328.78 247.499 326.654 247.331 321.897 248.435C318.672 249.183 315.468 250.956 314.419 252.575C312.858 254.983 311.824 255.292 307.512 254.64C304.724 254.219 300.436 253.153 297.984 252.273C291.945 250.105 288.563 250.256 281.779 252.997C278.615 254.276 272.159 256.723 267.432 258.435C261.999 260.403 258.267 262.642 257.289 264.522C256.437 266.158 253.393 272.534 250.524 278.691L245.307 289.887L247.971 297.113C252.867 310.39 259.678 314.365 273.87 312.226C284.569 310.614 290.994 307.346 293.356 302.317C294.855 299.123 296.473 298.067 301.317 297.122C308.605 295.699 311.65 295.646 314.449 296.895C316.759 297.926 315.947 299.621 305.603 315.36C298.506 326.159 299.017 327.125 311.177 325.892C322.255 324.769 332.382 325.631 333.565 327.798C334.026 328.642 333.276 334.341 331.898 340.462C329.433 351.411 329.45 351.656 332.999 355.691C334.983 357.947 338.702 360.554 341.264 361.485C345.354 362.972 346.637 362.968 351.783 361.457C359.96 359.056 364.4 359.31 370.079 362.504C374.621 365.057 375.263 365.129 378.831 363.486C380.95 362.51 383.839 360.093 385.253 358.114C388.441 353.651 393.811 350.514 398.323 350.48C400.208 350.466 403.495 349.149 405.627 347.554C409.958 344.314 417.585 343.258 413.857 346.415C410.729 349.063 408.941 357.583 410.957 360.231C412.635 362.435 412.77 362.422 415.825 359.771C418 357.884 418.439 356.673 417.25 355.838C414.414 353.845 415.268 352.189 420.545 349.447C426.023 346.601 430.261 346.893 434.988 350.443C438.454 353.046 456.961 356.564 462.265 355.628C470.342 354.204 492.166 363.529 500.366 371.909C504.27 375.899 516.744 379.915 522.229 378.947C533.511 376.957 548.98 384.902 552.597 394.544C553.675 397.416 555.299 400.09 556.207 400.488C558.615 401.542 555.007 405.709 547.12 410.982C542.08 414.351 540.877 415.802 542.295 416.798C543.713 417.794 546.043 416.921 551.639 413.296C559.777 408.024 562.493 407.489 566.57 410.354C569.05 412.097 568.974 412.452 565.575 414.995C563.55 416.51 560.723 417.782 559.292 417.823C557.784 417.865 558.394 418.374 560.742 419.033C563.967 419.938 565.65 419.683 568.997 417.783C577.713 412.833 579.763 412.595 587.506 415.635C592.54 417.612 594.556 419.117 594.302 420.708C593.596 425.132 595.081 426.112 599.446 424.102C602.915 422.505 605.295 422.429 616.902 423.546C629.248 424.734 630.865 425.207 636.789 429.37C641.186 432.461 646.133 434.493 652.347 435.763C660.69 437.467 661.597 437.987 663.11 441.936C665.304 447.662 662.733 454.016 655.781 460.052C652.811 462.63 649.171 466.415 647.692 468.463C646.213 470.511 643.067 473.546 640.702 475.209C636.697 478.023 636.475 478.727 637.473 485.408C639.423 498.462 630.337 522.816 621.574 528.024C618.721 529.719 616.279 530.118 611.755 529.625C608.036 529.22 605.283 529.482 604.556 530.308C603.909 531.044 600.304 532.597 596.545 533.758C592.786 534.92 587.189 537.383 584.108 539.233C578.775 542.434 578.597 542.788 580.391 546.61C582.46 551.016 581.067 556.233 576.633 560.682C575.199 562.12 574.026 564.568 574.026 566.12C574.026 567.673 572.303 570.559 570.198 572.534C568.093 574.508 564.032 579.028 561.173 582.578C554.141 591.312 549.912 592.826 539.716 590.257C530.867 588.028 526.148 587.762 526.148 589.492C526.148 590.143 527.912 591.242 530.068 591.932C532.224 592.622 535.583 595.433 537.534 598.177C540.438 602.264 540.746 603.683 539.232 606.018C536.887 609.635 527.92 612.672 519.585 612.672C512.204 612.672 510.372 613.941 512.922 617.289C514.496 619.356 513.437 622.681 510.393 625.23C510.147 625.437 507.562 624.74 504.649 623.681C497.696 621.154 495.234 622.764 498.748 627.54C500.178 629.482 502.895 631.417 504.788 631.839C508.04 632.564 508.075 632.725 505.431 634.779C503.891 635.975 503.092 637.79 503.653 638.818C504.256 639.922 502.911 642.307 500.359 644.659C496.21 648.482 496.151 648.747 498.81 651.6C500.331 653.231 502.704 654.87 504.082 655.242C509.054 656.583 509.879 661.164 506.088 666.386C502.289 671.619 501.706 676.864 504.647 679.354C507.319 681.617 498.326 686.026 494.282 684.435H494.282ZM372.608 181.918C377.019 175.439 385.228 170.615 391.838 170.615C396.596 170.615 396.652 171.157 392.296 175.05L388.87 178.11L392.385 180.11C395.217 181.722 396.678 181.861 399.906 180.828C402.11 180.122 404.369 178.535 404.926 177.302C405.684 175.624 406.916 175.232 409.823 175.744C412.514 176.219 414.199 175.813 415.306 174.422C418.66 170.21 410.123 164.822 403.839 167.186C399.342 168.877 393.468 165.512 394.721 161.964C395.186 160.648 394.23 158.359 392.574 156.824C389.162 153.658 383.971 153.325 372.608 155.542C368.522 156.339 363.862 156.955 362.254 156.912C360.645 156.868 359.76 157.323 360.288 157.922C360.815 158.522 360.645 159.024 359.91 159.038C359.176 159.052 356.726 160.062 354.467 161.282L350.358 163.5L354.972 164.733C358.579 165.697 360.705 165.559 364.711 164.103C369.419 162.392 370.291 162.393 375.429 164.115C378.525 165.153 382.75 165.685 384.89 165.308C387.017 164.932 389.213 165.144 389.77 165.777C390.339 166.424 388.014 167.257 384.459 167.679C374.797 168.826 369.777 171.654 362.769 179.897C356.915 186.782 356.579 187.612 358.912 189.432C361.202 191.218 361.834 191.246 364.974 189.702C366.903 188.755 370.338 185.251 372.608 181.918V181.918ZM402.603 189.079C408.48 186.972 409.046 186.443 406.975 184.987C404.903 183.532 403.595 183.627 396.857 185.721C388.945 188.181 386.435 191.499 392.485 191.499C394.338 191.499 398.891 190.41 402.603 189.079ZM431.877 180.312C435.316 178.619 435.443 178.287 433.018 177.333C429.447 175.929 418.835 178.349 418.835 180.567C418.835 182.852 427.042 182.692 431.877 180.312ZM555.865 681.359C555.865 680.848 556.757 679.804 557.846 679.038C558.936 678.273 559.204 677.646 558.441 677.646C557.679 677.646 556.164 678.502 555.075 679.549C553.512 681.051 552.432 681.181 549.94 680.164C548.159 679.438 547.726 678.862 548.946 678.842C550.135 678.822 550.648 678.284 550.087 677.646C549.009 676.421 551.842 676.087 559.993 676.478C567.267 676.827 567.999 677.574 563.502 680.059C559.314 682.375 555.865 682.962 555.865 681.359ZM1934.64 652.24C1929.92 650.137 1939.75 645.493 1964.14 638.312C1970.95 636.307 1981.33 632.114 1987.2 628.993C1997.19 623.688 1998.02 623.458 1999.99 625.443C2003 628.458 2001.23 630.64 1993.89 632.966C1990.38 634.077 1985.97 636.231 1984.09 637.752C1982.21 639.273 1979.18 640.518 1977.36 640.518C1975.54 640.518 1971.27 642.276 1967.86 644.426C1956.19 651.782 1941.42 655.258 1934.64 652.24ZM1819.1 637.167C1817.38 636.403 1817.28 635.617 1818.68 633.78C1819.69 632.465 1820.5 629.753 1820.5 627.753C1820.5 624.485 1820.88 624.211 1824.22 625.036C1826.26 625.541 1830.53 626.023 1833.71 626.106C1836.89 626.19 1840.07 626.334 1840.77 626.427C1843.5 626.788 1836.19 632.638 1829.62 635.344C1821.79 638.568 1822.12 638.512 1819.1 637.167ZM2009.87 627.021C2009.3 626.617 2010.66 625.275 2012.89 624.039C2016.26 622.176 2016.66 621.389 2015.18 619.455C2013.05 616.656 2016.22 613.653 2023.55 611.519C2029.23 609.865 2030.66 606.51 2029.14 598.412C2028.09 592.841 2028.22 592.494 2030.77 593.979C2032.78 595.144 2033.27 596.613 2032.56 599.291C2031.77 602.227 2032.48 603.753 2035.96 606.662C2039.72 609.806 2040.84 610.148 2043.77 609.046C2046.69 607.949 2047.03 608.049 2046.11 609.731C2045.52 610.815 2045.04 611.906 2045.04 612.157C2045.04 612.407 2042.62 613.481 2039.67 614.543C2036.72 615.605 2030.96 618.414 2026.88 620.785C2020.23 624.64 2013.39 627.755 2011.57 627.755C2011.21 627.755 2010.45 627.425 2009.87 627.021ZM1835.29 612.036C1831.81 609.435 1831.17 609.335 1827.83 610.873C1823.57 612.833 1815.58 611.688 1809.16 608.2C1805.75 606.34 1805.51 605.74 1807.27 603.424C1808.78 601.448 1808.83 600.063 1807.47 597.967C1806.47 596.423 1805.65 594.139 1805.65 592.893C1805.65 590.082 1803.05 589.948 1800.9 592.648C1800.01 593.759 1798.82 594.336 1798.24 593.93C1797.66 593.524 1799.57 591.282 1802.49 588.949C1809.66 583.207 1806.86 581.648 1797.39 586.108C1793.3 588.03 1789.7 590.129 1789.37 590.774C1789.05 591.418 1787.09 589.429 1785.01 586.355C1782.76 583.021 1778.88 579.671 1775.39 578.054C1770.14 575.625 1768.36 575.425 1758.28 576.13C1743.5 577.164 1729.25 579.725 1719.91 583.022C1715.67 584.521 1707.39 586.055 1701.01 586.526C1694.76 586.986 1684.83 588.639 1678.93 590.199C1669.92 592.584 1667.35 592.834 1662.78 591.774C1656.65 590.353 1654.11 587.424 1658.07 586.355C1659.51 585.968 1662.11 583.305 1663.86 580.438C1666.66 575.849 1666.82 574.42 1665.16 568.49C1663.78 563.584 1663.74 558.938 1665.02 551.385C1665.98 545.682 1666.34 539.893 1665.83 538.521C1665.32 537.149 1666.12 533.789 1667.6 531.055C1670.22 526.234 1670.86 525.919 1688.57 520.647C1698.62 517.657 1708.9 515.21 1711.42 515.21C1718.24 515.21 1726.69 510.648 1731.35 504.447C1734.23 500.615 1736.23 499.157 1737.96 499.626C1742.78 500.936 1743.73 500.679 1743.36 498.167C1743.12 496.551 1744.11 495.375 1746.07 494.937C1747.77 494.558 1750.91 492.445 1753.05 490.242C1755.24 487.986 1759.75 485.445 1763.36 484.426C1769.39 482.725 1769.99 482.751 1773.26 484.845C1779.31 488.709 1783.6 489.837 1785.65 488.103C1786.64 487.26 1786.99 486.239 1786.41 485.833C1784.52 484.505 1793.17 476.88 1797.39 476.148C1799.66 475.754 1804.32 474.446 1807.75 473.239C1813.09 471.358 1814.97 471.233 1820.96 472.363C1833.86 474.798 1834.29 475.196 1829.49 480.295C1823.32 486.852 1824.95 489.415 1840.1 496.907C1847.09 500.365 1853.69 502.989 1854.77 502.737C1855.84 502.485 1859.24 499.837 1862.32 496.852C1866.52 492.785 1868.15 489.827 1868.82 485.044C1869.78 478.25 1874.4 468.8 1876.77 468.8C1877.56 468.8 1879.35 471.595 1880.77 475.01C1882.18 478.425 1885.14 482.411 1887.34 483.867C1892.5 487.27 1895.49 496.786 1893.18 502.408C1891.64 506.133 1891.94 506.731 1897.2 510.53C1900.32 512.785 1905.25 518.285 1908.16 522.752C1911.07 527.219 1916.32 533.54 1919.83 536.797L1926.2 542.721L1924.39 551.873C1923.08 558.512 1921.04 562.938 1916.98 567.994C1910.76 575.739 1901.45 583.13 1896.55 584.224C1894.78 584.617 1890.7 587.524 1887.47 590.684C1884.24 593.843 1880.87 596.428 1879.98 596.428C1879.09 596.428 1875.32 599.14 1871.59 602.454C1865.37 607.981 1864.23 608.487 1857.75 608.573C1852.78 608.638 1848.97 609.586 1844.89 611.774L1839.09 614.881L1835.29 612.036H1835.29ZM1030.25 587.641C1026.75 585.184 1026.17 583.927 1026.95 580.543C1027.68 577.359 1026.98 575.486 1023.84 572.237C1021.61 569.931 1019.79 567.476 1019.79 566.782C1019.79 566.088 1016.87 562.771 1013.3 559.41C1007.78 554.215 1006.65 552.139 1005.74 545.567C1004.14 533.97 998.868 521.418 991.786 512.32C988.304 507.847 984.959 502.04 984.353 499.415C983.063 493.829 986.291 485.516 993.66 475.443L998.562 468.742L995.807 462.914C994.267 459.654 993.514 455.796 994.099 454.158C994.783 452.241 994.048 449.957 991.967 447.542C990.22 445.514 987.624 440.983 986.2 437.473C984.298 432.785 981.646 429.737 976.206 425.987C965.743 418.772 964.382 415.932 967.63 408.081C974.241 392.1 967.099 382.779 949.652 384.618C942.859 385.334 942.599 385.245 941.639 381.872C940.903 379.284 938.907 377.762 933.896 375.965C927.384 373.631 924.597 373.622 916.601 375.911C914.785 376.43 907.356 378.232 900.092 379.914C889.169 382.443 885.889 382.769 881.134 381.8C876.63 380.882 872.836 381.12 863.619 382.897C854.095 384.733 850.642 384.93 845.496 383.932C834.758 381.848 816.309 370.162 813.685 363.781C811.654 358.844 799.024 347.336 794.726 346.507C791.995 345.981 791.659 345.573 793.331 344.814C795.013 344.051 794.72 343.665 792.093 343.182C787.921 342.415 787.505 340.019 791.541 339.994C794.01 339.979 794.07 339.813 791.953 338.852C790.394 338.143 790.22 337.721 791.485 337.709C792.796 337.698 792.297 336.267 790.047 333.587C786.88 329.815 786.814 329.317 789.234 327.438C796.62 321.702 798.238 309.352 792.623 301.571C789.943 297.857 791.667 292.726 797.387 287.391C799.541 285.383 803.745 280.496 806.731 276.531C811.954 269.596 823.595 259.954 826.746 259.954C830.233 259.954 841.482 251.455 841.482 248.82C841.482 242.873 846.542 236.943 854.792 233.223C859.224 231.224 864.419 227.806 866.335 225.627C870.253 221.171 870.808 221.026 875.372 223.261C877.164 224.138 881.614 225.208 885.263 225.638C890.827 226.294 893.488 225.822 901.772 222.708C916.027 217.35 924.837 216.012 941.148 216.727C951.906 217.199 956.749 216.897 961.964 215.431C969.643 213.272 976.282 214.55 974.485 217.841C973.944 218.83 974.274 220.293 975.218 221.092C976.404 222.097 976.395 223.537 975.187 225.769C973.67 228.574 974.007 229.409 977.766 232.166C980.144 233.911 984.402 235.663 987.227 236.06C1000.5 237.925 1004.27 239.133 1007.01 242.392C1009.02 244.78 1011.65 246.006 1016 246.58C1019.38 247.026 1024.29 248.17 1026.91 249.122C1031.37 250.74 1031.94 250.681 1035.65 248.231C1038.15 246.583 1039.28 244.839 1038.7 243.542C1038.18 242.407 1038.57 240.414 1039.56 239.114C1042.12 235.759 1049.37 236.089 1060.7 240.073C1073.03 244.413 1096.43 247.51 1104.72 245.901C1108.71 245.127 1112.55 245.116 1116.04 245.871C1127.45 248.335 1133.29 246.406 1134.85 239.662C1135.36 237.422 1136.25 235.589 1136.81 235.589C1137.88 235.589 1138.43 232.221 1138.59 224.857C1138.64 222.464 1139.44 220.506 1140.38 220.506C1141.49 220.506 1141.43 219.665 1140.22 218.069C1138.19 215.402 1134.07 215.463 1124.22 218.305C1119.54 219.653 1118.24 219.596 1114.06 217.858C1108.63 215.604 1103.06 215.266 1101.45 217.093C1100.26 218.451 1091.81 217.499 1087.24 215.49C1083.95 214.046 1080.87 209.749 1080.87 206.594C1080.87 205.384 1079.2 203.566 1077.16 202.555C1074 200.99 1073.81 200.547 1075.92 199.577C1077.28 198.95 1080.08 198.717 1082.15 199.058C1084.78 199.493 1087.19 198.765 1090.25 196.619C1093.12 194.599 1096.62 193.485 1100.53 193.338C1103.79 193.217 1108.52 192.165 1111.03 191.001C1116.49 188.475 1128.87 189.177 1138.48 192.557C1151.44 197.116 1162.95 196.848 1167.58 191.879C1169.99 189.295 1170.01 188.752 1167.72 186.299C1166.33 184.804 1159.63 181.361 1152.84 178.647L1140.5 173.713L1142.82 170.57C1144.09 168.842 1144.71 167.136 1144.2 166.778C1143.69 166.421 1143.89 165.441 1144.64 164.601C1145.38 163.761 1146.14 162.399 1146.32 161.575C1146.69 159.818 1144.03 160.303 1130.9 164.383C1123.28 166.752 1122.15 167.478 1123.84 168.91C1124.95 169.847 1127.43 170.638 1129.37 170.666C1132.07 170.706 1131.43 171.253 1126.56 173.061C1120.64 175.256 1119.98 175.284 1116.13 173.512C1112.84 171.997 1112.41 171.291 1113.97 169.971C1115.52 168.66 1115.28 168.155 1112.84 167.51C1111.15 167.063 1108.97 165.951 1107.99 165.039C1103.26 160.61 1088.26 172.262 1083.9 183.754C1081.85 189.148 1081.92 189.428 1085.77 191.472L1089.78 193.593L1082.43 194.657C1078.4 195.242 1072.96 195.311 1070.34 194.809C1065.52 193.883 1059.41 195.278 1059.41 197.305C1059.41 197.901 1058.29 198.085 1056.91 197.715C1055.54 197.344 1053.36 197.657 1052.07 198.411C1050.06 199.579 1050.29 200.537 1053.61 204.925C1057.21 209.679 1057.32 210.329 1055.07 213.489C1052.26 217.449 1049.65 217.154 1045.68 212.43C1042.91 209.137 1042.93 209.061 1046.59 208.696C1051.21 208.235 1051.51 206.167 1047.03 205.663C1036.8 204.514 1031.34 200.726 1031.34 194.772C1031.34 190.127 1025.22 185.005 1017.78 183.441C1013.92 182.628 1009.72 180.92 1008.46 179.647C1007.19 178.373 1003.47 176.545 1000.2 175.585C996.927 174.624 993.266 172.85 992.062 171.642C990.335 169.909 989.199 169.7 986.67 170.652C984.907 171.314 983.465 172.603 983.465 173.516C983.465 176.529 1004.51 190.157 1014.79 193.806C1025.7 197.675 1027.4 199.057 1019.83 197.887C1013.07 196.844 1011.23 197.888 1013.54 201.452C1015.16 203.956 1014.9 204.717 1011.63 206.922L1007.84 209.483L1008.7 206.027C1010.07 200.541 999.781 192.66 991.245 192.66C988.116 192.66 976.095 184.465 972.946 180.185C969.581 175.612 965.836 174.728 960.532 177.256C952.541 181.063 946.55 182.351 940.282 181.607C931.956 180.618 926.718 182.658 928.044 186.374C928.737 188.313 928.352 189.179 926.795 189.179C925.557 189.179 922.385 190.483 919.747 192.078C917.109 193.673 914.382 194.978 913.688 194.979C911.645 194.981 905.883 202.311 905.876 204.915C905.869 207.406 899.413 212.313 893.183 214.563C891.2 215.279 886.583 215.865 882.923 215.865C877.888 215.865 875.825 216.448 874.443 218.262C872.634 220.637 872.579 220.632 868.348 217.658C864.379 214.868 862.093 214.17 854.083 213.299C849.874 212.842 849.163 206.146 852.311 196.607C853.657 192.529 854.317 187.959 853.779 186.452C852.214 182.071 857.112 179.488 865.304 180.373C884.221 182.415 895.287 182.528 897.881 180.705C901.444 178.2 903.052 169.94 900.877 165.308C899.458 162.288 897.507 161.053 891.686 159.49C883.124 157.192 882.944 154.969 891.314 154.91C894.503 154.888 899.104 153.952 901.538 152.832C903.972 151.711 906.663 151.098 907.519 151.47C909.853 152.483 918.69 148.904 921.625 145.756C923.044 144.234 925.837 142.697 927.832 142.34C929.827 141.982 935.174 139.258 939.715 136.286C946.151 132.072 949.529 130.751 955.048 130.288C961.885 129.714 968.761 125.763 965.533 124.262C963.527 123.329 961.851 117.711 962.968 115.665C963.498 114.695 965.835 113.025 968.162 111.953L972.393 110.005L971.307 114.779C970.364 118.922 970.605 119.508 973.128 119.211C974.728 119.024 977.718 118.22 979.775 117.426C982.906 116.217 983.674 116.276 984.5 117.788C985.915 120.379 981.981 123.426 979.266 121.842C977.766 120.967 976.814 120.999 975.976 121.952C975.112 122.934 974.436 122.881 973.443 121.751C972.698 120.904 971.709 120.477 971.246 120.803C970.783 121.128 972.102 122.892 974.179 124.722C977.679 127.807 978.346 127.953 983.334 126.731C987.606 125.684 989.658 125.756 993.295 127.078C997.401 128.57 998.788 128.499 1006.68 126.391C1013.59 124.545 1016.32 124.308 1019.38 125.288C1022.2 126.19 1024.28 126.171 1026.9 125.221C1034.32 122.524 1036.38 120.491 1035.46 116.759C1034.09 111.226 1036.59 109.414 1043.19 111.163C1047.67 112.353 1048.98 112.305 1051.01 110.881C1053.16 109.372 1052.97 108.815 1049.45 106.183C1046.07 103.652 1045.83 103.022 1047.9 102.044C1049.23 101.41 1054.25 101.182 1059.04 101.539C1067.81 102.192 1078.74 99.7843 1076.83 97.6192C1075.17 95.7232 1065.1 95.1753 1056.57 96.5164C1049.01 97.7057 1047.03 97.6095 1041.23 95.7728C1032.23 92.92 1031.17 89.5823 1037.34 83.5347C1045.29 75.7506 1046.74 73.2699 1044.48 71.3529C1041.13 68.5143 1037.83 69.4398 1030.18 75.3724C1026.13 78.5072 1020.62 81.7134 1017.92 82.4973C1015.23 83.2812 1011.9 85.4552 1010.52 87.3283C1008.28 90.3789 1008.28 91.0182 1010.55 93.4583C1011.95 94.9566 1014.6 96.5184 1016.44 96.9288C1021.5 98.0585 1020.5 100.179 1013.26 103.662C1011.03 104.733 1008.06 107.764 1006.66 110.397C1004.9 113.697 1002.22 115.948 998.048 117.641C992.166 120.028 991.899 120.037 988.649 117.97C986.809 116.8 984.857 114.413 984.311 112.666C983.765 110.919 981.285 107.779 978.801 105.687L974.283 101.884L968.556 104.338C965.406 105.688 961.342 106.782 959.526 106.771C954.287 106.737 948.222 102.759 947.816 99.0919C947.614 97.2695 946.94 94.8845 946.319 93.7919C944.839 91.1932 952.232 86.3194 959.915 84.8286C967.626 83.3324 983.265 75.6297 985.93 72.0156C987.115 70.4079 991.132 67.1728 994.856 64.8265C998.579 62.4801 1001.63 60.0433 1001.63 59.4112C1001.63 58.7792 1005.15 57.3783 1009.47 56.2981C1013.78 55.218 1021.02 53.2581 1025.56 51.9429C1031.14 50.3283 1038.11 49.4746 1047.03 49.3142C1062.61 49.0341 1072.8 50.4857 1081.21 54.1832C1085.43 56.0385 1088.76 56.6714 1091.95 56.2236C1097.65 55.4224 1128.03 62.0412 1129.3 64.3599C1130.57 66.6903 1121.86 68.8901 1114.36 68.1312C1110.92 67.7836 1103.82 66.8541 1098.57 66.0656C1091.51 65.0041 1088.55 64.9706 1087.18 65.9365C1085.8 66.9024 1086.49 67.6153 1089.83 68.6827C1092.3 69.4757 1095.4 71.584 1096.71 73.3679C1100.06 77.9101 1110.76 81.613 1116.28 80.1373C1121.59 78.7194 1121.55 78.2722 1115.96 76.1376C1110.78 74.1632 1113.17 73.7364 1119.67 75.4741C1124.86 76.8616 1130.75 75.1354 1129.38 72.6264C1128.73 71.4512 1130.54 70.6028 1135.63 69.6862C1146.52 67.7247 1147.32 67.4443 1146.41 65.892C1143 60.0205 1142.95 60.1892 1147.92 60.5882C1150.58 60.8011 1152.51 61.5985 1152.29 62.3864C1152.07 63.165 1153.46 64.3892 1155.37 65.1067C1158.23 66.1846 1160.49 65.8006 1168.37 62.8978C1179.93 58.6412 1188.92 57.2534 1192.28 59.21C1194.15 60.301 1197.25 60.3086 1206.23 59.2444C1212.58 58.4918 1218.49 58.1893 1219.37 58.5721C1220.25 58.955 1221.46 58.7147 1222.06 58.0382C1223.36 56.5588 1219.76 53.202 1217.79 54.0575C1215.41 55.0902 1207.61 53.2401 1209.3 52.0464C1211.01 50.8444 1256.96 58.3685 1259.71 60.3009C1261.56 61.6035 1267.43 59.8658 1267.43 58.0142C1267.43 57.3902 1264.15 55.7609 1260.15 54.3935C1247.73 50.1539 1246.94 43.3637 1258.61 41.3039C1265.39 40.1084 1268.32 41.4875 1277.7 50.2825C1289.87 61.701 1289.56 61.12 1285.58 65.0443C1282.63 67.9503 1282.46 68.6304 1284.5 69.1813C1288.37 70.2251 1296.65 66.5725 1297.82 63.3079C1299.19 59.4828 1296.64 56.2229 1290.54 54.0092C1285.76 52.2689 1282.29 49.0801 1282.29 46.4147C1282.29 45.5062 1284.09 45.2796 1287.66 45.7378C1293.01 46.4248 1297.43 45.0608 1309.55 38.9904C1312.33 37.6021 1317.01 36.6873 1321.74 36.612C1331.32 36.4592 1334.42 35.3286 1331.66 32.9933C1330.58 32.0775 1330.04 31.0866 1330.46 30.7913C1332.57 29.3095 1359.75 26.6394 1366.01 27.2992C1372.03 27.9339 1373.9 27.5905 1378.85 24.9342C1382.04 23.2251 1384.65 21.3666 1384.65 20.8042C1384.65 19.386 1370.22 19.5127 1368.97 20.942C1367.24 22.9086 1364.99 22.2243 1365.63 19.9223C1366.16 17.9786 1364.76 17.6624 1352.74 17.0044C1319.9 15.2076 1317.23 14.786 1321.17 12.0175C1324.63 9.58343 1333.13 9.63062 1340.24 12.1234C1343.15 13.1448 1347.98 13.9804 1350.96 13.9804C1353.95 13.9804 1356.85 14.5025 1357.41 15.1407C1357.97 15.7788 1360.86 16.3009 1363.83 16.3009C1372.07 16.3009 1387.99 18.8005 1386.99 19.9364C1386.5 20.4895 1388.04 20.942 1390.41 20.942C1392.78 20.942 1397.1 21.8411 1400 22.94C1403.91 24.4179 1409.37 24.9496 1420.97 24.9823C1433.44 25.0173 1437.59 25.4675 1441.2 27.1785C1443.69 28.3622 1445.72 29.6621 1445.71 30.0674C1445.7 30.4726 1441.89 32.2772 1437.24 34.0777C1426.03 38.4261 1428.4 40.3211 1441.97 37.8508C1450.75 36.2508 1452.77 36.2405 1460.05 37.7588C1466.01 39.0044 1469.74 39.1643 1473.79 38.3485C1477.83 37.534 1481.98 37.7089 1489.02 38.9905C1496.36 40.3277 1500.16 40.4637 1504.82 39.5553C1515.44 37.4823 1528.51 38.0678 1536.09 40.9564C1539.85 42.3922 1546.8 45.0489 1551.53 46.8601C1559.9 50.0707 1560.27 50.1062 1566.08 48.276C1570.94 46.7441 1573.65 46.6159 1580.82 47.5795C1587.95 48.5372 1590.55 48.4205 1594.56 46.9615C1598.49 45.5342 1599.12 44.8326 1597.62 43.5633C1594.72 41.1086 1605.01 40.1961 1617.64 41.7868C1623.43 42.5153 1630.77 43.2426 1633.95 43.4029C1637.12 43.5632 1643.33 44.836 1647.74 46.2313C1654.47 48.3592 1659.55 48.8413 1679.23 49.2212C1697.91 49.5817 1703.85 50.1069 1708.36 51.7944C1712.93 53.5072 1718.14 53.9429 1735.48 54.0617C1751.43 54.171 1758.58 54.7026 1763.31 56.1317C1770.95 58.4387 1774 57.5927 1769.84 54.3219C1766.85 51.9692 1766.87 51.9659 1778.41 52.7711C1797.73 54.1203 1820.91 57.0922 1828.76 59.2266C1832.85 60.338 1840.63 61.6294 1846.07 62.0964C1851.5 62.5635 1859.42 64.1856 1863.68 65.7012C1870.14 68.0017 1872.24 68.2558 1876.39 67.2396C1882.06 65.8499 1885.74 66.8506 1894.4 72.1383L1899.78 75.4239L1895.73 76.1393C1891.66 76.8574 1880.85 74.9767 1877.12 72.9024C1876.03 72.2925 1874.49 72.0713 1873.71 72.4108C1872.93 72.7504 1869.07 72.2482 1865.13 71.2948C1855.91 69.0618 1851.81 69.9005 1856.01 73.1622C1858.88 75.3898 1858.82 75.4366 1853.35 75.1684C1843.11 74.6666 1845.92 76.7912 1860.95 80.9111C1869.13 83.1512 1876.16 85.2221 1876.59 85.5132C1878.14 86.5673 1873.03 87.874 1869.31 87.3746C1865.23 86.8264 1855.17 89.9047 1855.17 91.7021C1855.17 92.299 1853.59 93.8279 1851.64 95.0995C1848.4 97.2238 1847.73 97.2722 1843.39 95.6951C1839.33 94.2191 1838.03 94.2038 1834.13 95.5858C1831.63 96.4699 1827.36 97.5695 1824.64 98.0294C1821.92 98.4893 1818.77 99.4051 1817.64 100.064C1814.32 102.002 1820.18 107.643 1828.43 110.45C1832.92 111.979 1836.18 114.027 1837.14 115.937C1837.99 117.612 1839.79 120.365 1841.14 122.053C1843.35 124.804 1843.33 125.195 1840.96 125.833C1839.23 126.301 1838.72 127.238 1839.47 128.565C1840.1 129.677 1840.82 131.891 1841.06 133.487C1841.3 135.082 1842.03 137.254 1842.68 138.313C1843.52 139.692 1842.82 140.469 1840.22 141.049C1837.33 141.696 1835.37 140.917 1830.61 137.216C1827.32 134.662 1821.84 131.146 1818.42 129.402C1815.01 127.658 1808.89 123.124 1804.83 119.325C1797.66 112.625 1797.51 112.32 1799.89 109.087C1801.24 107.255 1802.37 104.555 1802.4 103.088C1802.44 101.62 1803.48 99.1228 1804.73 97.5379C1807.12 94.5108 1806.2 92.0939 1801.1 87.9841C1797.75 85.2856 1791.8 87.3084 1793.3 90.6337C1794.68 93.6972 1790.44 94.6899 1785.56 92.4445C1783.44 91.471 1778.57 90.3223 1774.73 89.8917C1768.14 89.1524 1767.65 89.2946 1765.94 92.4436C1764.95 94.2778 1764.53 97.1773 1765.01 98.887C1765.77 101.551 1765.24 102.096 1761.34 102.698C1758.69 103.107 1754.15 102.623 1750.44 101.535C1746.37 100.341 1742.54 99.9798 1739.79 100.531C1737.42 101.004 1729.41 101.434 1721.99 101.485C1710.24 101.568 1707.98 101.928 1704.41 104.286C1702.15 105.774 1699.44 109.429 1698.39 112.408C1697.33 115.386 1695.4 118.986 1694.09 120.406C1691.82 122.861 1692.04 123.109 1698.51 125.429C1705.53 127.947 1713.19 128.61 1719 127.203C1723.47 126.118 1737.13 133.602 1741.4 139.476C1743.14 141.883 1746.03 144.4 1747.81 145.07C1754.56 147.607 1755.92 164.248 1750.29 175.127C1746.38 182.66 1742.01 185.123 1735.6 183.409C1733.14 182.753 1730.89 182.217 1730.59 182.217C1730.28 182.217 1728.45 184.359 1726.5 186.977C1723.95 190.415 1723.46 192.147 1724.72 193.212C1727.12 195.249 1725.34 197.899 1720.53 199.439C1718.31 200.15 1716.49 201.237 1716.49 201.855C1716.49 202.473 1721.66 205.477 1727.97 208.53C1736 212.415 1740.3 215.398 1742.26 218.466C1743.81 220.877 1744.77 223.042 1744.41 223.276C1744.04 223.51 1740.66 224.79 1736.91 226.12L1730.08 228.54L1725.97 221.912C1721.37 214.495 1717.43 211.512 1710.48 210.198C1706.98 209.536 1705.76 208.598 1705.76 206.566C1705.76 204.704 1704.05 203.121 1700.41 201.623C1695.11 199.441 1695.01 199.443 1689.37 201.893C1683.72 204.345 1683.66 204.347 1681.92 202.07C1680.96 200.807 1680.17 198.975 1680.17 197.998C1680.17 197.021 1678.79 195.7 1677.09 195.062C1674.57 194.114 1672.97 194.687 1668.34 198.212C1665.22 200.583 1661.23 203.099 1659.46 203.804C1656.73 204.897 1656.58 205.36 1658.47 206.957C1659.68 207.987 1663.88 210.088 1667.8 211.625C1674.02 214.071 1675.22 214.21 1677.32 212.735C1679.31 211.332 1680.94 211.281 1686.96 212.43L1694.21 213.812L1690.17 215.709C1682.68 219.226 1680.32 221.073 1679.25 224.248C1678.37 226.853 1678.9 227.637 1682.22 228.702C1684.44 229.414 1687.82 232.251 1689.73 235.008C1691.63 237.765 1695.44 240.954 1698.19 242.095C1704.23 244.603 1705.98 247.268 1702.49 248.641C1699.24 249.92 1700.79 251.833 1705.09 251.833C1710.23 251.833 1710.26 253.988 1705.29 266.429C1699.27 281.496 1693.84 286.523 1679.62 290.178C1674.02 291.617 1667.21 292.882 1664.49 292.988C1658.16 293.234 1653.25 295.118 1648.96 298.946L1645.56 301.984L1643.98 299.052C1641.91 295.228 1637.16 294.266 1630.35 296.291C1624.11 298.147 1620 301.106 1618.34 304.932C1616.85 308.356 1622.11 314.378 1630.82 319.224C1637.96 323.202 1645.98 333.185 1647.87 340.449C1649.5 346.767 1646.6 350.914 1638.82 353.381C1635.27 354.505 1631.95 356.348 1631.44 357.477C1630.22 360.187 1622.89 363.562 1621.54 362.034C1620.98 361.397 1620.96 359.91 1621.49 358.729C1622.03 357.549 1622 355.735 1621.44 354.7C1620.62 353.21 1619.72 353.076 1617.11 354.057C1614.4 355.078 1613.35 354.819 1611.16 352.585C1605.77 347.095 1590.15 338.272 1585.82 338.272C1584.3 338.272 1583.71 339.561 1583.97 342.333C1584.18 344.566 1583.53 348.921 1582.53 352.009C1580.9 357.042 1581.07 357.964 1584.14 360.885C1586.03 362.678 1588.04 365.457 1588.61 367.061C1589.2 368.69 1593.97 372.41 1599.43 375.488C1608.53 380.618 1609.49 381.63 1613.32 390.152C1615.58 395.186 1617.44 399.8 1617.44 400.405C1617.44 402.373 1613.99 401.576 1606.79 397.943C1599.35 394.188 1594.6 388.247 1590.63 377.746C1588.91 373.186 1587.03 371.232 1581.67 368.464C1575.11 365.069 1574.91 364.773 1575.44 359.156C1575.74 355.966 1576.48 351.443 1577.09 349.106C1577.95 345.816 1577.24 343.459 1573.95 338.664C1571.61 335.258 1568.85 330.026 1567.81 327.038C1565.49 320.363 1562.21 319.246 1556.4 323.152C1554 324.768 1551.58 326.089 1551.01 326.089C1548.38 326.089 1544.77 322.158 1545.64 320.24C1547.21 316.758 1537.54 304.618 1531.88 302.97C1528.78 302.068 1525.95 299.882 1524.06 296.929C1520.77 291.798 1517.07 289.835 1513.38 291.254C1512.04 291.769 1506.69 292.805 1501.47 293.556C1491.92 294.933 1488.49 296.966 1489.8 300.48C1490.28 301.774 1488.61 303.024 1484.6 304.367C1481.35 305.456 1477.85 307.646 1476.82 309.234C1475.79 310.822 1473.53 312.439 1471.79 312.827C1470.05 313.216 1467.36 314.991 1465.82 316.773C1464.28 318.555 1459.68 321.812 1455.61 324.01C1450.04 327.019 1448.3 328.703 1448.58 330.819C1450.2 343.192 1447.71 353.544 1441.65 359.691C1435.74 365.688 1435.32 365.855 1430.32 364.253C1427.57 363.371 1425.87 361.649 1425.17 359.02C1424.6 356.865 1421.27 350.793 1417.78 345.526C1396.67 313.662 1393.55 307.582 1395.35 301.828C1396.56 297.94 1393.65 292.073 1390.83 292.737C1389.7 293.004 1388.76 293.96 1388.73 294.862C1388.59 300.158 1380.13 300.971 1373.51 296.324L1369.13 293.244L1372.9 292.264C1377.14 291.162 1376.75 288.188 1372.44 288.733C1370.91 288.927 1367.4 287.752 1364.64 286.122C1361.89 284.493 1359 283.16 1358.22 283.16C1357.44 283.16 1356.33 282.11 1355.75 280.826C1354.23 277.457 1345.47 274.526 1341.08 275.917C1337.13 277.168 1301.3 276.907 1295.3 275.583C1293.14 275.106 1289.14 272.923 1286.42 270.732C1281.49 266.772 1281.42 266.757 1274.04 268.155C1267.04 269.481 1266.02 269.356 1256.6 266.012C1248.45 263.123 1246.01 261.565 1243.5 257.648C1240.29 252.649 1233.17 249.029 1228.84 250.197C1227.48 250.565 1225.88 252.393 1225.3 254.259C1224.46 256.939 1225.32 258.68 1229.36 262.548C1232.18 265.242 1235.25 269.442 1236.19 271.882C1238.2 277.122 1242.16 278.681 1245.45 275.522C1247.43 273.616 1247.97 273.549 1249.31 275.043C1250.17 275.998 1250.63 277.3 1250.34 277.938C1249.42 279.944 1258.95 283.245 1263.39 282.461C1265.64 282.064 1270.44 279.375 1274.06 276.485C1279.76 271.931 1281.75 271.624 1280.78 275.448C1280.12 278.022 1283 281.039 1287.77 282.771C1295.14 285.448 1305.4 291.41 1305.4 293.014C1305.4 293.753 1303.47 295.623 1301.12 297.171C1298.76 298.718 1295.36 301.991 1293.57 304.445C1289.22 310.407 1276.62 319.128 1272.35 319.128C1267.41 319.128 1260.07 322.056 1257.15 325.19C1255.77 326.674 1252.13 328.769 1249.06 329.844C1233.37 335.349 1214.48 340.93 1209.16 341.631C1203.48 342.381 1203.02 342.2 1200 338.026C1198.26 335.608 1196.28 330.759 1195.61 327.249C1194.73 322.685 1193.03 319.783 1189.63 317.057C1187.02 314.961 1184.88 312.742 1184.88 312.127C1184.88 311.512 1181.9 308.851 1178.26 306.214C1173.73 302.93 1170.8 299.366 1168.96 294.9C1167.48 291.315 1164.48 286.814 1162.29 284.9C1147.14 271.677 1142.65 267.014 1140.39 262.145C1137.4 255.692 1134.87 254.65 1133.7 259.39L1132.87 262.755L1127.28 257.799C1118.68 250.162 1117.59 253.634 1125.67 262.956C1129.5 267.368 1135.59 275.154 1139.22 280.259C1142.84 285.364 1147.54 291.157 1149.66 293.131C1151.84 295.165 1153.51 298.343 1153.51 300.459C1153.51 304.831 1155.37 307.56 1162.66 313.906C1165.59 316.459 1168.49 320.186 1169.1 322.188C1169.88 324.756 1173.07 327.441 1179.92 331.303C1190.33 337.172 1197.08 343.298 1198.75 348.403C1199.38 350.321 1201.76 352.289 1204.78 353.387C1209.39 355.061 1211.01 355.015 1225.56 352.799C1234.24 351.478 1243.43 349.636 1245.99 348.706L1250.64 347.016L1251.75 351.608C1252.75 355.782 1251.67 357.792 1239.92 373.634C1227.28 390.667 1226.69 391.23 1214.12 398.202C1207.05 402.126 1199.65 406.93 1197.67 408.878C1195.7 410.825 1189.39 416.086 1183.64 420.567C1166.88 433.646 1164.6 445.148 1175.72 460.566C1178.55 464.482 1179.65 467.446 1178.98 469.32C1178.42 470.879 1178.78 474.815 1179.77 478.068C1181.33 483.19 1181.16 484.559 1178.45 488.284C1174.55 493.659 1171.44 495.592 1160.53 499.435C1155.76 501.113 1151.86 502.983 1151.86 503.589C1151.86 504.195 1148.52 507.336 1144.43 510.57C1140.35 513.803 1137.01 516.974 1137.01 517.616C1137.01 518.258 1138.54 520.894 1140.41 523.473C1146.02 531.204 1142.25 536.807 1128.8 540.723C1123.13 542.374 1121.26 545.744 1122.67 551.82C1123.4 555.004 1122.93 556.063 1120.37 557.028C1118.6 557.695 1115.39 560.175 1113.25 562.541C1106.48 570.01 1087.03 583.227 1078.19 586.36C1070.81 588.974 1068.93 589.205 1063.51 588.153C1058.73 587.226 1054.88 587.373 1046.87 588.787C1033.89 591.077 1035.27 591.172 1030.25 587.641V587.641ZM1247.7 217.575C1251.96 216.026 1252.57 215.174 1252.57 210.756C1252.57 207.589 1251.61 205.145 1249.99 204.199C1248.57 203.369 1246.26 201.141 1244.87 199.246C1242.56 196.113 1242.57 195.866 1244.98 196.515C1248.15 197.371 1252.57 196.341 1252.57 194.745C1252.57 194.114 1251.04 192.082 1249.16 190.229C1246.33 187.438 1245.2 187.066 1242.56 188.06C1240.42 188.864 1239.36 188.872 1239.36 188.083C1239.36 187.435 1236.42 185.849 1232.82 184.558C1224.85 181.7 1222.01 178.534 1224.5 175.269C1226.38 172.799 1233.1 171.068 1235.97 172.314C1239.84 173.995 1240.98 171.517 1237.79 168.366C1230.04 160.724 1219.26 161.227 1205.89 169.854C1197.26 175.422 1196.51 176.901 1201.39 178.737C1203.21 179.42 1204.69 180.755 1204.69 181.704C1204.69 182.653 1207.63 185.668 1211.22 188.405C1219.49 194.707 1221 197.587 1219.98 205.046L1219.16 211.051L1230.5 215.141C1236.74 217.391 1242.06 219.257 1242.34 219.288C1242.61 219.32 1245.02 218.549 1247.7 217.575H1247.7ZM1202.22 541.67C1197.56 539.812 1196.89 538.832 1195.68 531.983C1194.7 526.51 1195.11 525.321 1199.77 520C1204.5 514.593 1204.84 513.551 1203.8 507.677C1202.29 499.196 1204.86 494.74 1211.87 493.658C1218.48 492.639 1232.78 483.768 1236.2 478.561L1238.82 474.583L1240.64 477.389C1245.22 484.451 1244.75 487.553 1236.79 503.043C1232.53 511.33 1227.96 521.244 1226.63 525.073C1222.38 537.326 1219.97 540.281 1213.02 541.745C1205.61 543.304 1206.33 543.309 1202.22 541.67ZM2015.48 521.498C2010.22 517.448 2007.06 513.972 2007.06 512.216C2007.06 508.323 2007.95 508.663 2012.72 514.376C2015 517.108 2019.11 520.861 2021.87 522.715C2024.62 524.57 2026.88 526.511 2026.88 527.03C2026.88 529.262 2023.36 527.555 2015.48 521.498ZM1278.99 519.852C1278.99 519.213 1279.73 518.691 1280.64 518.691C1281.55 518.691 1282.29 519.213 1282.29 519.852C1282.29 520.49 1281.55 521.012 1280.64 521.012C1279.73 521.012 1278.99 520.49 1278.99 519.852ZM2148.4 517.735C2147.82 517.073 2148.15 516.182 2149.13 515.755C2151.58 514.689 2152.45 515.536 2150.81 517.398C2149.94 518.396 2149.09 518.515 2148.4 517.735ZM1290.54 515.859C1290.54 515.578 1291.29 515.025 1292.2 514.63C1293.1 514.236 1293.85 514.466 1293.85 515.142C1293.85 515.818 1293.1 516.371 1292.2 516.371C1291.29 516.371 1290.54 516.141 1290.54 515.859ZM2105.47 504.083C2103.86 501.138 2105.9 500.106 2110.45 501.563C2114.38 502.821 2114.47 503.013 2111.73 504.42C2107.9 506.387 2106.69 506.322 2105.47 504.083ZM2115.93 498.924C2112.7 497.522 2114.94 496.403 2120.07 496.849C2124.09 497.199 2124.18 497.326 2121.31 498.57C2119.48 499.366 2117.28 499.51 2115.93 498.924ZM2038.84 494.666C2035.45 489.535 2036.64 487.564 2040.15 492.503C2043.8 497.642 2043.86 497.81 2042.15 497.798C2041.47 497.793 2039.98 496.383 2038.84 494.666ZM2045.17 493.842C2045.1 492.619 2045.49 491.934 2046.03 492.32C2046.58 492.705 2046.64 493.706 2046.16 494.543C2045.64 495.469 2045.25 495.194 2045.17 493.842H2045.17ZM2179.57 482.703C2178.06 480.985 2179.49 480.107 2183.02 480.59C2185.6 480.944 2185.63 481.132 2183.3 482.49C2181.44 483.571 2180.39 483.631 2179.57 482.703ZM1203.87 476.922C1203.31 476.284 1203.64 475.762 1204.6 475.762C1205.56 475.762 1206.35 476.284 1206.35 476.922C1206.35 477.56 1206.02 478.082 1205.62 478.082C1205.22 478.082 1204.43 477.56 1203.87 476.922ZM1928.64 466.021C1918.2 463.706 1913.46 461.555 1909.35 457.261C1904.65 452.354 1896.05 448.64 1891.66 449.619C1889.89 450.015 1886.9 452.168 1885.02 454.402C1881.83 458.207 1881.22 458.417 1875.41 457.691C1872 457.265 1867.24 455.624 1864.82 454.044C1861.76 452.035 1859.41 451.401 1857.01 451.935C1855.13 452.355 1852.4 452.231 1850.95 451.66C1848.68 450.768 1848.91 450.349 1852.53 448.678C1856.74 446.742 1856.75 446.716 1853.92 442.558C1851.66 439.219 1848.53 437.479 1838.31 433.868C1831.28 431.384 1823.34 429.352 1820.65 429.352C1814.51 429.352 1811.98 425.374 1816.6 422.998C1819.35 421.584 1818.95 421.233 1811.77 418.783C1804.15 416.18 1804.04 416.07 1807.68 414.65C1809.74 413.847 1813.05 413.172 1815.05 413.149C1818.91 413.105 1823.81 417.027 1823.81 420.171C1823.81 421.22 1825.41 423.512 1827.37 425.265C1830.89 428.406 1830.98 428.419 1833.57 426.151C1835.01 424.885 1839.61 422.47 1843.8 420.784L1851.41 417.719L1861.96 421.064C1867.76 422.903 1876 425.292 1880.26 426.372C1884.53 427.452 1893.06 430.663 1899.22 433.507C1910.99 438.938 1916.1 443.517 1913.17 445.999C1910.78 448.023 1920.16 457.241 1929.88 462.412C1940.56 468.097 1940.38 468.623 1928.64 466.021ZM2000.49 465.928C1999.19 464.825 1999.07 464.159 2000.16 464.159C2002.16 464.159 2004.48 466.361 2003.34 467.165C2002.92 467.457 2001.64 466.9 2000.49 465.928V465.928ZM1723.1 461.205C1720.7 460.275 1720.01 459.591 1721.45 459.577C1724.4 459.549 1729.11 461.48 1728 462.261C1727.57 462.562 1725.36 462.087 1723.1 461.205ZM1751.01 459.672C1755.69 455.051 1763.02 453.073 1769.79 454.602C1774.73 455.716 1774.81 455.809 1770.89 455.919C1768.57 455.984 1763.15 457.604 1758.86 459.518C1749.06 463.887 1746.69 463.933 1751.01 459.672ZM1990.55 461.259C1988.32 459.37 1988.86 459.133 1992.9 460.223C1994.33 460.61 1995.51 461.393 1995.51 461.963C1995.51 463.568 1992.83 463.187 1990.55 461.259ZM1998.29 460.235C1997.67 459.098 1997.21 457.297 1997.26 456.233C1997.33 454.951 1997.91 455.243 1998.96 457.098C1999.84 458.639 2000.3 460.44 1999.98 461.101C1999.67 461.761 1998.91 461.372 1998.29 460.235ZM2125.93 461.327C2125.93 461.046 2126.68 460.493 2127.58 460.098C2128.49 459.704 2129.24 459.934 2129.24 460.61C2129.24 461.286 2128.49 461.839 2127.58 461.839C2126.68 461.839 2125.93 461.609 2125.93 461.327ZM1703.69 456.454C1702.55 456.116 1702.03 455.362 1702.55 454.778C1703.81 453.344 1714.39 453.424 1715.67 454.877C1716.23 455.515 1715.72 456.045 1714.53 456.053C1713.34 456.062 1710.88 456.294 1709.06 456.569C1707.25 456.844 1704.83 456.792 1703.69 456.454V456.454ZM1728.2 455.583C1725.2 453.043 1728.66 452.269 1736.43 453.741C1744.27 455.224 1744.24 455.456 1736.12 456.486C1731.9 457.021 1729.59 456.757 1728.2 455.583ZM1976.08 454.877C1974.94 453.592 1974.73 452.557 1975.62 452.557C1976.51 452.557 1978.03 453.601 1979 454.877C1979.97 456.154 1980.17 457.198 1979.45 457.198C1978.73 457.198 1977.21 456.154 1976.08 454.877ZM1986.42 453.71C1982 450.282 1984.37 449.743 1988.91 453.141C1991.04 454.734 1992.02 456.038 1991.1 456.038C1990.17 456.038 1988.07 454.99 1986.42 453.71ZM1676.87 453.509C1670.97 452.934 1662.65 451.658 1658.38 450.673C1654.11 449.689 1649.08 449.226 1647.2 449.645C1643.42 450.489 1627.34 447.167 1627.34 445.543C1627.34 441.834 1642.14 441.552 1650.01 445.111C1652.94 446.44 1655.26 446.529 1661.47 445.551C1668.34 444.468 1669.78 444.601 1673.82 446.701C1676.33 448.007 1679.14 449.076 1680.05 449.076C1683.31 449.076 1693.22 452.957 1692.39 453.908C1691.92 454.441 1690.65 454.805 1689.57 454.716C1688.49 454.627 1682.77 454.084 1676.87 453.509ZM1973.22 447.916C1971.58 446.639 1970.97 445.595 1971.88 445.595C1972.79 445.595 1974.88 446.639 1976.52 447.916C1978.16 449.192 1978.77 450.236 1977.86 450.236C1976.95 450.236 1974.86 449.192 1973.22 447.916ZM1962.81 446.446C1961.87 445.652 1960.62 443.439 1960.04 441.528C1959.1 438.45 1959.2 438.318 1960.96 440.374C1962.06 441.65 1964.01 443.556 1965.3 444.61C1966.67 445.726 1967 446.81 1966.08 447.208C1965.22 447.583 1963.75 447.24 1962.81 446.446ZM1927.84 442.757L1923.74 441.161L1930.1 440.323C1933.6 439.862 1938.97 437.934 1942.04 436.038C1945.4 433.969 1947.62 433.22 1947.6 434.163C1947.57 436.522 1945.54 438.34 1939.36 441.539C1932.92 444.882 1933.22 444.85 1927.84 442.757ZM1618.15 438.239C1612.08 435.811 1601.14 426.416 1597.58 420.576C1595.66 417.426 1591.26 412.238 1587.8 409.047C1584.34 405.856 1580.36 401.68 1578.97 399.765C1577.57 397.851 1573.34 394.196 1569.56 391.643C1561.58 386.261 1556.68 380.606 1560.02 380.646C1564.35 380.699 1575.51 385.056 1580.29 388.565C1593.48 398.246 1596.19 399.969 1602.42 402.666C1608.43 405.269 1611.27 407.978 1611.56 411.368C1611.61 412.006 1613.32 413.833 1615.36 415.429C1617.39 417.024 1621.24 420.024 1623.89 422.096C1626.55 424.168 1629.21 427.401 1629.8 429.28C1631.72 435.43 1624.67 440.851 1618.15 438.239ZM1285.59 437.473C1285.59 436.835 1286.33 436.313 1287.24 436.313C1288.15 436.313 1288.89 436.835 1288.89 437.473C1288.89 438.112 1288.15 438.634 1287.24 438.634C1286.33 438.634 1285.59 438.112 1285.59 437.473ZM1722.26 437.463C1721.7 436.819 1721.69 435.277 1722.25 434.035C1722.81 432.792 1722.13 430.555 1720.73 429.056C1718.43 426.59 1718.45 426.073 1720.96 423.555C1722.49 422.026 1724.28 417.921 1724.96 414.432C1725.79 410.127 1727.43 407.212 1730.06 405.36C1733.67 402.828 1734.57 402.716 1742.67 403.795C1749.63 404.722 1752.36 404.608 1756.15 403.232C1762.49 400.928 1762.95 401.031 1760.85 404.278C1758.17 408.406 1752.82 409.725 1747.18 407.649C1737.12 403.942 1723.76 409.451 1730.81 414.404C1733.4 416.225 1734.83 416.39 1739.63 415.423C1747.85 413.765 1751.1 414.07 1745.99 416.02C1740.21 418.228 1739.11 420.677 1742.09 424.726C1743.44 426.569 1744.55 429.426 1744.55 431.075C1744.55 433.716 1744.16 433.926 1741.25 432.831C1739.43 432.148 1736.81 429.679 1735.42 427.346C1732.92 423.135 1732.88 423.12 1729.67 425.372C1726.86 427.347 1726.67 428.224 1728.21 432.137C1729.6 435.674 1729.51 436.844 1727.77 437.616C1724.86 438.915 1723.5 438.878 1722.26 437.463H1722.26ZM1948.78 431.275C1947.22 429.605 1943.66 427.407 1940.86 426.39C1938.06 425.372 1936.14 424.278 1936.59 423.959C1939.16 422.155 1953.48 430.349 1952.26 432.924C1951.89 433.714 1950.39 433.006 1948.78 431.275ZM1689.51 427.413C1687.02 426.496 1683.67 426.039 1682.06 426.399C1677.95 427.315 1661.64 424.981 1660.02 423.247C1658.73 421.866 1654.95 413.365 1652.93 407.307C1652.37 405.641 1652.93 403.479 1654.23 402.229C1656.12 400.414 1657.09 400.277 1660.09 401.402C1663.24 402.59 1663.91 402.387 1665.65 399.716C1666.73 398.045 1670.33 395.703 1673.66 394.512C1677.18 393.25 1680.56 390.888 1681.76 388.854C1683.14 386.51 1685.66 384.934 1689.44 384.058C1692.54 383.34 1697.01 380.968 1699.37 378.786C1701.74 376.605 1704.56 374.82 1705.63 374.82C1706.71 374.82 1709.97 376.543 1712.87 378.65L1718.16 382.48L1713.92 386.481C1709.11 391.027 1709.36 394.937 1714.81 400.317L1718.11 403.573L1714 405.467C1711.74 406.508 1709.89 408.001 1709.9 408.784C1709.91 411.441 1699.33 426.759 1696.68 427.923C1694.83 428.733 1692.69 428.58 1689.51 427.413ZM1785.42 427.392C1782.01 426.764 1781.53 424.711 1784.8 424.711C1786.05 424.711 1789.55 425.058 1792.57 425.483C1797.22 426.137 1797.57 426.391 1794.84 427.142C1791.25 428.127 1789.66 428.17 1785.42 427.392ZM2048.34 412.596C2048.34 412.315 2049.08 411.762 2049.99 411.368C2050.9 410.973 2051.64 411.204 2051.64 411.879C2051.64 412.555 2050.9 413.108 2049.99 413.108C2049.08 413.108 2048.34 412.878 2048.34 412.596ZM1779.64 409.45C1778.32 408.522 1778.24 407.447 1779.38 405.945C1780.29 404.753 1780.59 403.278 1780.06 402.666C1778.57 400.973 1782.3 396.865 1785.32 396.865C1787.75 396.865 1787.74 397.064 1785.22 399.023C1783.04 400.717 1782.79 401.838 1784.09 404.234C1786.71 409.078 1783.86 412.417 1779.64 409.45H1779.64ZM950.446 405.635C950.446 405.354 951.189 404.801 952.097 404.406C953.005 404.012 953.748 404.242 953.748 404.918C953.748 405.594 953.005 406.147 952.097 406.147C951.189 406.147 950.446 405.916 950.446 405.635ZM2095.39 402.666C2094.83 402.028 2095.16 401.506 2096.12 401.506C2097.08 401.506 2097.87 402.028 2097.87 402.666C2097.87 403.304 2097.54 403.826 2097.14 403.826C2096.74 403.826 2095.95 403.304 2095.39 402.666ZM960.352 391.712C960.352 391.43 961.095 390.877 962.003 390.483C962.911 390.089 963.654 390.319 963.654 390.995C963.654 391.671 962.911 392.223 962.003 392.223C961.095 392.223 960.352 391.993 960.352 391.712ZM1754.48 374.267C1751.33 369.105 1750.91 368.873 1746.07 369.621C1741.24 370.366 1741.07 370.275 1742.88 367.898C1744.38 365.93 1745.77 365.539 1749.32 366.088C1752.74 366.616 1754.93 366.082 1758.28 363.897C1760.72 362.308 1762.74 360.069 1762.76 358.922C1762.81 355.993 1768.94 365.814 1770.34 371.065C1771.4 375.052 1771.27 375.269 1768.69 373.767C1764.86 371.537 1761.17 373.85 1764.31 376.511C1765.57 377.573 1765.73 378.3 1764.71 378.3C1763.76 378.3 1761.82 378.616 1760.39 379.001C1758.48 379.518 1756.93 378.277 1754.48 374.267ZM1453.46 376.317C1451.62 374.21 1450.57 364.755 1451.9 362.247C1453.32 359.586 1453.42 359.618 1457.63 363.987C1462.67 369.223 1464.28 372.58 1462.62 374.373C1461.03 376.089 1454.48 377.479 1453.46 376.317ZM1822.16 370.316C1822.16 369.677 1822.9 368.833 1823.81 368.438C1824.71 368.044 1825.46 368.243 1825.46 368.881C1825.46 369.52 1824.71 370.364 1823.81 370.759C1822.9 371.153 1822.16 370.954 1822.16 370.316ZM2081.36 370.179C2081.36 369.541 2081.68 369.018 2082.09 369.018C2082.49 369.018 2083.27 369.541 2083.83 370.179C2084.39 370.817 2084.07 371.339 2083.11 371.339C2082.14 371.339 2081.36 370.817 2081.36 370.179ZM1706.59 363.475C1706.59 362.979 1709.9 359.977 1713.94 356.804C1719.87 352.154 1721.31 351.497 1721.37 353.418C1721.41 354.729 1718.93 357.732 1715.86 360.09C1710.65 364.088 1706.59 365.571 1706.59 363.475ZM1742.35 360.38C1741.75 359.278 1741.87 357.605 1742.62 356.663C1743.78 355.202 1744.27 355.188 1745.89 356.567C1747.35 357.803 1747.29 358.683 1745.62 360.284C1743.58 362.251 1743.37 362.257 1742.35 360.379V360.38ZM478.053 355.859C479.065 355.002 479.403 353.958 478.806 353.538C478.208 353.118 479.26 352.775 481.142 352.775C483.752 352.775 484.359 353.326 483.701 355.095C483.2 356.443 481.449 357.416 479.526 357.416C476.943 357.416 476.619 357.073 478.053 355.859ZM1753.42 355.551C1752.81 354.343 1752.01 352.963 1751.64 352.485C1751.27 352.006 1751.67 351.615 1752.53 351.615C1754.17 351.615 1756.49 356.379 1755.27 357.241C1754.87 357.52 1754.04 356.76 1753.42 355.551ZM1736.69 352.524C1734.38 350.561 1736.64 347.766 1740.1 348.31C1742.28 348.651 1742.36 349.133 1740.61 351.403C1738.93 353.593 1738.2 353.801 1736.69 352.524ZM1756.21 348.537C1754.32 346.844 1753.04 345.265 1753.38 345.029C1754.72 344.086 1759.37 346.163 1761.83 348.811C1765.63 352.884 1760.82 352.648 1756.21 348.537ZM1729.07 344.045C1727.6 343.012 1726.4 341.566 1726.4 340.832C1726.4 340.097 1728.03 340.642 1730.02 342.042C1732.02 343.443 1733.22 344.889 1732.7 345.256C1732.17 345.623 1730.54 345.078 1729.07 344.045ZM433.143 343.88C432.538 343.454 432.043 342.567 432.043 341.907C432.043 341.18 432.812 341.249 433.996 342.081C435.071 342.836 435.566 343.724 435.097 344.054C434.628 344.383 433.749 344.305 433.143 343.88ZM423.788 342.332C423.788 341.694 424.116 341.172 424.516 341.172C424.916 341.172 425.703 341.694 426.264 342.332C426.826 342.971 426.498 343.493 425.536 343.493C424.575 343.493 423.788 342.971 423.788 342.332ZM501.383 340.012C501.383 339.374 501.711 338.852 502.111 338.852C502.512 338.852 503.299 339.374 503.86 340.012C504.421 340.65 504.093 341.172 503.132 341.172C502.17 341.172 501.383 340.65 501.383 340.012ZM1745.68 339.835C1744.02 339.179 1740.89 338.957 1738.71 339.342C1735.51 339.905 1733.31 339.002 1727.32 334.675C1718.87 328.562 1717.22 325.985 1719.7 322.728C1720.66 321.47 1721.45 318.87 1721.45 316.952C1721.45 310.654 1727.45 310.908 1731.85 317.393C1734.29 320.985 1734.3 321.757 1732.01 325.61C1729.54 329.759 1729.59 329.943 1733.99 333.171C1737.17 335.502 1739.56 336.293 1742.07 335.85C1744.19 335.476 1746.48 335.94 1747.73 336.998C1750.7 339.515 1749.4 341.312 1745.68 339.835H1745.68ZM491.478 332.539C491.478 332.257 492.221 331.704 493.129 331.31C494.037 330.916 494.779 331.146 494.779 331.822C494.779 332.498 494.037 333.05 493.129 333.05C492.221 333.05 491.478 332.82 491.478 332.539ZM750.679 328.409C750.679 327.771 751.422 327.249 752.33 327.249C753.238 327.249 753.981 327.771 753.981 328.409C753.981 329.048 753.238 329.57 752.33 329.57C751.422 329.57 750.679 329.048 750.679 328.409ZM486.525 323.905C486.525 323.267 487.268 322.422 488.176 322.028C489.084 321.634 489.827 321.833 489.827 322.471C489.827 323.109 489.084 323.954 488.176 324.349C487.268 324.743 486.525 324.543 486.525 323.905ZM472.503 319.141C471.925 318.483 472.588 318.288 474.057 318.685C476.917 319.456 477.44 320.288 475.065 320.288C474.211 320.288 473.058 319.771 472.503 319.141ZM734.995 319.127C734.434 318.489 734.761 317.967 735.723 317.967C736.685 317.967 737.471 318.489 737.471 319.127C737.471 319.766 737.144 320.288 736.743 320.288C736.343 320.288 735.556 319.766 734.995 319.127ZM479.095 316.807C478.534 316.169 478.862 315.647 479.823 315.647C480.785 315.647 481.572 316.169 481.572 316.807C481.572 317.445 481.244 317.967 480.844 317.967C480.443 317.967 479.657 317.445 479.095 316.807ZM486.525 316.807C486.525 316.169 486.852 315.647 487.253 315.647C487.653 315.647 488.44 316.169 489.001 316.807C489.562 317.445 489.235 317.967 488.273 317.967C487.311 317.967 486.525 317.445 486.525 316.807ZM373.021 313.718C371.886 313.396 370.957 312.654 370.957 312.069C370.957 310.396 378.245 310.827 381.786 312.709C384.83 314.327 384.743 314.41 380.037 314.358C377.313 314.328 374.156 314.04 373.021 313.718ZM414.797 313.06C413.317 312.477 410.045 312.319 407.528 312.707C405.011 313.096 401.139 312.904 398.923 312.282C395.362 311.281 395.677 311.162 401.649 311.261C410.427 311.405 412.77 310.4 410.527 307.454C408.934 305.364 409.413 305.204 417.289 305.204C424.908 305.204 435.899 307.66 437.762 309.778C439.001 311.187 417.754 314.223 414.797 313.06ZM446.466 313.793C444.509 312.418 446.941 311.006 451.264 311.006C453.86 311.006 455.175 311.553 454.752 312.456C453.991 314.08 448.203 315.014 446.466 313.793ZM1640.9 311.948C1636.53 308.876 1640.86 305.204 1648.85 305.204C1652.39 305.204 1652.39 305.225 1649.35 308.882C1645.81 313.145 1643.7 313.913 1640.9 311.948ZM460.109 311.71C460.109 311.459 461.224 310.953 462.586 310.586C463.948 310.219 465.062 310.424 465.062 311.042C465.062 311.66 463.948 312.166 462.586 312.166C461.224 312.166 460.109 311.961 460.109 311.71ZM388.741 303.393C388.232 303.035 384.747 302.712 380.997 302.676C375.823 302.625 374.582 302.268 375.851 301.193C377.078 300.155 375.317 298.772 369.247 296.008C357.347 290.589 350.702 289.53 342.707 291.778C335.21 293.886 334.636 293.946 334.636 292.618C334.636 290.189 347.775 287.518 357.237 288.024C366.285 288.507 371.352 289.861 389.118 296.54C403.721 302.031 403.737 302.041 399.023 302.986C393.671 304.058 389.901 304.208 388.741 303.393ZM400.674 293.602C403.875 292.148 405.627 292.148 405.627 293.602C405.627 294.24 403.956 294.754 401.913 294.744C398.909 294.73 398.672 294.511 400.674 293.602ZM1715.5 291.544C1714.5 291.08 1712.79 289.5 1711.69 288.032C1710.03 285.818 1710.2 284.744 1712.69 281.743C1716.54 277.11 1719.14 276.531 1720.39 280.031C1721.71 283.713 1717.91 292.66 1715.5 291.544ZM411.514 289.998C412.616 288.744 418.836 288.603 418.834 289.831C418.833 290.31 416.981 290.776 414.717 290.868C412.454 290.96 411.012 290.568 411.514 289.998ZM378.867 278.816C376.227 276.686 376.611 273.877 379.542 273.877C380.48 273.877 380.869 274.897 380.405 276.142C379.942 277.388 380.412 278.622 381.451 278.884C382.49 279.146 382.901 279.697 382.366 280.107C381.831 280.517 380.256 279.936 378.867 278.816ZM388.457 269.701C387.87 268.624 387.76 267.483 388.214 267.164C388.668 266.845 389.521 267.464 390.108 268.54C390.696 269.616 390.805 270.758 390.351 271.077C389.897 271.396 389.045 270.777 388.457 269.701ZM378.111 268.656C378.111 267.699 379.526 266.916 381.256 266.916C384.051 266.916 384.126 267.109 381.924 268.656C380.562 269.614 379.147 270.397 378.78 270.397C378.412 270.397 378.111 269.614 378.111 268.656ZM1762.72 243.22C1762.72 242.311 1760.92 240.062 1758.71 238.221C1753.48 233.851 1755.33 230.934 1761.53 233.787C1765.99 235.838 1768.31 240.029 1766.67 243.039C1765.42 245.321 1762.72 245.445 1762.72 243.22ZM481.572 236.238C481.572 235.956 482.315 235.403 483.223 235.009C484.131 234.615 484.874 234.845 484.874 235.521C484.874 236.196 484.131 236.749 483.223 236.749C482.315 236.749 481.572 236.519 481.572 236.238ZM1771.92 234.812C1770.85 232.851 1773.38 230.998 1777.17 230.966C1779.79 230.943 1779.84 233.537 1777.25 235.357C1774.56 237.249 1773.18 237.107 1771.92 234.812ZM1787.01 230.576C1783.8 227.138 1779.27 226.666 1768.91 228.69C1764.69 229.512 1761.79 229.521 1759.83 228.718C1758.24 228.069 1757.81 227.522 1758.88 227.503C1759.95 227.483 1763.06 226.144 1765.79 224.526C1769.32 222.439 1771.91 221.786 1774.69 222.278C1777.65 222.799 1780.84 221.802 1787.55 218.259C1800.61 211.362 1801.79 209.187 1796.48 201.818C1791.38 194.744 1792.8 192.467 1800.35 195.604C1805.86 197.888 1811.04 204.428 1809.53 207.186C1808.99 208.179 1809.8 211.293 1811.33 214.108C1813.49 218.091 1813.7 219.765 1812.25 221.661C1810.13 224.446 1804.23 226.307 1797.52 226.307C1793.76 226.307 1792.64 226.985 1791.41 229.996L1789.91 233.685L1787.01 230.576V230.576ZM1118.18 226.616C1116.21 225.231 1117.26 223.986 1120.4 223.986C1122.16 223.986 1124.06 223.464 1124.62 222.826C1126.16 221.081 1128.77 221.432 1127.78 223.249C1126.76 225.115 1119.62 227.622 1118.18 226.616ZM1061.89 224.609L1056.93 223.015L1063.54 222.936C1071.76 222.839 1077.82 223.923 1076.63 225.279C1075.3 226.789 1067.57 226.438 1061.89 224.609ZM995.193 213.034C988.585 210.657 988.274 210.361 991.724 209.727C995.855 208.967 1005 209.912 1004.81 211.079C1004.75 211.477 1004.19 212.668 1003.57 213.725C1002.56 215.462 1001.76 215.396 995.193 213.034ZM962.102 200.482C960.673 197.601 960.785 196.499 962.642 195.194C965.999 192.835 968.607 194.493 968.607 198.985C968.607 204.292 964.464 205.245 962.102 200.482ZM923.388 201.446C924.559 199.301 929.582 198.938 928.571 201.071C928.194 201.869 926.648 202.69 925.138 202.896C923.222 203.157 922.693 202.718 923.388 201.446ZM1786.02 188.203C1783 185.22 1782.92 184.67 1785.15 182.431C1787.34 180.231 1787.33 179.572 1785.07 176.503C1781.36 171.456 1781.88 171.15 1788.32 174.603C1791.51 176.309 1797.79 178.473 1802.28 179.412C1811.57 181.35 1813.81 182.872 1808.97 183.952C1807.14 184.36 1805.65 185.452 1805.65 186.378C1805.65 187.64 1804.51 187.858 1801.11 187.246C1792.4 185.68 1789.92 186.063 1790.48 188.889C1791.16 192.352 1790.05 192.181 1786.02 188.203H1786.02ZM964.754 189.566C962.839 188.22 963.561 185.971 966.13 185.279C967.919 184.796 968.607 185.406 968.607 187.475C968.607 190.26 966.99 191.137 964.754 189.566ZM1775.54 165.104C1774.14 163.987 1770.77 159.939 1768.04 156.109C1765.32 152.279 1758.11 145.246 1752.03 140.479C1745.24 135.154 1741.78 131.623 1743.07 131.321C1744.23 131.05 1746.71 132.263 1748.58 134.017C1753.12 138.268 1758.72 141.959 1767.54 146.53C1774.86 150.319 1778.48 153.826 1773.76 152.553C1768.31 151.085 1769.67 154.569 1776.72 160.143C1780.82 163.392 1784.18 166.295 1784.18 166.593C1784.18 168.004 1777.8 166.904 1775.54 165.104ZM567.422 163.073C567.422 162.116 568.142 161.333 569.021 161.333C569.901 161.333 570.193 162.116 569.67 163.073C569.147 164.03 568.428 164.813 568.071 164.813C567.714 164.813 567.422 164.03 567.422 163.073ZM558.795 159.329L552.644 158.876L564.218 150.822C570.584 146.393 576.624 142.769 577.641 142.769C578.714 142.769 578.393 143.621 576.875 144.8C573.438 147.469 575.781 150.467 582.062 151.437C584.804 151.86 587.537 153.337 588.594 154.966C590.289 157.581 590.001 157.847 584.282 158.963C578.281 160.135 571.117 160.237 558.795 159.329ZM156.506 151.005C150.787 147.251 150.149 145.669 153.942 144.646C157.338 143.73 163.607 146.716 165.983 150.381C168.476 154.227 168.432 154.371 164.761 154.371C163.041 154.371 159.326 152.856 156.506 151.005ZM883.582 145.11C885.398 144.481 888.972 143.436 891.523 142.789C897.146 141.363 896.214 139.845 889.103 138.846C884.224 138.16 884.053 137.986 886.844 136.551C888.505 135.697 889.381 134.448 888.789 133.776C888.184 133.088 889.882 132.021 892.664 131.339C895.387 130.672 897.615 129.611 897.615 128.981C897.615 126.302 894.174 121.793 892.262 121.969C887.854 122.373 885.813 121.827 886.523 120.434C886.93 119.636 886.595 118.07 885.777 116.953C883.652 114.049 888.535 108.044 893.075 107.979C893.756 107.97 894.127 108.601 893.9 109.384C893.673 110.166 895.231 110.992 897.363 111.22L901.237 111.633L897.535 114.402L893.833 117.172L898.006 118.287C902.486 119.484 906.804 123.384 911.201 130.204C913.307 133.471 914.692 134.325 917.151 133.873C922.196 132.946 922.795 135.349 918.061 137.529C914.855 139.005 914.246 139.837 915.651 140.824C917.055 141.811 914.286 142.474 904.683 143.448C897.618 144.164 889.236 145.089 886.058 145.503C881.638 146.078 881.056 145.986 883.582 145.11ZM855.74 138.701C855.175 137.667 855.82 135.317 857.172 133.479C858.724 131.37 859.024 129.874 857.986 129.423C855.125 128.18 856.198 126.595 860.401 125.853C862.634 125.459 865.325 124.405 866.381 123.511C868.581 121.648 878.751 121.305 880.278 123.042C880.838 123.679 880.139 125.362 878.725 126.781C877.31 128.201 876.153 130.75 876.153 132.447C876.153 135.034 875.021 135.808 869.136 137.244C865.277 138.185 860.915 139.321 859.443 139.768C857.717 140.293 856.402 139.914 855.74 138.701ZM886.058 127.174C886.058 126.892 886.801 126.339 887.709 125.945C888.617 125.551 889.36 125.781 889.36 126.457C889.36 127.132 888.617 127.685 887.709 127.685C886.801 127.685 886.058 127.455 886.058 127.174ZM153.36 121.583C151.742 120.214 151.845 119.576 153.875 118.392C157.23 116.435 158.894 117.762 156.941 120.838C155.594 122.959 155.105 123.061 153.36 121.583ZM150.778 112.857C150.22 112.223 150.87 111.06 152.222 110.271C154.907 108.705 155.467 109.933 153.211 112.436C152.349 113.392 151.393 113.558 150.778 112.857ZM44.0659 112.117C44.0659 111.301 49.072 109.874 56.1737 108.665C58.8659 108.206 60.4576 108.317 59.9227 108.925C59.4115 109.506 56.9348 110.274 54.4188 110.631C51.9028 110.987 48.5441 111.633 46.9551 112.065C45.366 112.497 44.0659 112.52 44.0659 112.117V112.117ZM1025.15 99.0708C1022.11 98.2071 1022.65 96.8757 1026.12 96.692C1027.78 96.6039 1029.14 97.276 1029.14 98.1855C1029.14 99.913 1028.57 100.04 1025.15 99.0708ZM662.352 93.1406C651.905 89.1367 646.911 82.9851 649.938 77.8489C651.371 75.4182 651.415 73.8897 650.101 72.1646C647.367 68.5746 650.934 64.3675 660.056 60.423C664.388 58.5495 668.714 55.9911 669.669 54.7377C672.313 51.265 669.958 45.3139 665.356 43.8402C663.026 43.0944 661.759 41.915 662.273 40.9725C663.446 38.8261 657.949 31.4952 652.474 27.9034C648.445 25.2598 646.712 24.9966 632.915 24.9331C614.127 24.8466 610.627 24.1126 610.938 20.3241C611.067 18.7503 611.564 17.4624 612.041 17.4619C612.519 17.4615 619.206 16.9169 626.9 16.2518C636.725 15.4025 645.533 13.651 656.483 10.3692C673.438 5.28804 674.729 5.18875 715.183 5.85698C727.958 6.068 739.71 5.4036 754.807 3.61687C768.866 1.95295 779.211 1.32571 784.797 1.79848C789.543 2.20018 796.415 1.93523 800.295 1.20102C809.299 -0.502814 832.692 1.54673 841.893 4.8455C847.332 6.7957 850.21 7.05322 859.389 6.41104C869.303 5.71737 870.052 5.80862 867.072 7.34673C865.256 8.2841 859.684 9.42913 854.69 9.89126C843.853 10.8941 833.895 16.3223 836.534 19.7882C837.673 21.2833 836.856 22.5594 833.176 25.0377C830.501 26.8385 827.921 29.1788 827.443 30.2382C826.293 32.7834 811.697 37.5203 804.46 37.697C796.422 37.8931 795.582 39.094 801.798 41.5001C804.735 42.6368 809.021 44.5736 811.324 45.8041L815.51 48.0413L811.725 49.0253C808.824 49.7796 806.47 49.2933 801.642 46.942C795.091 43.7512 788.041 43.7351 791.802 46.9196C793.269 48.1615 792.916 48.6439 790.171 49.1483C784.036 50.2758 788.375 52.5055 795.142 51.7021C799.448 51.1908 801.87 51.4603 803.217 52.6006C804.819 53.9574 802.729 54.5856 790.705 56.3618C782.765 57.5346 772.183 58.5371 767.189 58.5895C757.911 58.687 751.225 60.5587 741.39 65.8122C738.183 67.5252 731.367 69.2229 723.392 70.2953C706.722 72.5367 701.089 75.1288 691.046 85.1798C682.978 93.2528 678.114 96.2617 673.084 96.2902C671.722 96.2981 666.893 94.8806 662.352 93.1406ZM545.291 85.3807C541.746 83.8497 537.401 80.9943 535.636 79.0355C532.191 75.2112 529.014 74.7253 519.713 76.6001C516.564 77.2347 513.03 77.2959 511.618 76.7402C506.729 74.8174 515.559 72.9264 525.394 73.79C532.874 74.4467 534.536 74.2596 535.408 72.6622C537.16 69.4527 545.181 67.1526 549.641 68.5807C552.386 69.4598 554.882 69.4352 558.388 68.4947C563.106 67.2293 563.171 67.1151 560.09 65.525C558.327 64.6154 556.315 63.8713 555.619 63.8713C554.923 63.8713 552.41 61.5405 550.034 58.6917C547.659 55.8429 543.206 52.4225 540.14 51.0907C534.929 48.8274 534.24 48.7876 529.579 50.4815C525.504 51.9623 523.15 52.066 516.703 51.0486C512.363 50.3638 506.304 50.1332 503.239 50.5361C497.92 51.235 488.176 49.4059 488.176 47.7087C488.176 44.5909 502.158 37.5937 510.464 36.555L517.067 35.7292L512.347 39.2637C505.835 44.1393 508.284 46.3831 515.355 42.02C518.355 40.1691 523.539 38.2949 526.875 37.855C531.973 37.1828 534.158 37.6212 540.559 40.6011C549.076 44.5659 549.733 44.6722 554.536 42.8656C557.429 41.7777 558.501 42.0765 561.642 44.845C563.815 46.7598 568.667 48.845 573.399 49.8971C580.939 51.5739 581.455 51.9386 581.455 55.5937C581.455 58.3346 582.58 60.0641 585.228 61.395C596.308 66.9635 596.066 66.7335 593.669 69.4314C590.381 73.1304 587.786 73.3985 580.511 70.7902C575.45 68.9756 573.239 68.7268 570.691 69.685C567.573 70.8576 567.54 71.1082 570.05 74.5189C572.109 77.318 572.297 78.7314 570.898 80.8903C569.173 83.5506 568.898 83.5917 564.215 81.8898C555.009 78.5439 548.809 80.7456 557.397 84.3109C560.088 85.428 561.915 86.7682 561.456 87.2893C559.857 89.1076 551.689 88.1431 545.291 85.3806V85.3807ZM884.407 86.883C884.407 86.3512 885.522 85.9161 886.884 85.9161C888.246 85.9161 889.36 86.3512 889.36 86.883C889.36 87.4148 888.246 87.8499 886.884 87.8499C885.522 87.8499 884.407 87.4148 884.407 86.883ZM483.042 80.6432C479.787 79.4407 477.26 79.3377 472.702 80.2222C464.952 81.726 462.242 80.6255 466.174 77.5717C471.209 73.6622 474.623 72.8934 480.695 74.3017C487.529 75.8868 490.562 78.2428 488.719 80.534C487.543 81.9947 486.742 82.0101 483.042 80.6432ZM810.939 80.1149C808.215 78.8561 804.748 78.1016 803.234 78.4381C801.149 78.9016 800.687 78.4993 801.327 76.7794C802.309 74.1398 816.815 70.3298 821.718 71.4236C823.428 71.8049 827.798 71.4914 831.429 70.7268C837.129 69.5266 838.64 69.6174 842.494 71.3919L846.957 73.447L842.981 75.6243C839.626 77.462 833.402 79.0565 818.369 81.9302C817.007 82.1905 813.663 81.3736 810.939 80.1149ZM362.702 58.4558C360.432 58.2037 354.902 56.839 350.413 55.4231L342.252 52.8489L353.715 52.2687C360.02 51.9497 365.179 51.1665 365.179 50.5284C365.179 49.8902 360.721 49.0883 355.273 48.7462C348.08 48.2946 346.723 47.977 350.32 47.586C356.342 46.9314 356.776 45.0985 351.145 44.0991C347.091 43.3795 347.121 43.3356 352.824 41.6086C362.708 38.6157 373.236 38.0423 382.564 39.9891C390.222 41.5874 391.419 41.5806 395.03 39.9179C397.583 38.7421 399.098 38.5454 399.23 39.3725C399.343 40.084 399.529 41.2753 399.643 42.0198C400.026 44.5334 403.319 44.2081 407.249 41.2686C410.886 38.5473 417.192 37.2437 417.178 39.2159C417.175 39.6945 415.706 41.7758 413.914 43.8409L410.656 47.5958L415.984 49.5491L421.312 51.5024L412.564 54.3083C404.67 56.8403 403.051 56.9852 395.976 55.7923C389.115 54.6357 387.147 54.768 380.235 56.8504C372.427 59.2023 370.781 59.3531 362.702 58.4558ZM428.916 57.6384C427.425 56.3757 428.041 55.7542 431.894 54.6325C434.577 53.8516 438.425 53.5913 440.486 54.0512C444.062 54.8488 443.98 54.9742 438.544 57.0086C431.61 59.604 431.264 59.6266 428.916 57.6384ZM884.407 52.2687C887.608 50.815 889.36 50.815 889.36 52.2687C889.36 52.9069 887.689 53.421 885.646 53.4112C882.642 53.3969 882.405 53.1782 884.407 52.2687ZM1187.36 49.0498C1178.92 46.7067 1179.09 46.8348 1181.55 44.7551C1182.7 43.7825 1182.99 42.9701 1182.2 42.9498C1181.4 42.9295 1182.24 42.1239 1184.06 41.1595C1185.87 40.1951 1187.37 39.037 1187.39 38.5858C1187.45 36.8697 1194.17 32.3441 1198.92 30.8233C1201.64 29.9511 1208.7 28.968 1214.6 28.6387C1220.5 28.3094 1228.41 27.706 1232.17 27.298C1236.17 26.8636 1239.43 27.0412 1240.03 27.7263C1241.21 29.0573 1238.97 29.6231 1226.16 31.241C1213.44 32.8464 1205.8 35.3481 1200.76 39.5525C1195.46 43.9816 1195.28 46.7782 1200.15 49.1657L1203.87 50.9868L1198.92 50.9349C1196.19 50.9064 1190.99 50.0581 1187.36 49.0498V49.0498ZM322.674 45.6857C320.012 43.8145 320.619 43.4072 333.393 38.4926C348.36 32.7343 355.881 31.9699 369.306 34.8424L376.735 36.4321L366.83 37.8124C358.728 38.9414 341.56 42.976 328.003 46.9371C326.62 47.3412 324.232 46.7805 322.674 45.6857ZM441.949 44.184C441.949 43.5663 439.906 42.2367 437.408 41.2295L432.868 39.3981L438.947 40.0699C443.267 40.5473 445.417 40.2629 446.377 39.0876C447.518 37.6897 458.026 34.8926 462.215 34.8714C462.92 34.8675 462.345 36.4295 460.938 38.3417C457.624 42.8456 441.949 47.6682 441.949 44.184ZM467.653 40.7963C465.288 38.1066 481.442 33.9432 488.305 35.4738C493.306 36.5894 489.963 38.5064 481.24 39.5255C477.336 39.9815 472.917 40.7214 471.42 41.1696C469.923 41.6179 468.228 41.4499 467.653 40.7963ZM520.369 32.2525C509.473 31.6434 500.355 31.0125 500.106 30.8505C498.63 29.8879 502.312 26.7544 506.275 25.6009C510.17 24.4667 511.966 24.6172 517.3 26.525C522.499 28.3846 525.85 28.6937 535.508 28.2045C542.018 27.8747 549.447 27.979 552.018 28.4362L556.691 29.2675L550.912 31.4374C547.734 32.6309 544.02 33.5517 542.657 33.4837C541.295 33.4156 531.266 32.8616 520.369 32.2525ZM995.481 27.5107C987.371 24.5928 986.588 23.2695 992.958 23.2446C995.456 23.2348 998.613 22.6635 999.975 21.9749C1002.12 20.8926 1002.09 20.8041 999.763 21.3219C998.285 21.6513 996.211 21.313 995.155 20.5708C993.694 19.5444 992.933 19.5626 991.98 20.6467C991.097 21.6504 989.285 21.7692 985.857 21.0479C977.151 19.2156 975.21 18.4022 975.21 16.5856C975.21 15.0468 977.393 14.9059 990.895 15.5729C1001.18 16.0808 1006.58 15.94 1006.58 15.164C1006.58 12.88 1011.16 14.0078 1012.37 16.5909L1013.6 19.2015L1014.33 16.5909C1014.73 15.1551 1016.13 13.9803 1017.42 13.9803C1018.72 13.9803 1019.79 13.3538 1019.79 12.588C1019.79 11.5051 1020.23 11.5051 1021.77 12.588C1022.92 13.3979 1028.44 13.9803 1034.98 13.9803C1046.78 13.9803 1049.55 15.4634 1041.68 17.5668C1037.59 18.6599 1030.47 18.3507 1022.68 16.7409C1021.09 16.4129 1019.79 16.5712 1019.8 17.0928C1019.81 18.1636 1029.08 22.1021 1031.59 22.1021C1032.49 22.1021 1034.27 22.8346 1035.55 23.7298C1037.53 25.1266 1037.52 25.4506 1035.43 26.0139C1034.09 26.3749 1032.99 26.1064 1032.99 25.4173C1032.99 24.6072 1030.89 24.4412 1027.05 24.9476C1022.89 25.496 1021.45 25.3455 1022.24 24.4458C1022.86 23.739 1022.47 22.4004 1021.38 21.4711C1019.26 19.6784 1013.18 19.1296 1013.18 20.7311C1013.18 21.2533 1010.77 23.5566 1007.82 25.8495L1002.45 30.0185L995.481 27.5106L995.481 27.5107ZM557.516 24.9582C554.654 23.7774 550.605 23.4354 544.308 23.8425C538.423 24.223 533.898 23.895 531.447 22.9101C528.069 21.5524 528.895 21.3976 539.206 21.4563C552.1 21.5297 557.762 19.59 550.779 17.4918C547.462 16.4951 547.946 16.4046 553.632 16.9582C561.055 17.6809 563.941 16.2832 559.896 13.9242C555.584 11.4087 560.326 10.6278 575.671 11.3265C585.167 11.7589 591.134 11.5164 593.573 10.599C598.246 8.84147 596.413 6.60425 591.071 7.54634C587.38 8.19744 561.762 7.12902 562.843 6.36907C563.616 5.82597 599.911 3.46366 623.742 2.40533C636.103 1.85638 649.848 1.09061 654.285 0.703624L662.352 0L649.035 4.49576C636.548 8.71083 616.243 12.8201 607.9 12.8201C605.87 12.8201 600.031 14.3864 594.927 16.3008C589.822 18.2153 584.621 19.7816 583.37 19.7816C582.119 19.7816 576.718 21.3413 571.369 23.2477C566.02 25.154 561.644 26.7019 561.644 26.6873C561.644 26.6728 559.786 25.8947 557.516 24.9582ZM525.322 14.3579C517.321 13.1137 517.028 12.6456 522.908 10.504C531.478 7.38219 539.589 6.58206 543.276 8.49454C546.195 10.0087 546.026 10.2427 540.292 12.6202C534.317 15.098 531.892 15.3795 525.322 14.3579Z" fill="url(#paint0_linear_165_1182)"/>
<defs>
<linearGradient id="paint0_linear_165_1182" x1="1092.5" y1="0" x2="1092.5" y2="696.773" gradientUnits="userSpaceOnUse">
<stop stop-color="white" stop-opacity="0"/>
<stop offset="0.477083" stop-color="white" stop-opacity="0.933333"/>
<stop offset="1" stop-color="white" stop-opacity="0"/>
</linearGradient>
</defs>
</svg>
