<svg width="41" height="41" viewBox="0 0 41 41" fill="none" xmlns="http://www.w3.org/2000/svg">
<path d="M20.6536 2.85171C20.6536 2.85171 30.8804 2.39441 36.3025 12.6373H19.7834C19.7834 12.6373 16.6659 12.5371 14.0029 16.3056C13.2379 17.8873 12.4156 19.5167 13.3384 22.7278C12.0091 20.4838 6.28125 10.5459 6.28125 10.5459C6.28125 10.5459 10.3213 3.25664 20.6534 2.85171H20.6536Z" fill="#EF3F36"/>
<path d="M35.773 28.8548C35.773 28.8548 31.0539 37.9114 19.4453 37.4635C20.8797 34.9909 27.7071 23.2093 27.7071 23.2093C27.7071 23.2093 29.3567 20.57 27.4107 16.3871C26.4209 14.934 25.4121 13.4143 22.161 12.6043C24.7764 12.5806 36.2751 12.6043 36.2751 12.6043C36.2751 12.6043 40.5828 19.7363 35.773 28.8548Z" fill="#FCD900"/>
<path d="M5.60711 28.9256C5.60711 28.9256 0.0943553 20.3263 6.29076 10.5312C7.72037 13.0039 14.5479 24.7856 14.5479 24.7856C14.5479 24.7856 16.0205 27.5298 20.6248 27.9393C22.3796 27.8108 24.2059 27.7012 26.5393 25.3049C25.2529 27.5727 19.4819 37.4821 19.4819 37.4821C19.4819 37.4821 11.1245 37.6345 5.60697 28.9256H5.60711Z" fill="#61BC5B"/>
<path d="M19.4375 37.5485L21.7611 27.887C21.7611 27.887 24.3143 27.6867 26.4564 25.3477C25.1271 27.6774 19.4375 37.5485 19.4375 37.5485Z" fill="#5AB055"/>
<path d="M12.8711 20.3068C12.8711 16.0478 16.3375 12.5938 20.6118 12.5938C24.8862 12.5938 28.3526 16.0478 28.3526 20.3068C28.3526 24.5659 24.8862 28.0198 20.6118 28.0198C16.3375 28.0151 12.8711 24.5659 12.8711 20.3068Z" fill="white"/>
<path d="M14.1641 20.3078C14.1641 16.7633 17.0472 13.8857 20.6092 13.8857C24.1664 13.8857 27.0543 16.7586 27.0543 20.3078C27.0543 23.8524 24.1713 26.73 20.6092 26.73C17.052 26.73 14.1641 23.8524 14.1641 20.3078Z" fill="url(#paint0_linear_327_3941)"/>
<path d="M36.2702 12.6089L26.703 15.4055C26.703 15.4055 25.2592 13.2949 22.1562 12.6089C24.848 12.5946 36.2702 12.6089 36.2702 12.6089Z" fill="#EACA05"/>
<path d="M13.1519 22.3744C11.8083 20.0542 6.28125 10.5449 6.28125 10.5449L13.367 17.5292C13.367 17.5292 12.6402 19.0204 12.9128 21.1547L13.1518 22.3744H13.1519Z" fill="#DF3A32"/>
<defs>
<linearGradient id="paint0_linear_327_3941" x1="20.6089" y1="13.9764" x2="20.6089" y2="26.3434" gradientUnits="userSpaceOnUse">
<stop stop-color="#86BBE5"/>
<stop offset="1" stop-color="#1072BA"/>
</linearGradient>
</defs>
</svg>
