<svg width="41" height="41" viewBox="0 0 41 41" fill="none" xmlns="http://www.w3.org/2000/svg">
<path d="M36.8398 13.6604C36.0851 11.8398 34.5555 9.87426 33.3547 9.25337C34.3321 11.174 34.8974 13.1004 35.1136 14.5378C35.1136 14.5378 35.1136 14.5479 35.1172 14.5667C33.1531 9.65909 29.8219 7.67979 27.1017 3.37129C26.9636 3.15394 26.8263 2.9366 26.6918 2.70404C26.6159 2.5729 26.5544 2.45409 26.5009 2.34179C26.3882 2.12394 26.3011 1.8937 26.2414 1.65571C26.2419 1.64441 26.2382 1.63333 26.231 1.62463C26.2237 1.61593 26.2136 1.61022 26.2024 1.60862C26.1917 1.60572 26.1805 1.60572 26.1699 1.60862C26.167 1.60993 26.1643 1.61163 26.1619 1.61369C26.1576 1.61369 26.1532 1.61876 26.1489 1.62021L26.1561 1.61079C21.792 4.17257 20.3115 8.91142 20.1756 11.2827C18.4317 11.4022 16.7642 12.0457 15.3907 13.1294C15.2472 13.0077 15.0971 12.894 14.9411 12.7889C14.5453 11.4002 14.5286 9.93057 14.8927 8.53324C13.1078 9.34828 11.7199 10.6342 10.7107 11.7724H10.7027C10.0138 10.898 10.0623 8.01378 10.1013 7.41173C10.0933 7.37406 9.58803 7.67472 9.52297 7.72037C8.91506 8.155 8.34681 8.64279 7.82488 9.17803C7.23095 9.78151 6.68834 10.4336 6.2027 11.1276C5.08539 12.7145 4.293 14.5076 3.87135 16.4033C3.8634 16.441 3.85617 16.4801 3.84822 16.5185C3.81569 16.6714 3.69786 17.4386 3.67689 17.6052V17.6436C3.52328 18.4364 3.42761 19.2393 3.39062 20.046V20.1351C3.39062 29.7505 11.169 37.5459 20.7633 37.5459C29.3564 37.5459 36.4907 31.2936 37.888 23.0809C37.917 22.8585 37.9408 22.6339 37.9668 22.4093C38.3124 19.423 37.9285 16.2845 36.8398 13.6604ZM16.8156 27.2894C16.8965 27.3278 16.9732 27.3706 17.0563 27.4082L17.0679 27.4155C16.9847 27.3749 16.9001 27.3329 16.8163 27.2894H16.8156ZM35.1186 14.5747V14.558V14.5769V14.5747Z" fill="url(#paint0_linear_327_3940)"/>
<path d="M36.8416 13.6609C36.0869 11.8403 34.5572 9.87479 33.3565 9.25391C34.3338 11.1745 34.8991 13.1009 35.1153 14.5383V14.5738C36.7548 19.0279 35.8613 23.5574 34.5746 26.3249C32.5837 30.6066 27.7641 34.9956 20.2193 34.7818C12.0744 34.55 4.89382 28.4853 3.55285 20.5486C3.30851 19.296 3.55285 18.6606 3.67574 17.6442C3.5261 18.4273 3.46899 18.6541 3.39453 20.0465V20.1357C3.39453 29.751 11.1729 37.5465 20.7672 37.5465C29.3603 37.5465 36.4946 31.2942 37.8919 23.0814C37.9209 22.859 37.9447 22.6344 37.9707 22.4098C38.3141 19.4235 37.9303 16.285 36.8416 13.6609Z" fill="url(#paint1_radial_327_3940)"/>
<path d="M36.8416 13.6609C36.0869 11.8403 34.5572 9.87479 33.3565 9.25391C34.3338 11.1745 34.8991 13.1009 35.1153 14.5383V14.5738C36.7548 19.0279 35.8613 23.5574 34.5746 26.3249C32.5837 30.6066 27.7641 34.9956 20.2193 34.7818C12.0744 34.55 4.89382 28.4853 3.55285 20.5486C3.30851 19.296 3.55285 18.6606 3.67574 17.6442C3.5261 18.4273 3.46899 18.6541 3.39453 20.0465V20.1357C3.39453 29.751 11.1729 37.5465 20.7672 37.5465C29.3603 37.5465 36.4946 31.2942 37.8919 23.0814C37.9209 22.859 37.9447 22.6344 37.9707 22.4098C38.3141 19.4235 37.9303 16.285 36.8416 13.6609Z" fill="url(#paint2_radial_327_3940)"/>
<path d="M28.398 15.7079C28.4363 15.7347 28.4703 15.7615 28.5065 15.7883C28.0704 15.0124 27.5272 14.3022 26.893 13.6786C21.4929 8.26669 25.4775 1.94339 26.1491 1.62172L26.1563 1.6123C21.7922 4.17408 20.3117 8.91293 20.1758 11.2842C20.3782 11.2704 20.5799 11.253 20.7859 11.253C24.0426 11.253 26.8792 13.0483 28.398 15.7079Z" fill="url(#paint3_radial_327_3940)"/>
<path d="M20.796 16.788C20.7678 17.2226 19.241 18.7151 18.7068 18.7151C13.7665 18.7151 12.9648 21.7101 12.9648 21.7101C13.1817 24.2328 14.9355 26.3099 17.0572 27.4089C17.154 27.4589 17.2516 27.5038 17.3463 27.5487C17.5162 27.6212 17.6868 27.6936 17.8567 27.7581C18.5843 28.0153 19.3463 28.1618 20.1172 28.1928C28.7761 28.5999 30.4546 17.8167 24.2052 14.6855C25.805 14.4066 27.4662 15.0521 28.3937 15.7049C26.8756 13.0453 24.0382 11.25 20.7815 11.25C20.5755 11.25 20.3738 11.2674 20.1714 11.2812C18.4288 11.4022 16.7629 12.0464 15.3909 13.13C15.6562 13.3554 15.9555 13.6553 16.5851 14.2769C17.7663 15.4448 20.7895 16.6467 20.796 16.788Z" fill="url(#paint4_radial_327_3940)"/>
<path d="M20.796 16.788C20.7678 17.2226 19.241 18.7151 18.7068 18.7151C13.7665 18.7151 12.9648 21.7101 12.9648 21.7101C13.1817 24.2328 14.9355 26.3099 17.0572 27.4089C17.154 27.4589 17.2516 27.5038 17.3463 27.5487C17.5162 27.6212 17.6868 27.6936 17.8567 27.7581C18.5843 28.0153 19.3463 28.1618 20.1172 28.1928C28.7761 28.5999 30.4546 17.8167 24.2052 14.6855C25.805 14.4066 27.4662 15.0521 28.3937 15.7049C26.8756 13.0453 24.0382 11.25 20.7815 11.25C20.5755 11.25 20.3738 11.2674 20.1714 11.2812C18.4288 11.4022 16.7629 12.0464 15.3909 13.13C15.6562 13.3554 15.9555 13.6553 16.5851 14.2769C17.7663 15.4448 20.7895 16.6467 20.796 16.788Z" fill="url(#paint5_radial_327_3940)"/>
<path d="M14.5838 12.5524C14.7248 12.6437 14.8404 12.7205 14.9452 12.7908C14.5494 11.4021 14.5327 9.93249 14.8968 8.53516C13.112 9.3502 11.724 10.6362 10.7148 11.7743C10.7965 11.7722 13.3166 11.7265 14.5838 12.5524Z" fill="url(#paint6_radial_327_3940)"/>
<path d="M3.55324 20.5493C4.89422 28.4861 12.0748 34.5507 20.2254 34.7825C27.7703 34.9963 32.587 30.6073 34.5807 26.3256C35.8675 23.5574 36.761 19.0286 35.1215 14.5745V14.5412C35.1215 14.5455 35.1215 14.5513 35.1251 14.5702C35.741 18.6034 33.6945 22.5105 30.4949 25.1527C30.4916 25.1601 30.4885 25.1676 30.4855 25.1752C24.2505 30.2632 18.2845 28.2448 17.0765 27.4211C16.9926 27.3805 16.9081 27.3385 16.8242 27.295C13.1887 25.5562 11.6873 22.2345 12.009 19.388C8.94028 19.388 7.89352 16.7929 7.89352 16.7929C7.89352 16.7929 10.6492 14.8237 14.281 16.5364C17.6447 18.123 20.8038 16.7936 20.8038 16.7929C20.7973 16.6516 17.7741 15.4461 16.595 14.2818C15.9654 13.6602 15.6661 13.3603 15.4008 13.135C15.2573 13.0133 15.1072 12.8996 14.9512 12.7944C14.8478 12.722 14.7343 12.6495 14.5897 12.5561C13.3225 11.7302 10.8025 11.7758 10.7193 11.778H10.7114C10.0225 10.9035 10.0709 8.01937 10.1099 7.41732C10.102 7.37965 9.59667 7.68031 9.53161 7.72595C8.9237 8.16058 8.35545 8.64838 7.83352 9.18361C7.23959 9.78709 6.69698 10.4392 6.21134 11.1332C5.09403 12.7201 4.30164 14.5132 3.87999 16.4089C3.86626 16.4422 3.24818 19.1467 3.55324 20.5493Z" fill="url(#paint7_radial_327_3940)"/>
<path d="M26.8945 13.6771C27.5288 14.3006 28.072 15.0109 28.508 15.7868C28.5984 15.8548 28.6852 15.9273 28.7682 16.0041C32.7066 19.6381 30.6463 24.7827 30.4895 25.1522C33.689 22.51 35.7355 18.6028 35.1196 14.5696C33.1555 9.65909 29.8244 7.6798 27.1041 3.37129C26.9661 3.15394 26.8287 2.9366 26.6943 2.70404C26.6183 2.5729 26.5569 2.45409 26.5034 2.34179C26.3907 2.12394 26.3036 1.8937 26.2439 1.65571C26.2444 1.64441 26.2406 1.63333 26.2334 1.62463C26.2262 1.61593 26.216 1.61022 26.2049 1.60862C26.1942 1.60572 26.183 1.60572 26.1723 1.60862C26.1694 1.60993 26.1668 1.61163 26.1644 1.61369C26.16 1.61369 26.1557 1.61876 26.1514 1.62021C25.4791 1.94188 21.4944 8.26518 26.8945 13.6771Z" fill="url(#paint8_radial_327_3940)"/>
<path d="M28.7676 16.0009C28.6846 15.9241 28.5978 15.8516 28.5074 15.7836C28.472 15.7568 28.4351 15.73 28.399 15.7032C27.4715 15.0511 25.8103 14.4049 24.2105 14.6838C30.4592 17.815 28.7814 28.5983 20.1225 28.1911C19.3516 28.1601 18.5896 28.0136 17.862 27.7564C17.6921 27.6927 17.5215 27.6224 17.3517 27.547C17.2533 27.5021 17.1558 27.4572 17.0625 27.4072L17.0741 27.4145C18.282 28.2404 24.2481 30.2588 30.4831 25.1686C30.4831 25.1686 30.4867 25.1591 30.4925 25.1461C30.6472 24.7831 32.7074 19.6386 28.7676 16.0009Z" fill="url(#paint9_radial_327_3940)"/>
<path d="M12.9658 21.7096C12.9658 21.7096 13.7675 18.7146 18.7078 18.7146C19.242 18.7146 20.7688 17.2207 20.797 16.7875C20.8251 16.3542 17.6379 18.1176 14.2742 16.531C10.6424 14.8183 7.88672 16.7875 7.88672 16.7875C7.88672 16.7875 8.93348 19.3826 12.0022 19.3826C11.6805 22.2291 13.1819 25.5479 16.8174 27.2896C16.8984 27.328 16.975 27.3707 17.0581 27.4084C14.9364 26.3115 13.1848 24.2323 12.9658 21.7096Z" fill="url(#paint10_radial_327_3940)"/>
<path d="M36.8398 13.6604C36.0851 11.8398 34.5555 9.87426 33.3547 9.25337C34.3321 11.174 34.8974 13.1004 35.1136 14.5378C35.1136 14.5378 35.1136 14.5479 35.1172 14.5667C33.1531 9.65909 29.8219 7.67979 27.1017 3.37129C26.9636 3.15394 26.8263 2.9366 26.6918 2.70404C26.6159 2.5729 26.5544 2.45409 26.5009 2.34179C26.3882 2.12394 26.3011 1.8937 26.2414 1.65571C26.2419 1.64441 26.2382 1.63333 26.231 1.62463C26.2237 1.61593 26.2136 1.61022 26.2024 1.60862C26.1917 1.60572 26.1805 1.60572 26.1699 1.60862C26.167 1.60993 26.1643 1.61163 26.1619 1.61369C26.1576 1.61369 26.1532 1.61876 26.1489 1.62021L26.1561 1.61079C21.792 4.17257 20.3115 8.91142 20.1756 11.2827C20.378 11.2689 20.5797 11.2515 20.7857 11.2515C24.0424 11.2515 26.879 13.0468 28.3978 15.7064C27.4704 15.0543 25.8091 14.4081 24.2094 14.687C30.4581 17.8182 28.7802 28.6015 20.1214 28.1943C19.3504 28.1633 18.5885 28.0168 17.8609 27.7596C17.691 27.6958 17.5204 27.6256 17.3505 27.5502C17.2522 27.5053 17.1546 27.4604 17.0613 27.4104L17.0729 27.4176C16.9891 27.3771 16.9045 27.3351 16.8206 27.2916C16.9016 27.33 16.9782 27.3727 17.0613 27.4104C14.9353 26.3114 13.1837 24.2321 12.9647 21.7094C12.9647 21.7094 13.7664 18.7144 18.7067 18.7144C19.2409 18.7144 20.7676 17.2205 20.7958 16.7873C20.7893 16.646 17.7662 15.4405 16.5871 14.2762C15.9575 13.6546 15.6582 13.3547 15.3929 13.1294C15.2493 13.0077 15.0992 12.894 14.9433 12.7889C14.5475 11.4002 14.5307 9.93057 14.8948 8.53324C13.11 9.34828 11.722 10.6342 10.7129 11.7724H10.7049C10.016 10.898 10.0644 8.01378 10.1035 7.41173C10.0955 7.37406 9.5902 7.67472 9.52514 7.72037C8.91723 8.155 8.34898 8.64279 7.82705 9.17803C7.23312 9.78151 6.69051 10.4336 6.20487 11.1276C5.08756 12.7145 4.29517 14.5076 3.87352 16.4033C3.86557 16.441 3.85834 16.4801 3.85039 16.5185C3.81786 16.6714 3.67039 17.4495 3.65015 17.6161C3.65015 17.6038 3.65015 17.6291 3.65015 17.6161C3.51479 18.4201 3.42812 19.2315 3.39062 20.046V20.1351C3.39062 29.7505 11.169 37.5459 20.7633 37.5459C29.3564 37.5459 36.4907 31.2936 37.888 23.0809C37.917 22.8585 37.9408 22.6339 37.9668 22.4093C38.3124 19.423 37.9285 16.2845 36.8398 13.6604ZM35.1164 14.5544V14.5733V14.5544Z" fill="url(#paint11_linear_327_3940)"/>
<defs>
<linearGradient id="paint0_linear_327_3940" x1="34.5403" y1="7.1741" x2="5.63861" y2="34.9976" gradientUnits="userSpaceOnUse">
<stop offset="0.05" stop-color="#FFF44F"/>
<stop offset="0.11" stop-color="#FFE847"/>
<stop offset="0.22" stop-color="#FFC830"/>
<stop offset="0.37" stop-color="#FF980E"/>
<stop offset="0.4" stop-color="#FF8B16"/>
<stop offset="0.46" stop-color="#FF672A"/>
<stop offset="0.53" stop-color="#FF3647"/>
<stop offset="0.7" stop-color="#E31587"/>
</linearGradient>
<radialGradient id="paint1_radial_327_3940" cx="0" cy="0" r="1" gradientUnits="userSpaceOnUse" gradientTransform="translate(33.209 5.59599) scale(36.2179 36.2974)">
<stop offset="0.13" stop-color="#FFBD4F"/>
<stop offset="0.19" stop-color="#FFAC31"/>
<stop offset="0.25" stop-color="#FF9D17"/>
<stop offset="0.28" stop-color="#FF980E"/>
<stop offset="0.4" stop-color="#FF563B"/>
<stop offset="0.47" stop-color="#FF3750"/>
<stop offset="0.71" stop-color="#F5156C"/>
<stop offset="0.78" stop-color="#EB0878"/>
<stop offset="0.86" stop-color="#E50080"/>
</radialGradient>
<radialGradient id="paint2_radial_327_3940" cx="0" cy="0" r="1" gradientUnits="userSpaceOnUse" gradientTransform="translate(19.9749 20.4349) scale(36.2179 36.2974)">
<stop offset="0.3" stop-color="#960E18"/>
<stop offset="0.35" stop-color="#B11927" stop-opacity="0.74"/>
<stop offset="0.43" stop-color="#DB293D" stop-opacity="0.34"/>
<stop offset="0.5" stop-color="#F5334B" stop-opacity="0.09"/>
<stop offset="0.53" stop-color="#FF3750" stop-opacity="0"/>
</radialGradient>
<radialGradient id="paint3_radial_327_3940" cx="0" cy="0" r="1" gradientUnits="userSpaceOnUse" gradientTransform="translate(24.3411 -2.64042) scale(26.2383 26.2959)">
<stop offset="0.13" stop-color="#FFF44F"/>
<stop offset="0.25" stop-color="#FFDC3E"/>
<stop offset="0.51" stop-color="#FF9D12"/>
<stop offset="0.53" stop-color="#FF980E"/>
</radialGradient>
<radialGradient id="paint4_radial_327_3940" cx="0" cy="0" r="1" gradientUnits="userSpaceOnUse" gradientTransform="translate(15.9678 29.9163) scale(17.2447 17.2826)">
<stop offset="0.35" stop-color="#3A8EE6"/>
<stop offset="0.47" stop-color="#5C79F0"/>
<stop offset="0.67" stop-color="#9059FF"/>
<stop offset="1" stop-color="#C139E6"/>
</radialGradient>
<radialGradient id="paint5_radial_327_3940" cx="0" cy="0" r="1" gradientUnits="userSpaceOnUse" gradientTransform="translate(20.4935 16.1212) rotate(-13.9265) scale(9.13751 10.7552)">
<stop offset="0.21" stop-color="#9059FF" stop-opacity="0"/>
<stop offset="0.28" stop-color="#8C4FF3" stop-opacity="0.06"/>
<stop offset="0.75" stop-color="#7716A8" stop-opacity="0.45"/>
<stop offset="0.97" stop-color="#6E008B" stop-opacity="0.6"/>
</radialGradient>
<radialGradient id="paint6_radial_327_3940" cx="0" cy="0" r="1" gradientUnits="userSpaceOnUse" gradientTransform="translate(19.5161 4.11218) scale(12.4064 12.4336)">
<stop stop-color="#FFE226"/>
<stop offset="0.12" stop-color="#FFDB27"/>
<stop offset="0.3" stop-color="#FFC82A"/>
<stop offset="0.5" stop-color="#FFA930"/>
<stop offset="0.73" stop-color="#FF7E37"/>
<stop offset="0.79" stop-color="#FF7139"/>
</radialGradient>
<radialGradient id="paint7_radial_327_3940" cx="0" cy="0" r="1" gradientUnits="userSpaceOnUse" gradientTransform="translate(29.2696 -3.77451) scale(52.9313 53.0475)">
<stop offset="0.11" stop-color="#FFF44F"/>
<stop offset="0.46" stop-color="#FF980E"/>
<stop offset="0.62" stop-color="#FF5634"/>
<stop offset="0.72" stop-color="#FF3647"/>
<stop offset="0.9" stop-color="#E31587"/>
</radialGradient>
<radialGradient id="paint8_radial_327_3940" cx="0" cy="0" r="1" gradientUnits="userSpaceOnUse" gradientTransform="translate(24.1535 2.02005) rotate(84.2447) scale(38.6655 25.3489)">
<stop stop-color="#FFF44F"/>
<stop offset="0.06" stop-color="#FFE847"/>
<stop offset="0.17" stop-color="#FFC830"/>
<stop offset="0.3" stop-color="#FF980E"/>
<stop offset="0.36" stop-color="#FF8B16"/>
<stop offset="0.45" stop-color="#FF672A"/>
<stop offset="0.57" stop-color="#FF3647"/>
<stop offset="0.74" stop-color="#E31587"/>
</radialGradient>
<radialGradient id="paint9_radial_327_3940" cx="0" cy="0" r="1" gradientUnits="userSpaceOnUse" gradientTransform="translate(19.2269 8.71552) scale(33.0451 33.1176)">
<stop offset="0.14" stop-color="#FFF44F"/>
<stop offset="0.48" stop-color="#FF980E"/>
<stop offset="0.59" stop-color="#FF5634"/>
<stop offset="0.66" stop-color="#FF3647"/>
<stop offset="0.9" stop-color="#E31587"/>
</radialGradient>
<radialGradient id="paint10_radial_327_3940" cx="0" cy="0" r="1" gradientUnits="userSpaceOnUse" gradientTransform="translate(27.9479 10.654) scale(36.168 36.2474)">
<stop offset="0.09" stop-color="#FFF44F"/>
<stop offset="0.23" stop-color="#FFE141"/>
<stop offset="0.51" stop-color="#FFAF1E"/>
<stop offset="0.63" stop-color="#FF980E"/>
</radialGradient>
<linearGradient id="paint11_linear_327_3940" x1="34.1933" y1="7.02486" x2="9.60002" y2="31.565" gradientUnits="userSpaceOnUse">
<stop offset="0.17" stop-color="#FFF44F" stop-opacity="0.8"/>
<stop offset="0.27" stop-color="#FFF44F" stop-opacity="0.63"/>
<stop offset="0.49" stop-color="#FFF44F" stop-opacity="0.22"/>
<stop offset="0.6" stop-color="#FFF44F" stop-opacity="0"/>
</linearGradient>
</defs>
</svg>
