<svg width="40" height="40" viewBox="0 0 40 40" fill="none" xmlns="http://www.w3.org/2000/svg">
<rect x="3.17188" y="2.81348" width="34.3467" height="34.3467" rx="7.36" fill="url(#paint0_radial_327_4173)"/>
<rect x="3.17188" y="2.81348" width="34.3467" height="34.3467" rx="7.36" fill="url(#paint1_radial_327_4173)"/>
<rect x="3.17188" y="2.81348" width="34.3467" height="34.3467" rx="7.36" fill="url(#paint2_radial_327_4173)"/>
<path d="M28.9315 13.2407C28.9315 14.2569 28.1077 15.0807 27.0915 15.0807C26.0753 15.0807 25.2515 14.2569 25.2515 13.2407C25.2515 12.2245 26.0753 11.4007 27.0915 11.4007C28.1077 11.4007 28.9315 12.2245 28.9315 13.2407Z" fill="white"/>
<path fill-rule="evenodd" clip-rule="evenodd" d="M20.3448 26.1207C23.7321 26.1207 26.4781 23.3747 26.4781 19.9874C26.4781 16.6 23.7321 13.854 20.3448 13.854C16.9574 13.854 14.2115 16.6 14.2115 19.9874C14.2115 23.3747 16.9574 26.1207 20.3448 26.1207ZM20.3448 23.6674C22.3772 23.6674 24.0248 22.0198 24.0248 19.9874C24.0248 17.955 22.3772 16.3074 20.3448 16.3074C18.3124 16.3074 16.6648 17.955 16.6648 19.9874C16.6648 22.0198 18.3124 23.6674 20.3448 23.6674Z" fill="white"/>
<path fill-rule="evenodd" clip-rule="evenodd" d="M8.07812 19.4967C8.07812 15.3747 8.07812 13.3137 8.88032 11.7393C9.58595 10.3545 10.7119 9.22852 12.0968 8.5229C13.6711 7.7207 15.7321 7.7207 19.8541 7.7207H20.8355C24.9574 7.7207 27.0184 7.7207 28.5928 8.5229C29.9777 9.22852 31.1036 10.3545 31.8093 11.7393C32.6115 13.3137 32.6115 15.3747 32.6115 19.4967V20.478C32.6115 24.6 32.6115 26.661 31.8093 28.2354C31.1036 29.6203 29.9777 30.7462 28.5928 31.4518C27.0184 32.254 24.9574 32.254 20.8355 32.254H19.8541C15.7321 32.254 13.6711 32.254 12.0968 31.4518C10.7119 30.7462 9.58595 29.6203 8.88032 28.2354C8.07812 26.661 8.07812 24.6 8.07812 20.478V19.4967ZM19.8541 10.174H20.8355C22.9369 10.174 24.3655 10.1759 25.4697 10.2662C26.5453 10.354 27.0953 10.5133 27.479 10.7088C28.4023 11.1792 29.1529 11.9299 29.6233 12.8531C29.8188 13.2368 29.9781 13.7869 30.066 14.8624C30.1562 15.9667 30.1581 17.3952 30.1581 19.4967V20.478C30.1581 22.5795 30.1562 24.0081 30.066 25.1123C29.9781 26.1879 29.8188 26.7379 29.6233 27.1216C29.1529 28.0449 28.4023 28.7955 27.479 29.2659C27.0953 29.4614 26.5453 29.6207 25.4697 29.7086C24.3655 29.7988 22.9369 29.8007 20.8355 29.8007H19.8541C17.7526 29.8007 16.3241 29.7988 15.2199 29.7086C14.1443 29.6207 13.5942 29.4614 13.2105 29.2659C12.2873 28.7955 11.5367 28.0449 11.0663 27.1216C10.8707 26.7379 10.7115 26.1879 10.6236 25.1123C10.5334 24.0081 10.5315 22.5795 10.5315 20.478V19.4967C10.5315 17.3952 10.5334 15.9667 10.6236 14.8624C10.7115 13.7869 10.8707 13.2368 11.0663 12.8531C11.5367 11.9299 12.2873 11.1792 13.2105 10.7088C13.5942 10.5133 14.1443 10.354 15.2199 10.2662C16.3241 10.1759 17.7526 10.174 19.8541 10.174Z" fill="white"/>
<defs>
<radialGradient id="paint0_radial_327_4173" cx="0" cy="0" r="1" gradientUnits="userSpaceOnUse" gradientTransform="translate(15.4385 28.5735) rotate(-55.3758) scale(31.304)">
<stop stop-color="#B13589"/>
<stop offset="0.79309" stop-color="#C62F94"/>
<stop offset="1" stop-color="#8A3AC8"/>
</radialGradient>
<radialGradient id="paint1_radial_327_4173" cx="0" cy="0" r="1" gradientUnits="userSpaceOnUse" gradientTransform="translate(14.2119 38.3868) rotate(-65.1363) scale(27.7156)">
<stop stop-color="#E0E8B7"/>
<stop offset="0.444662" stop-color="#FB8A2E"/>
<stop offset="0.71474" stop-color="#E2425C"/>
<stop offset="1" stop-color="#E2425C" stop-opacity="0"/>
</radialGradient>
<radialGradient id="paint2_radial_327_4173" cx="0" cy="0" r="1" gradientUnits="userSpaceOnUse" gradientTransform="translate(1.33188 4.04014) rotate(-8.1301) scale(47.7061 10.2039)">
<stop offset="0.156701" stop-color="#406ADC"/>
<stop offset="0.467799" stop-color="#6A45BE"/>
<stop offset="1" stop-color="#6A45BE" stop-opacity="0"/>
</radialGradient>
</defs>
</svg>
