<svg width="40" height="40" viewBox="0 0 40 40" fill="none" xmlns="http://www.w3.org/2000/svg">
<circle cx="20.3452" cy="19.7202" r="17.1733" fill="#FFFA37"/>
<path fill-rule="evenodd" clip-rule="evenodd" d="M26.5096 10.135C25.3252 8.64249 23.3714 7.4541 20.3593 7.4541C17.7801 7.4795 12.6215 8.90703 12.6215 14.4139C12.6215 15.2182 12.6852 16.2953 12.7408 17.0885C12.6753 17.0694 12.5947 17.0338 12.4669 16.9726L12.4492 16.964C12.2233 16.8556 11.8799 16.6907 11.4023 16.6907C10.9197 16.6907 10.4532 16.8797 10.1068 17.1599C9.76255 17.4385 9.46845 17.8667 9.46845 18.3844C9.46845 19.0318 9.83286 19.4617 10.259 19.7374C10.6375 19.9822 11.1147 20.1385 11.4925 20.2623L11.5298 20.2745C11.9342 20.4072 12.2306 20.5083 12.435 20.6357C12.594 20.7348 12.6182 20.7975 12.6212 20.8571C12.6191 20.8656 12.6142 20.8839 12.6036 20.9136C12.5818 20.9749 12.5456 21.0577 12.4925 21.1613C12.3868 21.3679 12.2326 21.6218 12.0491 21.8927C11.679 22.4392 11.2273 22.9997 10.8899 23.3242C10.5571 23.6444 10.011 24.0422 9.44003 24.3589C9.15688 24.5159 8.87998 24.6461 8.63228 24.7355C8.37658 24.8277 8.1892 24.8629 8.07342 24.8629C7.98177 24.8629 7.90244 24.8817 7.86782 24.8904C7.81915 24.9026 7.76879 24.9186 7.71897 24.9374C7.62016 24.9745 7.50238 25.0302 7.38573 25.1087C7.16285 25.2587 6.85156 25.5611 6.85156 26.0383C6.85156 26.2874 6.91003 26.4982 7.01109 26.6811C7.09955 26.8412 7.21327 26.9627 7.27873 27.0326L7.28843 27.043L7.30655 27.0625C7.6665 27.4497 8.26233 27.7192 8.84075 27.9041C9.33776 28.0629 9.89344 28.1813 10.4349 28.2524C10.4426 28.2873 10.4506 28.3249 10.4593 28.3661L10.4621 28.3794C10.4962 28.5402 10.5414 28.7531 10.6079 28.9495C10.6706 29.1347 10.7842 29.4086 11.0169 29.6037C11.3132 29.8522 11.7007 29.8774 11.9535 29.8763C12.2249 29.8752 12.5418 29.837 12.8425 29.8008L12.8681 29.7977C13.2912 29.7467 13.7339 29.694 14.1923 29.694C15.029 29.694 15.5652 30.0436 16.4066 30.6182L16.4123 30.622C16.7037 30.8211 17.03 31.0439 17.4009 31.2631C18.6425 31.9968 19.6513 31.9905 20.2231 31.9869C20.2608 31.9866 20.2966 31.9864 20.3305 31.9864C20.3643 31.9864 20.4003 31.9866 20.4383 31.9869C21.011 31.9905 22.0466 31.9972 23.2889 31.2631C23.6598 31.0439 23.9861 30.8211 24.2775 30.6221L24.2832 30.6182C25.1246 30.0436 25.6608 29.694 26.4975 29.694C26.9559 29.694 27.3985 29.7467 27.8217 29.7977L27.8473 29.8008C28.148 29.837 28.4649 29.8752 28.7363 29.8763C28.9891 29.8774 29.3766 29.8522 29.6729 29.6037C29.9056 29.4086 30.0192 29.1347 30.0819 28.9495C30.1484 28.7532 30.1936 28.5402 30.2277 28.3794L30.2305 28.3661C30.2392 28.3249 30.2472 28.2873 30.2549 28.2524C30.7963 28.1813 31.352 28.0629 31.849 27.9041C32.4275 27.7192 33.0234 27.4497 33.3833 27.0624L33.4014 27.043L33.411 27.0327C33.4765 26.9628 33.5902 26.8412 33.6787 26.6811C33.7798 26.4982 33.8382 26.2874 33.8382 26.0383C33.8382 25.5611 33.5269 25.2587 33.3041 25.1087C33.1874 25.0302 33.0696 24.9745 32.9708 24.9374C32.921 24.9186 32.8706 24.9026 32.822 24.8904C32.7874 24.8817 32.708 24.8629 32.6164 24.8629C32.5006 24.8629 32.3132 24.8277 32.0575 24.7355C31.8098 24.6461 31.5329 24.5159 31.2498 24.3589C30.6788 24.0422 30.1327 23.6444 29.7999 23.3242C29.4625 22.9997 29.0108 22.4392 28.6407 21.8927C28.4572 21.6218 28.303 21.3679 28.1973 21.1613C28.1442 21.0577 28.108 20.9749 28.0862 20.9136C28.0756 20.8839 28.0707 20.8656 28.0686 20.8571C28.0716 20.7975 28.0958 20.7348 28.2548 20.6357C28.4592 20.5083 28.7556 20.4072 29.1599 20.2745L29.1973 20.2623C29.5751 20.1385 30.0523 19.9822 30.4308 19.7374C30.8569 19.4617 31.2213 19.0318 31.2213 18.3844C31.2213 17.8667 30.9272 17.4385 30.583 17.1599C30.2366 16.8797 29.77 16.6907 29.2875 16.6907C28.8099 16.6907 28.4665 16.8556 28.2406 16.964L28.2229 16.9726C28.0951 17.0338 28.0145 17.0694 27.949 17.0885C28.0046 16.2953 28.0683 15.2182 28.0683 14.4139C28.0683 13.3221 27.6713 11.5991 26.5096 10.135ZM15.1723 10.8553C14.1897 12.0854 13.853 13.5459 13.853 14.4139C13.853 15.2187 13.9212 16.3368 13.9787 17.1385C13.9978 17.4048 13.9432 17.7151 13.7107 17.9615C13.4753 18.2109 13.1551 18.2918 12.8691 18.2918C12.4561 18.2918 12.1419 18.1407 11.941 18.044L11.9176 18.0328C11.6934 17.9253 11.5756 17.8753 11.4023 17.8753C11.2446 17.8753 11.0521 17.9431 10.8995 18.0666C10.7448 18.1917 10.6999 18.3143 10.6999 18.3844C10.6999 18.5271 10.7526 18.6291 10.9461 18.7543C11.1747 18.9021 11.5003 19.0132 11.9273 19.1533L11.9644 19.1655C12.319 19.2816 12.7581 19.4255 13.1046 19.6415C13.4936 19.884 13.853 20.2737 13.853 20.874C13.853 21.0314 13.8095 21.1828 13.7687 21.2975C13.7243 21.422 13.6644 21.5535 13.5973 21.6847C13.4628 21.9474 13.2809 22.2442 13.0809 22.5394C12.6842 23.1252 12.1798 23.7587 11.7607 24.1619C11.3369 24.5695 10.6997 25.0277 10.0551 25.3852C9.7305 25.5652 9.3916 25.7267 9.06481 25.8446C8.77229 25.9502 8.45702 26.0329 8.15458 26.0458C8.14704 26.049 8.13871 26.0528 8.12999 26.0572C8.11605 26.0642 8.103 26.0717 8.09163 26.0794L8.08581 26.0834C8.08695 26.0916 8.08825 26.0976 8.08934 26.1019C8.09176 26.1113 8.09463 26.1181 8.0985 26.1251C8.11035 26.1466 8.12905 26.1705 8.2047 26.2515L8.22455 26.2728C8.36083 26.4194 8.69667 26.6097 9.22903 26.7798C9.73604 26.9419 10.3356 27.0589 10.902 27.1127C11.1854 27.1395 11.3488 27.3166 11.4179 27.412C11.4891 27.5103 11.5298 27.614 11.5536 27.6828C11.5996 27.816 11.6343 27.9801 11.6617 28.1095L11.6659 28.1292C11.7033 28.3056 11.7361 28.4564 11.7788 28.5825C11.7939 28.627 11.8078 28.661 11.8198 28.6859C11.8468 28.689 11.8882 28.6919 11.9483 28.6917C12.2087 28.6906 12.4695 28.6518 12.7276 28.6207C13.1404 28.571 13.6514 28.5094 14.1923 28.5094C15.4469 28.5094 16.2748 29.0751 17.0745 29.6215L17.1194 29.6522C17.4154 29.8543 17.712 30.0566 18.0455 30.2537C18.9854 30.8091 19.7005 30.8051 20.223 30.8022C20.2598 30.802 20.2956 30.8017 20.3305 30.8017C20.365 30.8017 20.4006 30.8019 20.4372 30.8021C20.9655 30.805 21.7046 30.809 22.6443 30.2537C22.9778 30.0566 23.2744 29.8543 23.5704 29.6522L23.6152 29.6215C24.415 29.0751 25.2429 28.5094 26.4975 28.5094C27.0384 28.5094 27.5494 28.571 27.9622 28.6207L27.9747 28.6222C28.3086 28.6624 28.5529 28.6909 28.7415 28.6917C28.8015 28.6919 28.843 28.689 28.87 28.6859C28.882 28.661 28.8959 28.627 28.911 28.5825C28.9537 28.4564 28.9865 28.3056 29.0239 28.1292L29.028 28.1095C29.0555 27.9801 29.0902 27.816 29.1362 27.6828C29.16 27.614 29.2007 27.5103 29.2719 27.412C29.341 27.3166 29.5044 27.1395 29.7878 27.1127C30.3542 27.0589 30.9538 26.9419 31.4608 26.7798C31.9931 26.6097 32.329 26.4194 32.4652 26.2728L32.4851 26.2515C32.5607 26.1705 32.5794 26.1466 32.5913 26.1251C32.5952 26.1181 32.598 26.1114 32.6005 26.1019C32.6015 26.0976 32.6028 26.0916 32.604 26.0834L32.5982 26.0794C32.5868 26.0717 32.5737 26.0642 32.5598 26.0572C32.5511 26.0528 32.5428 26.049 32.5352 26.0458C32.2328 26.0329 31.9175 25.9502 31.625 25.8446C31.2982 25.7267 30.9593 25.5652 30.6347 25.3852C29.9901 25.0277 29.3529 24.5695 28.9291 24.1619C28.51 23.7587 28.0056 23.1252 27.6089 22.5394C27.4089 22.2442 27.227 21.9474 27.0925 21.6847C27.0254 21.5535 26.9655 21.422 26.9211 21.2975C26.8803 21.1828 26.8368 21.0314 26.8368 20.874C26.8368 20.2737 27.1962 19.884 27.5852 19.6415C27.9317 19.4255 28.3708 19.2816 28.7254 19.1655L28.7625 19.1533C29.1895 19.0132 29.5151 18.9021 29.7437 18.7543C29.9372 18.6291 29.9899 18.5271 29.9899 18.3844C29.9899 18.3143 29.945 18.1917 29.7903 18.0666C29.6377 17.9431 29.4452 17.8753 29.2875 17.8753C29.1142 17.8753 28.9964 17.9253 28.7721 18.0328L28.7488 18.044C28.5479 18.1407 28.2337 18.2918 27.8207 18.2918C27.5347 18.2918 27.2145 18.2109 26.9791 17.9615C26.7466 17.7151 26.692 17.4048 26.7111 17.1385C26.7686 16.3368 26.8368 15.2187 26.8368 14.4139C26.8368 13.5437 26.506 12.083 25.5307 10.8538C24.5779 9.65307 22.9851 8.63875 20.3593 8.63875C17.7333 8.63875 16.1325 9.65337 15.1723 10.8553Z" fill="black"/>
<path fill-rule="evenodd" clip-rule="evenodd" d="M15.1725 10.8552C14.1898 12.0853 13.8531 13.5458 13.8531 14.4138C13.8531 15.2187 13.9213 16.3367 13.9788 17.1384C13.998 17.4047 13.9434 17.715 13.7108 17.9614C13.4755 18.2108 13.1553 18.2917 12.8692 18.2917C12.4562 18.2917 12.1421 18.1406 11.9411 18.044L11.9178 18.0327C11.6936 17.9253 11.5757 17.8753 11.4024 17.8753C11.2447 17.8753 11.0523 17.943 10.8996 18.0665C10.7449 18.1917 10.7001 18.3142 10.7001 18.3843C10.7001 18.527 10.7527 18.629 10.9462 18.7542C11.1748 18.902 11.5005 19.0132 11.9274 19.1532L11.9646 19.1654C12.3191 19.2815 12.7582 19.4254 13.1048 19.6414C13.4938 19.8839 13.8531 20.2736 13.8531 20.8739C13.8531 21.0313 13.8096 21.1828 13.7688 21.2975C13.7245 21.422 13.6646 21.5535 13.5974 21.6846C13.4629 21.9473 13.281 22.2441 13.081 22.5393C12.6843 23.1251 12.18 23.7586 11.7608 24.1618C11.3371 24.5695 10.6998 25.0277 10.0552 25.3851C9.73063 25.5652 9.39173 25.7266 9.06494 25.8445C8.77242 25.9501 8.45715 26.0328 8.15471 26.0457C8.14717 26.0489 8.13884 26.0527 8.13012 26.0571C8.11618 26.0641 8.10314 26.0717 8.09176 26.0793L8.08594 26.0834C8.08708 26.0915 8.08838 26.0975 8.08947 26.1018C8.09189 26.1113 8.09476 26.118 8.09863 26.125C8.11049 26.1465 8.12919 26.1704 8.20483 26.2514L8.22468 26.2727C8.36096 26.4194 8.6968 26.6096 9.22916 26.7798C9.73617 26.9418 10.3357 27.0589 10.9022 27.1126C11.1856 27.1395 11.3489 27.3165 11.4181 27.412C11.4892 27.5102 11.5299 27.6139 11.5537 27.6827C11.5997 27.8159 11.6345 27.98 11.6619 28.1095L11.666 28.1291C11.7035 28.3055 11.7362 28.4563 11.7789 28.5824C11.794 28.627 11.8079 28.6609 11.8199 28.6858C11.8469 28.6889 11.8884 28.6919 11.9484 28.6916C12.2089 28.6905 12.4696 28.6518 12.7277 28.6206C13.1406 28.5709 13.6515 28.5093 14.1925 28.5093C15.4471 28.5093 16.2749 29.075 17.0747 29.6214L17.1196 29.6521C17.4155 29.8542 17.7121 30.0565 18.0456 30.2536C18.9855 30.809 19.7007 30.805 20.2232 30.8021C20.2599 30.8019 20.2957 30.8017 20.3306 30.8017C20.3652 30.8017 20.4008 30.8019 20.4374 30.8021C20.9656 30.8049 21.7047 30.8089 22.6444 30.2536C22.978 30.0565 23.2745 29.8542 23.5705 29.6521L23.6154 29.6214C24.4151 29.075 25.243 28.5093 26.4976 28.5093C27.0386 28.5093 27.5495 28.5709 27.9624 28.6206L27.9748 28.6221C28.3087 28.6624 28.553 28.6908 28.7416 28.6916C28.8017 28.6919 28.8431 28.6889 28.8701 28.6858C28.8821 28.6609 28.8961 28.627 28.9112 28.5824C28.9538 28.4563 28.9866 28.3055 29.024 28.1291L29.0282 28.1094C29.0556 27.98 29.0903 27.8159 29.1364 27.6827C29.1601 27.6139 29.2008 27.5102 29.272 27.412C29.3411 27.3165 29.5045 27.1395 29.7879 27.1126C30.3543 27.0589 30.9539 26.9418 31.4609 26.7798C31.9933 26.6096 32.3291 26.4194 32.4654 26.2727L32.4852 26.2515C32.5609 26.1704 32.5796 26.1465 32.5914 26.125C32.5953 26.118 32.5982 26.1113 32.6006 26.1018C32.6017 26.0975 32.603 26.0915 32.6041 26.0833L32.5983 26.0793C32.5869 26.0717 32.5739 26.0641 32.5599 26.0571C32.5512 26.0527 32.5429 26.0489 32.5353 26.0457C32.2329 26.0328 31.9176 25.9501 31.6251 25.8445C31.2983 25.7266 30.9594 25.5652 30.6348 25.3851C29.9903 25.0277 29.353 24.5695 28.9292 24.1618C28.5101 23.7586 28.0058 23.1251 27.609 22.5393C27.4091 22.2441 27.2271 21.9473 27.0926 21.6846C27.0255 21.5535 26.9656 21.422 26.9213 21.2975C26.8804 21.1828 26.8369 21.0313 26.8369 20.8739C26.8369 20.2736 27.1963 19.8839 27.5853 19.6414C27.9318 19.4254 28.371 19.2815 28.7255 19.1654L28.7627 19.1532C29.1896 19.0132 29.5153 18.902 29.7438 18.7542C29.9373 18.629 29.99 18.527 29.99 18.3843C29.99 18.3142 29.9451 18.1917 29.7904 18.0665C29.6378 17.943 29.4453 17.8753 29.2877 17.8753C29.1144 17.8753 28.9965 17.9253 28.7723 18.0327L28.7489 18.044C28.548 18.1406 28.2338 18.2917 27.8208 18.2917C27.5348 18.2917 27.2146 18.2108 26.9792 17.9614C26.7467 17.715 26.6921 17.4047 26.7112 17.1384C26.7687 16.3367 26.8369 15.2187 26.8369 14.4138C26.8369 13.5436 26.5062 12.0829 25.5308 10.8537C24.578 9.65299 22.9852 8.63867 20.3595 8.63867C17.7334 8.63867 16.1327 9.65329 15.1725 10.8552Z" fill="white"/>
</svg>
